G04 #@! TF.GenerationSoftware,KiCad,Pcbnew,(6.0.9)*
G04 #@! TF.CreationDate,2023-02-20T10:38:46+01:00*
G04 #@! TF.ProjectId,sensorboard,73656e73-6f72-4626-9f61-72642e6b6963,rev?*
G04 #@! TF.SameCoordinates,Original*
G04 #@! TF.FileFunction,Soldermask,Top*
G04 #@! TF.FilePolarity,Negative*
%FSLAX46Y46*%
G04 Gerber Fmt 4.6, Leading zero omitted, Abs format (unit mm)*
G04 Created by KiCad (PCBNEW (6.0.9)) date 2023-02-20 10:38:46*
%MOMM*%
%LPD*%
G01*
G04 APERTURE LIST*
G04 Aperture macros list*
%AMRoundRect*
0 Rectangle with rounded corners*
0 $1 Rounding radius*
0 $2 $3 $4 $5 $6 $7 $8 $9 X,Y pos of 4 corners*
0 Add a 4 corners polygon primitive as box body*
4,1,4,$2,$3,$4,$5,$6,$7,$8,$9,$2,$3,0*
0 Add four circle primitives for the rounded corners*
1,1,$1+$1,$2,$3*
1,1,$1+$1,$4,$5*
1,1,$1+$1,$6,$7*
1,1,$1+$1,$8,$9*
0 Add four rect primitives between the rounded corners*
20,1,$1+$1,$2,$3,$4,$5,0*
20,1,$1+$1,$4,$5,$6,$7,0*
20,1,$1+$1,$6,$7,$8,$9,0*
20,1,$1+$1,$8,$9,$2,$3,0*%
G04 Aperture macros list end*
%ADD10C,0.010000*%
%ADD11RoundRect,0.250000X-0.350000X-0.450000X0.350000X-0.450000X0.350000X0.450000X-0.350000X0.450000X0*%
%ADD12R,1.700000X1.700000*%
%ADD13O,1.700000X1.700000*%
%ADD14C,0.800000*%
%ADD15C,6.400000*%
%ADD16RoundRect,0.250000X-0.337500X-0.475000X0.337500X-0.475000X0.337500X0.475000X-0.337500X0.475000X0*%
%ADD17R,0.550000X0.400000*%
%ADD18RoundRect,0.027000X-0.218000X-0.198000X0.218000X-0.198000X0.218000X0.198000X-0.218000X0.198000X0*%
%ADD19RoundRect,0.250000X0.337500X0.475000X-0.337500X0.475000X-0.337500X-0.475000X0.337500X-0.475000X0*%
%ADD20RoundRect,0.250000X-0.475000X0.337500X-0.475000X-0.337500X0.475000X-0.337500X0.475000X0.337500X0*%
%ADD21R,1.238000X1.238000*%
%ADD22C,1.238000*%
G04 APERTURE END LIST*
G36*
X127794000Y-106450000D02*
G01*
X126794000Y-106450000D01*
X126794000Y-104750000D01*
X127794000Y-104750000D01*
X127794000Y-106450000D01*
G37*
D10*
X127794000Y-106450000D02*
X126794000Y-106450000D01*
X126794000Y-104750000D01*
X127794000Y-104750000D01*
X127794000Y-106450000D01*
G36*
X129044000Y-106450000D02*
G01*
X128044000Y-106450000D01*
X128044000Y-104750000D01*
X129044000Y-104750000D01*
X129044000Y-106450000D01*
G37*
X129044000Y-106450000D02*
X128044000Y-106450000D01*
X128044000Y-104750000D01*
X129044000Y-104750000D01*
X129044000Y-106450000D01*
G36*
X132294000Y-104100000D02*
G01*
X127294000Y-104100000D01*
X127294000Y-99100000D01*
X132294000Y-99100000D01*
X132294000Y-104100000D01*
G37*
X132294000Y-104100000D02*
X127294000Y-104100000D01*
X127294000Y-99100000D01*
X132294000Y-99100000D01*
X132294000Y-104100000D01*
G36*
X126644000Y-104600000D02*
G01*
X124944000Y-104600000D01*
X124944000Y-103600000D01*
X126644000Y-103600000D01*
X126644000Y-104600000D01*
G37*
X126644000Y-104600000D02*
X124944000Y-104600000D01*
X124944000Y-103600000D01*
X126644000Y-103600000D01*
X126644000Y-104600000D01*
G36*
X134644000Y-104600000D02*
G01*
X132944000Y-104600000D01*
X132944000Y-103600000D01*
X134644000Y-103600000D01*
X134644000Y-104600000D01*
G37*
X134644000Y-104600000D02*
X132944000Y-104600000D01*
X132944000Y-103600000D01*
X134644000Y-103600000D01*
X134644000Y-104600000D01*
G36*
X126644000Y-98880000D02*
G01*
X126644000Y-99600000D01*
X124944000Y-99600000D01*
X124944000Y-98600000D01*
X126364000Y-98600000D01*
X126644000Y-98880000D01*
G37*
X126644000Y-98880000D02*
X126644000Y-99600000D01*
X124944000Y-99600000D01*
X124944000Y-98600000D01*
X126364000Y-98600000D01*
X126644000Y-98880000D01*
G36*
X134644000Y-99600000D02*
G01*
X132944000Y-99600000D01*
X132944000Y-98600000D01*
X134644000Y-98600000D01*
X134644000Y-99600000D01*
G37*
X134644000Y-99600000D02*
X132944000Y-99600000D01*
X132944000Y-98600000D01*
X134644000Y-98600000D01*
X134644000Y-99600000D01*
G36*
X132794000Y-106450000D02*
G01*
X131794000Y-106450000D01*
X131794000Y-104750000D01*
X132794000Y-104750000D01*
X132794000Y-106450000D01*
G37*
X132794000Y-106450000D02*
X131794000Y-106450000D01*
X131794000Y-104750000D01*
X132794000Y-104750000D01*
X132794000Y-106450000D01*
G36*
X134644000Y-100850000D02*
G01*
X132944000Y-100850000D01*
X132944000Y-99850000D01*
X134644000Y-99850000D01*
X134644000Y-100850000D01*
G37*
X134644000Y-100850000D02*
X132944000Y-100850000D01*
X132944000Y-99850000D01*
X134644000Y-99850000D01*
X134644000Y-100850000D01*
G36*
X126644000Y-100850000D02*
G01*
X124944000Y-100850000D01*
X124944000Y-99850000D01*
X126644000Y-99850000D01*
X126644000Y-100850000D01*
G37*
X126644000Y-100850000D02*
X124944000Y-100850000D01*
X124944000Y-99850000D01*
X126644000Y-99850000D01*
X126644000Y-100850000D01*
G36*
X130294000Y-98450000D02*
G01*
X129294000Y-98450000D01*
X129294000Y-96750000D01*
X130294000Y-96750000D01*
X130294000Y-98450000D01*
G37*
X130294000Y-98450000D02*
X129294000Y-98450000D01*
X129294000Y-96750000D01*
X130294000Y-96750000D01*
X130294000Y-98450000D01*
G36*
X127794000Y-98450000D02*
G01*
X126794000Y-98450000D01*
X126794000Y-96750000D01*
X127794000Y-96750000D01*
X127794000Y-98450000D01*
G37*
X127794000Y-98450000D02*
X126794000Y-98450000D01*
X126794000Y-96750000D01*
X127794000Y-96750000D01*
X127794000Y-98450000D01*
G36*
X134644000Y-103350000D02*
G01*
X132944000Y-103350000D01*
X132944000Y-102350000D01*
X134644000Y-102350000D01*
X134644000Y-103350000D01*
G37*
X134644000Y-103350000D02*
X132944000Y-103350000D01*
X132944000Y-102350000D01*
X134644000Y-102350000D01*
X134644000Y-103350000D01*
G36*
X129044000Y-98450000D02*
G01*
X128044000Y-98450000D01*
X128044000Y-96750000D01*
X129044000Y-96750000D01*
X129044000Y-98450000D01*
G37*
X129044000Y-98450000D02*
X128044000Y-98450000D01*
X128044000Y-96750000D01*
X129044000Y-96750000D01*
X129044000Y-98450000D01*
G36*
X126644000Y-103350000D02*
G01*
X124944000Y-103350000D01*
X124944000Y-102350000D01*
X126644000Y-102350000D01*
X126644000Y-103350000D01*
G37*
X126644000Y-103350000D02*
X124944000Y-103350000D01*
X124944000Y-102350000D01*
X126644000Y-102350000D01*
X126644000Y-103350000D01*
G36*
X126644000Y-102100000D02*
G01*
X124944000Y-102100000D01*
X124944000Y-101100000D01*
X126644000Y-101100000D01*
X126644000Y-102100000D01*
G37*
X126644000Y-102100000D02*
X124944000Y-102100000D01*
X124944000Y-101100000D01*
X126644000Y-101100000D01*
X126644000Y-102100000D01*
G36*
X134644000Y-102100000D02*
G01*
X132944000Y-102100000D01*
X132944000Y-101100000D01*
X134644000Y-101100000D01*
X134644000Y-102100000D01*
G37*
X134644000Y-102100000D02*
X132944000Y-102100000D01*
X132944000Y-101100000D01*
X134644000Y-101100000D01*
X134644000Y-102100000D01*
G36*
X131544000Y-98450000D02*
G01*
X130544000Y-98450000D01*
X130544000Y-96750000D01*
X131544000Y-96750000D01*
X131544000Y-98450000D01*
G37*
X131544000Y-98450000D02*
X130544000Y-98450000D01*
X130544000Y-96750000D01*
X131544000Y-96750000D01*
X131544000Y-98450000D01*
G36*
X131544000Y-106450000D02*
G01*
X130544000Y-106450000D01*
X130544000Y-104750000D01*
X131544000Y-104750000D01*
X131544000Y-106450000D01*
G37*
X131544000Y-106450000D02*
X130544000Y-106450000D01*
X130544000Y-104750000D01*
X131544000Y-104750000D01*
X131544000Y-106450000D01*
G36*
X130294000Y-106450000D02*
G01*
X129294000Y-106450000D01*
X129294000Y-104750000D01*
X130294000Y-104750000D01*
X130294000Y-106450000D01*
G37*
X130294000Y-106450000D02*
X129294000Y-106450000D01*
X129294000Y-104750000D01*
X130294000Y-104750000D01*
X130294000Y-106450000D01*
G36*
X132794000Y-98450000D02*
G01*
X131794000Y-98450000D01*
X131794000Y-96750000D01*
X132794000Y-96750000D01*
X132794000Y-98450000D01*
G37*
X132794000Y-98450000D02*
X131794000Y-98450000D01*
X131794000Y-96750000D01*
X132794000Y-96750000D01*
X132794000Y-98450000D01*
G36*
X154980000Y-102246000D02*
G01*
X153630000Y-102246000D01*
X153630000Y-100766000D01*
X153950000Y-100446000D01*
X154980000Y-100446000D01*
X154980000Y-102246000D01*
G37*
X154980000Y-102246000D02*
X153630000Y-102246000D01*
X153630000Y-100766000D01*
X153950000Y-100446000D01*
X154980000Y-100446000D01*
X154980000Y-102246000D01*
D11*
X147590000Y-99441000D03*
X149590000Y-99441000D03*
D12*
X171460000Y-102235000D03*
D13*
X174000000Y-102235000D03*
X176540000Y-102235000D03*
X179080000Y-102235000D03*
D14*
X112408000Y-77724000D03*
X114808000Y-75324000D03*
X113110944Y-76026944D03*
X117208000Y-77724000D03*
X116505056Y-76026944D03*
X113110944Y-79421056D03*
X116505056Y-79421056D03*
X114808000Y-80124000D03*
D15*
X114808000Y-77724000D03*
D16*
X142472500Y-99441000D03*
X144547500Y-99441000D03*
X142472500Y-102616000D03*
X144547500Y-102616000D03*
D17*
X153155000Y-100546000D03*
X153155000Y-101346000D03*
X153155000Y-102146000D03*
X155455000Y-102146000D03*
X155455000Y-101346000D03*
X155455000Y-100546000D03*
D14*
X206235000Y-103124000D03*
X202137944Y-101426944D03*
X202137944Y-104821056D03*
X203835000Y-100724000D03*
D15*
X203835000Y-103124000D03*
D14*
X205532056Y-101426944D03*
X201435000Y-103124000D03*
X203835000Y-105524000D03*
X205532056Y-104821056D03*
D12*
X204470000Y-94010000D03*
D13*
X204470000Y-91470000D03*
X204470000Y-88930000D03*
X204470000Y-86390000D03*
D12*
X127361535Y-93449393D03*
D13*
X129901535Y-93449393D03*
X132441535Y-93449393D03*
X134981535Y-93449393D03*
X137521535Y-93449393D03*
X140061535Y-93449393D03*
X142601535Y-93449393D03*
X145141535Y-93449393D03*
X147681535Y-93449393D03*
X150221535Y-93449393D03*
X152761535Y-93449393D03*
X155301535Y-93449393D03*
X157841535Y-93449393D03*
X160381535Y-93449393D03*
X162921535Y-93449393D03*
X162921535Y-75669393D03*
X160381535Y-75669393D03*
X157841535Y-75669393D03*
X155301535Y-75669393D03*
X152761535Y-75669393D03*
X150221535Y-75669393D03*
X147681535Y-75669393D03*
X145141535Y-75669393D03*
X142601535Y-75669393D03*
X140061535Y-75669393D03*
X137521535Y-75669393D03*
X134981535Y-75669393D03*
X132441535Y-75669393D03*
X129901535Y-75669393D03*
D12*
X127361535Y-75669393D03*
D14*
X205532056Y-79421056D03*
X203835000Y-80124000D03*
X205532056Y-76026944D03*
D15*
X203835000Y-77724000D03*
D14*
X203835000Y-75324000D03*
X206235000Y-77724000D03*
X202137944Y-79421056D03*
X201435000Y-77724000D03*
X202137944Y-76026944D03*
X114808000Y-100724000D03*
X114808000Y-105524000D03*
X112408000Y-103124000D03*
D15*
X114808000Y-103124000D03*
D14*
X116505056Y-104821056D03*
X113110944Y-104821056D03*
X116505056Y-101426944D03*
X113110944Y-101426944D03*
X117208000Y-103124000D03*
D18*
X160355000Y-100371000D03*
X160355000Y-101021000D03*
X160355000Y-101671000D03*
X160355000Y-102321000D03*
X158415000Y-102321000D03*
X158415000Y-101671000D03*
X158415000Y-101021000D03*
X158415000Y-100371000D03*
D19*
X166137500Y-99441000D03*
X164062500Y-99441000D03*
D20*
X138938000Y-99916000D03*
X138938000Y-101991000D03*
D21*
X185595000Y-102108000D03*
D22*
X187095000Y-102108000D03*
X188595000Y-102108000D03*
X190095000Y-102108000D03*
X191595000Y-102108000D03*
D16*
X147552500Y-102616000D03*
X149627500Y-102616000D03*
X164062500Y-102616000D03*
X166137500Y-102616000D03*
M02*
