M48
; DRILL file {KiCad (6.0.9)} date Mon Feb 20 10:38:50 2023
; FORMAT={-:-/ absolute / metric / decimal}
; #@! TF.CreationDate,2023-02-20T10:38:50+01:00
; #@! TF.GenerationSoftware,Kicad,Pcbnew,(6.0.9)
; #@! TF.FileFunction,Plated,1,4,PTH
FMAT,2
METRIC
; #@! TA.AperFunction,Plated,PTH,ViaDrill
T1C0.400
; #@! TA.AperFunction,Plated,PTH,ComponentDrill
T2C0.500
; #@! TA.AperFunction,Plated,PTH,ComponentDrill
T3C0.730
; #@! TA.AperFunction,Plated,PTH,ComponentDrill
T4C1.000
; #@! TA.AperFunction,Plated,PTH,ComponentDrill
T5C3.200
%
G90
G05
T1
X123.063Y-97.663
X125.603Y-97.282
X155.448Y-99.06
X156.972Y-99.568
X161.798Y-103.378
X165.1Y-104.521
T2
X112.408Y-77.724
X112.408Y-103.124
X113.111Y-76.027
X113.111Y-79.421
X113.111Y-101.427
X113.111Y-104.821
X114.808Y-75.324
X114.808Y-80.124
X114.808Y-100.724
X114.808Y-105.524
X116.505Y-76.027
X116.505Y-79.421
X116.505Y-101.427
X116.505Y-104.821
X117.208Y-77.724
X117.208Y-103.124
X201.435Y-77.724
X201.435Y-103.124
X202.138Y-76.027
X202.138Y-79.421
X202.138Y-101.427
X202.138Y-104.821
X203.835Y-75.324
X203.835Y-80.124
X203.835Y-100.724
X203.835Y-105.524
X205.532Y-76.027
X205.532Y-79.421
X205.532Y-101.427
X205.532Y-104.821
X206.235Y-77.724
X206.235Y-103.124
T3
X185.595Y-102.108
X187.095Y-102.108
X188.595Y-102.108
X190.095Y-102.108
X191.595Y-102.108
T4
X127.362Y-75.669
X127.362Y-93.449
X129.902Y-75.669
X129.902Y-93.449
X132.442Y-75.669
X132.442Y-93.449
X134.982Y-75.669
X134.982Y-93.449
X137.522Y-75.669
X137.522Y-93.449
X140.062Y-75.669
X140.062Y-93.449
X142.602Y-75.669
X142.602Y-93.449
X145.142Y-75.669
X145.142Y-93.449
X147.682Y-75.669
X147.682Y-93.449
X150.222Y-75.669
X150.222Y-93.449
X152.762Y-75.669
X152.762Y-93.449
X155.302Y-75.669
X155.302Y-93.449
X157.842Y-75.669
X157.842Y-93.449
X160.382Y-75.669
X160.382Y-93.449
X162.922Y-75.669
X162.922Y-93.449
X171.46Y-102.235
X174.0Y-102.235
X176.54Y-102.235
X179.08Y-102.235
X204.47Y-86.39
X204.47Y-88.93
X204.47Y-91.47
X204.47Y-94.01
T5
X114.808Y-77.724
X114.808Y-103.124
X203.835Y-77.724
X203.835Y-103.124
T0
M30
