G04 #@! TF.GenerationSoftware,KiCad,Pcbnew,(6.0.9)*
G04 #@! TF.CreationDate,2023-02-20T10:38:45+01:00*
G04 #@! TF.ProjectId,sensorboard,73656e73-6f72-4626-9f61-72642e6b6963,rev?*
G04 #@! TF.SameCoordinates,Original*
G04 #@! TF.FileFunction,Copper,L3,Inr*
G04 #@! TF.FilePolarity,Positive*
%FSLAX46Y46*%
G04 Gerber Fmt 4.6, Leading zero omitted, Abs format (unit mm)*
G04 Created by KiCad (PCBNEW (6.0.9)) date 2023-02-20 10:38:45*
%MOMM*%
%LPD*%
G01*
G04 APERTURE LIST*
G04 #@! TA.AperFunction,ComponentPad*
%ADD10R,1.700000X1.700000*%
G04 #@! TD*
G04 #@! TA.AperFunction,ComponentPad*
%ADD11O,1.700000X1.700000*%
G04 #@! TD*
G04 #@! TA.AperFunction,ComponentPad*
%ADD12C,0.800000*%
G04 #@! TD*
G04 #@! TA.AperFunction,ComponentPad*
%ADD13C,6.400000*%
G04 #@! TD*
G04 #@! TA.AperFunction,ComponentPad*
%ADD14R,1.238000X1.238000*%
G04 #@! TD*
G04 #@! TA.AperFunction,ComponentPad*
%ADD15C,1.238000*%
G04 #@! TD*
G04 #@! TA.AperFunction,ViaPad*
%ADD16C,0.800000*%
G04 #@! TD*
G04 APERTURE END LIST*
D10*
X171460000Y-102235000D03*
D11*
X174000000Y-102235000D03*
X176540000Y-102235000D03*
X179080000Y-102235000D03*
D12*
X112408000Y-77724000D03*
X114808000Y-75324000D03*
X113110944Y-76026944D03*
X117208000Y-77724000D03*
X116505056Y-76026944D03*
X113110944Y-79421056D03*
X116505056Y-79421056D03*
X114808000Y-80124000D03*
D13*
X114808000Y-77724000D03*
D12*
X206235000Y-103124000D03*
X202137944Y-101426944D03*
X202137944Y-104821056D03*
X203835000Y-100724000D03*
D13*
X203835000Y-103124000D03*
D12*
X205532056Y-101426944D03*
X201435000Y-103124000D03*
X203835000Y-105524000D03*
X205532056Y-104821056D03*
D10*
X204470000Y-94010000D03*
D11*
X204470000Y-91470000D03*
X204470000Y-88930000D03*
X204470000Y-86390000D03*
D10*
X127361535Y-93449393D03*
D11*
X129901535Y-93449393D03*
X132441535Y-93449393D03*
X134981535Y-93449393D03*
X137521535Y-93449393D03*
X140061535Y-93449393D03*
X142601535Y-93449393D03*
X145141535Y-93449393D03*
X147681535Y-93449393D03*
X150221535Y-93449393D03*
X152761535Y-93449393D03*
X155301535Y-93449393D03*
X157841535Y-93449393D03*
X160381535Y-93449393D03*
X162921535Y-93449393D03*
X162921535Y-75669393D03*
X160381535Y-75669393D03*
X157841535Y-75669393D03*
X155301535Y-75669393D03*
X152761535Y-75669393D03*
X150221535Y-75669393D03*
X147681535Y-75669393D03*
X145141535Y-75669393D03*
X142601535Y-75669393D03*
X140061535Y-75669393D03*
X137521535Y-75669393D03*
X134981535Y-75669393D03*
X132441535Y-75669393D03*
X129901535Y-75669393D03*
D10*
X127361535Y-75669393D03*
D12*
X205532056Y-79421056D03*
X203835000Y-80124000D03*
X205532056Y-76026944D03*
D13*
X203835000Y-77724000D03*
D12*
X203835000Y-75324000D03*
X206235000Y-77724000D03*
X202137944Y-79421056D03*
X201435000Y-77724000D03*
X202137944Y-76026944D03*
X114808000Y-100724000D03*
X114808000Y-105524000D03*
X112408000Y-103124000D03*
D13*
X114808000Y-103124000D03*
D12*
X116505056Y-104821056D03*
X113110944Y-104821056D03*
X116505056Y-101426944D03*
X113110944Y-101426944D03*
X117208000Y-103124000D03*
D14*
X185595000Y-102108000D03*
D15*
X187095000Y-102108000D03*
X188595000Y-102108000D03*
X190095000Y-102108000D03*
X191595000Y-102108000D03*
D16*
X165100000Y-104521000D03*
X125603000Y-97282000D03*
X156972000Y-99568000D03*
X123063000Y-97663000D03*
X161798000Y-103378000D03*
X155448000Y-99060000D03*
G04 #@! TA.AperFunction,Conductor*
G36*
X208348621Y-72918502D02*
G01*
X208395114Y-72972158D01*
X208406500Y-73024500D01*
X208406500Y-107315500D01*
X208386498Y-107383621D01*
X208332842Y-107430114D01*
X208280500Y-107441500D01*
X109854500Y-107441500D01*
X109786379Y-107421498D01*
X109739886Y-107367842D01*
X109728500Y-107315500D01*
X109728500Y-103124000D01*
X111094411Y-103124000D01*
X111114754Y-103512176D01*
X111115267Y-103515416D01*
X111115268Y-103515424D01*
X111127497Y-103592631D01*
X111175562Y-103896099D01*
X111276167Y-104271562D01*
X111277352Y-104274650D01*
X111277353Y-104274652D01*
X111281901Y-104286500D01*
X111415468Y-104634453D01*
X111591938Y-104980794D01*
X111593734Y-104983560D01*
X111593736Y-104983563D01*
X111645227Y-105062852D01*
X111803643Y-105306793D01*
X112048266Y-105608876D01*
X112323124Y-105883734D01*
X112625207Y-106128357D01*
X112951205Y-106340062D01*
X112954139Y-106341557D01*
X112954146Y-106341561D01*
X113294607Y-106515034D01*
X113297547Y-106516532D01*
X113660438Y-106655833D01*
X114035901Y-106756438D01*
X114239793Y-106788732D01*
X114416576Y-106816732D01*
X114416584Y-106816733D01*
X114419824Y-106817246D01*
X114808000Y-106837589D01*
X115196176Y-106817246D01*
X115199416Y-106816733D01*
X115199424Y-106816732D01*
X115376207Y-106788732D01*
X115580099Y-106756438D01*
X115955562Y-106655833D01*
X116318453Y-106516532D01*
X116321393Y-106515034D01*
X116661854Y-106341561D01*
X116661861Y-106341557D01*
X116664795Y-106340062D01*
X116990793Y-106128357D01*
X117292876Y-105883734D01*
X117567734Y-105608876D01*
X117812357Y-105306793D01*
X117970773Y-105062852D01*
X118022264Y-104983563D01*
X118022266Y-104983560D01*
X118024062Y-104980794D01*
X118200532Y-104634453D01*
X118244083Y-104521000D01*
X164186496Y-104521000D01*
X164206458Y-104710928D01*
X164265473Y-104892556D01*
X164360960Y-105057944D01*
X164488747Y-105199866D01*
X164643248Y-105312118D01*
X164649276Y-105314802D01*
X164649278Y-105314803D01*
X164811681Y-105387109D01*
X164817712Y-105389794D01*
X164911113Y-105409647D01*
X164998056Y-105428128D01*
X164998061Y-105428128D01*
X165004513Y-105429500D01*
X165195487Y-105429500D01*
X165201939Y-105428128D01*
X165201944Y-105428128D01*
X165288887Y-105409647D01*
X165382288Y-105389794D01*
X165388319Y-105387109D01*
X165550722Y-105314803D01*
X165550724Y-105314802D01*
X165556752Y-105312118D01*
X165711253Y-105199866D01*
X165839040Y-105057944D01*
X165934527Y-104892556D01*
X165993542Y-104710928D01*
X166013504Y-104521000D01*
X165993542Y-104331072D01*
X165934527Y-104149444D01*
X165839040Y-103984056D01*
X165711253Y-103842134D01*
X165583831Y-103749556D01*
X165562094Y-103733763D01*
X165562093Y-103733762D01*
X165556752Y-103729882D01*
X165550724Y-103727198D01*
X165550722Y-103727197D01*
X165388319Y-103654891D01*
X165388318Y-103654891D01*
X165382288Y-103652206D01*
X165288887Y-103632353D01*
X165201944Y-103613872D01*
X165201939Y-103613872D01*
X165195487Y-103612500D01*
X165004513Y-103612500D01*
X164998061Y-103613872D01*
X164998056Y-103613872D01*
X164911113Y-103632353D01*
X164817712Y-103652206D01*
X164811682Y-103654891D01*
X164811681Y-103654891D01*
X164649278Y-103727197D01*
X164649276Y-103727198D01*
X164643248Y-103729882D01*
X164637907Y-103733762D01*
X164637906Y-103733763D01*
X164616169Y-103749556D01*
X164488747Y-103842134D01*
X164360960Y-103984056D01*
X164265473Y-104149444D01*
X164206458Y-104331072D01*
X164186496Y-104521000D01*
X118244083Y-104521000D01*
X118334099Y-104286500D01*
X118338647Y-104274652D01*
X118338648Y-104274650D01*
X118339833Y-104271562D01*
X118440438Y-103896099D01*
X118488503Y-103592631D01*
X118500732Y-103515424D01*
X118500733Y-103515416D01*
X118501246Y-103512176D01*
X118508278Y-103378000D01*
X160884496Y-103378000D01*
X160885186Y-103384565D01*
X160901347Y-103538324D01*
X160904458Y-103567928D01*
X160963473Y-103749556D01*
X161058960Y-103914944D01*
X161186747Y-104056866D01*
X161285843Y-104128864D01*
X161322820Y-104155729D01*
X161341248Y-104169118D01*
X161347276Y-104171802D01*
X161347278Y-104171803D01*
X161509681Y-104244109D01*
X161515712Y-104246794D01*
X161609112Y-104266647D01*
X161696056Y-104285128D01*
X161696061Y-104285128D01*
X161702513Y-104286500D01*
X161893487Y-104286500D01*
X161899939Y-104285128D01*
X161899944Y-104285128D01*
X161986887Y-104266647D01*
X162080288Y-104246794D01*
X162086319Y-104244109D01*
X162248722Y-104171803D01*
X162248724Y-104171802D01*
X162254752Y-104169118D01*
X162273181Y-104155729D01*
X162310157Y-104128864D01*
X162409253Y-104056866D01*
X162537040Y-103914944D01*
X162632527Y-103749556D01*
X162691542Y-103567928D01*
X162694654Y-103538324D01*
X162710814Y-103384565D01*
X162711504Y-103378000D01*
X162700419Y-103272529D01*
X162692232Y-103194635D01*
X162692232Y-103194633D01*
X162691542Y-103188072D01*
X162672566Y-103129669D01*
X170102001Y-103129669D01*
X170102371Y-103136490D01*
X170107895Y-103187352D01*
X170111521Y-103202604D01*
X170156676Y-103323054D01*
X170165214Y-103338649D01*
X170241715Y-103440724D01*
X170254276Y-103453285D01*
X170356351Y-103529786D01*
X170371946Y-103538324D01*
X170492394Y-103583478D01*
X170507649Y-103587105D01*
X170558514Y-103592631D01*
X170565328Y-103593000D01*
X171187885Y-103593000D01*
X171203124Y-103588525D01*
X171204329Y-103587135D01*
X171206000Y-103579452D01*
X171206000Y-103574884D01*
X171714000Y-103574884D01*
X171718475Y-103590123D01*
X171719865Y-103591328D01*
X171727548Y-103592999D01*
X172354669Y-103592999D01*
X172361490Y-103592629D01*
X172412352Y-103587105D01*
X172427604Y-103583479D01*
X172548054Y-103538324D01*
X172563649Y-103529786D01*
X172665724Y-103453285D01*
X172678285Y-103440724D01*
X172754786Y-103338649D01*
X172763324Y-103323054D01*
X172804225Y-103213952D01*
X172846867Y-103157188D01*
X172913428Y-103132488D01*
X172982777Y-103147696D01*
X173017444Y-103175684D01*
X173042865Y-103205031D01*
X173042869Y-103205035D01*
X173046250Y-103208938D01*
X173218126Y-103351632D01*
X173411000Y-103464338D01*
X173619692Y-103544030D01*
X173624760Y-103545061D01*
X173624763Y-103545062D01*
X173732017Y-103566883D01*
X173838597Y-103588567D01*
X173843772Y-103588757D01*
X173843774Y-103588757D01*
X174056673Y-103596564D01*
X174056677Y-103596564D01*
X174061837Y-103596753D01*
X174066957Y-103596097D01*
X174066959Y-103596097D01*
X174278288Y-103569025D01*
X174278289Y-103569025D01*
X174283416Y-103568368D01*
X174306758Y-103561365D01*
X174492429Y-103505661D01*
X174492434Y-103505659D01*
X174497384Y-103504174D01*
X174697994Y-103405896D01*
X174879860Y-103276173D01*
X174920676Y-103235500D01*
X174984168Y-103172229D01*
X175038096Y-103118489D01*
X175048084Y-103104590D01*
X175168453Y-102937077D01*
X175169776Y-102938028D01*
X175216645Y-102894857D01*
X175286580Y-102882625D01*
X175352026Y-102910144D01*
X175379875Y-102941994D01*
X175439987Y-103040088D01*
X175586250Y-103208938D01*
X175758126Y-103351632D01*
X175951000Y-103464338D01*
X176159692Y-103544030D01*
X176164760Y-103545061D01*
X176164763Y-103545062D01*
X176272017Y-103566883D01*
X176378597Y-103588567D01*
X176383772Y-103588757D01*
X176383774Y-103588757D01*
X176596673Y-103596564D01*
X176596677Y-103596564D01*
X176601837Y-103596753D01*
X176606957Y-103596097D01*
X176606959Y-103596097D01*
X176818288Y-103569025D01*
X176818289Y-103569025D01*
X176823416Y-103568368D01*
X176846758Y-103561365D01*
X177032429Y-103505661D01*
X177032434Y-103505659D01*
X177037384Y-103504174D01*
X177237994Y-103405896D01*
X177419860Y-103276173D01*
X177460676Y-103235500D01*
X177524168Y-103172229D01*
X177578096Y-103118489D01*
X177588084Y-103104590D01*
X177708453Y-102937077D01*
X177709776Y-102938028D01*
X177756645Y-102894857D01*
X177826580Y-102882625D01*
X177892026Y-102910144D01*
X177919875Y-102941994D01*
X177979987Y-103040088D01*
X178126250Y-103208938D01*
X178298126Y-103351632D01*
X178491000Y-103464338D01*
X178699692Y-103544030D01*
X178704760Y-103545061D01*
X178704763Y-103545062D01*
X178812017Y-103566883D01*
X178918597Y-103588567D01*
X178923772Y-103588757D01*
X178923774Y-103588757D01*
X179136673Y-103596564D01*
X179136677Y-103596564D01*
X179141837Y-103596753D01*
X179146957Y-103596097D01*
X179146959Y-103596097D01*
X179358288Y-103569025D01*
X179358289Y-103569025D01*
X179363416Y-103568368D01*
X179386758Y-103561365D01*
X179572429Y-103505661D01*
X179572434Y-103505659D01*
X179577384Y-103504174D01*
X179777994Y-103405896D01*
X179959860Y-103276173D01*
X180000676Y-103235500D01*
X180064168Y-103172229D01*
X180118096Y-103118489D01*
X180128084Y-103104590D01*
X180245435Y-102941277D01*
X180248453Y-102937077D01*
X180269320Y-102894857D01*
X180328490Y-102775134D01*
X184467500Y-102775134D01*
X184474255Y-102837316D01*
X184525385Y-102973705D01*
X184612739Y-103090261D01*
X184729295Y-103177615D01*
X184865684Y-103228745D01*
X184927866Y-103235500D01*
X186262134Y-103235500D01*
X186324316Y-103228745D01*
X186460705Y-103177615D01*
X186499812Y-103148306D01*
X186566319Y-103123458D01*
X186625115Y-103133364D01*
X186728112Y-103177615D01*
X186745091Y-103184910D01*
X186947201Y-103230643D01*
X186952972Y-103230870D01*
X186952974Y-103230870D01*
X187022210Y-103233590D01*
X187154262Y-103238778D01*
X187242592Y-103225971D01*
X187353616Y-103209874D01*
X187353621Y-103209873D01*
X187359337Y-103209044D01*
X187364809Y-103207186D01*
X187364811Y-103207186D01*
X187550096Y-103144290D01*
X187550098Y-103144289D01*
X187555560Y-103142435D01*
X187736359Y-103041183D01*
X187740798Y-103037491D01*
X187740804Y-103037487D01*
X187764548Y-103017739D01*
X187829712Y-102989557D01*
X187899767Y-103001080D01*
X187915116Y-103009844D01*
X188054699Y-103103111D01*
X188060002Y-103105389D01*
X188060005Y-103105391D01*
X188158473Y-103147696D01*
X188245091Y-103184910D01*
X188447201Y-103230643D01*
X188452972Y-103230870D01*
X188452974Y-103230870D01*
X188522210Y-103233590D01*
X188654262Y-103238778D01*
X188742592Y-103225971D01*
X188853616Y-103209874D01*
X188853621Y-103209873D01*
X188859337Y-103209044D01*
X188864809Y-103207186D01*
X188864811Y-103207186D01*
X189050096Y-103144290D01*
X189050098Y-103144289D01*
X189055560Y-103142435D01*
X189236359Y-103041183D01*
X189240798Y-103037491D01*
X189240804Y-103037487D01*
X189264548Y-103017739D01*
X189329712Y-102989557D01*
X189399767Y-103001080D01*
X189415116Y-103009844D01*
X189554699Y-103103111D01*
X189560002Y-103105389D01*
X189560005Y-103105391D01*
X189658473Y-103147696D01*
X189745091Y-103184910D01*
X189947201Y-103230643D01*
X189952972Y-103230870D01*
X189952974Y-103230870D01*
X190022210Y-103233590D01*
X190154262Y-103238778D01*
X190242592Y-103225971D01*
X190353616Y-103209874D01*
X190353621Y-103209873D01*
X190359337Y-103209044D01*
X190364809Y-103207186D01*
X190364811Y-103207186D01*
X190550096Y-103144290D01*
X190550098Y-103144289D01*
X190555560Y-103142435D01*
X190736359Y-103041183D01*
X190740798Y-103037491D01*
X190740804Y-103037487D01*
X190764548Y-103017739D01*
X190829712Y-102989557D01*
X190899767Y-103001080D01*
X190915116Y-103009844D01*
X191054699Y-103103111D01*
X191060002Y-103105389D01*
X191060005Y-103105391D01*
X191158473Y-103147696D01*
X191245091Y-103184910D01*
X191447201Y-103230643D01*
X191452972Y-103230870D01*
X191452974Y-103230870D01*
X191522210Y-103233590D01*
X191654262Y-103238778D01*
X191742592Y-103225971D01*
X191853616Y-103209874D01*
X191853621Y-103209873D01*
X191859337Y-103209044D01*
X191864809Y-103207186D01*
X191864811Y-103207186D01*
X192050096Y-103144290D01*
X192050098Y-103144289D01*
X192055560Y-103142435D01*
X192088478Y-103124000D01*
X200121411Y-103124000D01*
X200141754Y-103512176D01*
X200142267Y-103515416D01*
X200142268Y-103515424D01*
X200154497Y-103592631D01*
X200202562Y-103896099D01*
X200303167Y-104271562D01*
X200304352Y-104274650D01*
X200304353Y-104274652D01*
X200308901Y-104286500D01*
X200442468Y-104634453D01*
X200618938Y-104980794D01*
X200620734Y-104983560D01*
X200620736Y-104983563D01*
X200672227Y-105062852D01*
X200830643Y-105306793D01*
X201075266Y-105608876D01*
X201350124Y-105883734D01*
X201652207Y-106128357D01*
X201978205Y-106340062D01*
X201981139Y-106341557D01*
X201981146Y-106341561D01*
X202321607Y-106515034D01*
X202324547Y-106516532D01*
X202687438Y-106655833D01*
X203062901Y-106756438D01*
X203266793Y-106788732D01*
X203443576Y-106816732D01*
X203443584Y-106816733D01*
X203446824Y-106817246D01*
X203835000Y-106837589D01*
X204223176Y-106817246D01*
X204226416Y-106816733D01*
X204226424Y-106816732D01*
X204403207Y-106788732D01*
X204607099Y-106756438D01*
X204982562Y-106655833D01*
X205345453Y-106516532D01*
X205348393Y-106515034D01*
X205688854Y-106341561D01*
X205688861Y-106341557D01*
X205691795Y-106340062D01*
X206017793Y-106128357D01*
X206319876Y-105883734D01*
X206594734Y-105608876D01*
X206839357Y-105306793D01*
X206997773Y-105062852D01*
X207049264Y-104983563D01*
X207049266Y-104983560D01*
X207051062Y-104980794D01*
X207227532Y-104634453D01*
X207361099Y-104286500D01*
X207365647Y-104274652D01*
X207365648Y-104274650D01*
X207366833Y-104271562D01*
X207467438Y-103896099D01*
X207515503Y-103592631D01*
X207527732Y-103515424D01*
X207527733Y-103515416D01*
X207528246Y-103512176D01*
X207548589Y-103124000D01*
X207528246Y-102735824D01*
X207526165Y-102722680D01*
X207492353Y-102509206D01*
X207467438Y-102351901D01*
X207366833Y-101976438D01*
X207361631Y-101962885D01*
X207228716Y-101616632D01*
X207227532Y-101613547D01*
X207175655Y-101511732D01*
X207052561Y-101270147D01*
X207052557Y-101270140D01*
X207051062Y-101267206D01*
X207044853Y-101257644D01*
X206841152Y-100943971D01*
X206841152Y-100943970D01*
X206839357Y-100941207D01*
X206594734Y-100639124D01*
X206319876Y-100364266D01*
X206017793Y-100119643D01*
X205782940Y-99967128D01*
X205694564Y-99909736D01*
X205694561Y-99909734D01*
X205691795Y-99907938D01*
X205688861Y-99906443D01*
X205688854Y-99906439D01*
X205348393Y-99732966D01*
X205345453Y-99731468D01*
X205124453Y-99646634D01*
X204985652Y-99593353D01*
X204985650Y-99593352D01*
X204982562Y-99592167D01*
X204607099Y-99491562D01*
X204403207Y-99459268D01*
X204226424Y-99431268D01*
X204226416Y-99431267D01*
X204223176Y-99430754D01*
X203835000Y-99410411D01*
X203446824Y-99430754D01*
X203443584Y-99431267D01*
X203443576Y-99431268D01*
X203266793Y-99459268D01*
X203062901Y-99491562D01*
X202687438Y-99592167D01*
X202684350Y-99593352D01*
X202684348Y-99593353D01*
X202545547Y-99646634D01*
X202324547Y-99731468D01*
X202321607Y-99732966D01*
X201981147Y-99906439D01*
X201981140Y-99906443D01*
X201978206Y-99907938D01*
X201975440Y-99909734D01*
X201975437Y-99909736D01*
X201887061Y-99967128D01*
X201652207Y-100119643D01*
X201350124Y-100364266D01*
X201075266Y-100639124D01*
X200830643Y-100941207D01*
X200828848Y-100943970D01*
X200828848Y-100943971D01*
X200625148Y-101257644D01*
X200618938Y-101267206D01*
X200617443Y-101270140D01*
X200617439Y-101270147D01*
X200494345Y-101511732D01*
X200442468Y-101613547D01*
X200441284Y-101616632D01*
X200308370Y-101962885D01*
X200303167Y-101976438D01*
X200202562Y-102351901D01*
X200177647Y-102509206D01*
X200143836Y-102722680D01*
X200141754Y-102735824D01*
X200121411Y-103124000D01*
X192088478Y-103124000D01*
X192236359Y-103041183D01*
X192395678Y-102908678D01*
X192528183Y-102749359D01*
X192533921Y-102739114D01*
X192587949Y-102642639D01*
X192629435Y-102568560D01*
X192663062Y-102469500D01*
X192694186Y-102377811D01*
X192694186Y-102377809D01*
X192696044Y-102372337D01*
X192696873Y-102366621D01*
X192696874Y-102366616D01*
X192716443Y-102231646D01*
X192725778Y-102167262D01*
X192727330Y-102108000D01*
X192708369Y-101901649D01*
X192652121Y-101702209D01*
X192599543Y-101595590D01*
X192563025Y-101521540D01*
X192560470Y-101516359D01*
X192479269Y-101407617D01*
X192439938Y-101354947D01*
X192439937Y-101354946D01*
X192436485Y-101350323D01*
X192319621Y-101242295D01*
X192288559Y-101213581D01*
X192288556Y-101213579D01*
X192284319Y-101209662D01*
X192238145Y-101180529D01*
X192113951Y-101102168D01*
X192113946Y-101102166D01*
X192109067Y-101099087D01*
X191949016Y-101035233D01*
X191921968Y-101024442D01*
X191916599Y-101022300D01*
X191713361Y-100981873D01*
X191707587Y-100981797D01*
X191707583Y-100981797D01*
X191602399Y-100980421D01*
X191506158Y-100979161D01*
X191500461Y-100980140D01*
X191500460Y-100980140D01*
X191307628Y-101013274D01*
X191307627Y-101013274D01*
X191301931Y-101014253D01*
X191107519Y-101085976D01*
X191102558Y-101088928D01*
X191102557Y-101088928D01*
X191005038Y-101146946D01*
X190929433Y-101191926D01*
X190925089Y-101195735D01*
X190920417Y-101199130D01*
X190919169Y-101197412D01*
X190863259Y-101223334D01*
X190792929Y-101213632D01*
X190777379Y-101205283D01*
X190613951Y-101102168D01*
X190613946Y-101102166D01*
X190609067Y-101099087D01*
X190449016Y-101035233D01*
X190421968Y-101024442D01*
X190416599Y-101022300D01*
X190213361Y-100981873D01*
X190207587Y-100981797D01*
X190207583Y-100981797D01*
X190102399Y-100980421D01*
X190006158Y-100979161D01*
X190000461Y-100980140D01*
X190000460Y-100980140D01*
X189807628Y-101013274D01*
X189807627Y-101013274D01*
X189801931Y-101014253D01*
X189607519Y-101085976D01*
X189602558Y-101088928D01*
X189602557Y-101088928D01*
X189505038Y-101146946D01*
X189429433Y-101191926D01*
X189425089Y-101195735D01*
X189420417Y-101199130D01*
X189419169Y-101197412D01*
X189363259Y-101223334D01*
X189292929Y-101213632D01*
X189277379Y-101205283D01*
X189113951Y-101102168D01*
X189113946Y-101102166D01*
X189109067Y-101099087D01*
X188949016Y-101035233D01*
X188921968Y-101024442D01*
X188916599Y-101022300D01*
X188713361Y-100981873D01*
X188707587Y-100981797D01*
X188707583Y-100981797D01*
X188602399Y-100980421D01*
X188506158Y-100979161D01*
X188500461Y-100980140D01*
X188500460Y-100980140D01*
X188307628Y-101013274D01*
X188307627Y-101013274D01*
X188301931Y-101014253D01*
X188107519Y-101085976D01*
X188102558Y-101088928D01*
X188102557Y-101088928D01*
X188005038Y-101146946D01*
X187929433Y-101191926D01*
X187925089Y-101195735D01*
X187920417Y-101199130D01*
X187919169Y-101197412D01*
X187863259Y-101223334D01*
X187792929Y-101213632D01*
X187777379Y-101205283D01*
X187613951Y-101102168D01*
X187613946Y-101102166D01*
X187609067Y-101099087D01*
X187449016Y-101035233D01*
X187421968Y-101024442D01*
X187416599Y-101022300D01*
X187213361Y-100981873D01*
X187207587Y-100981797D01*
X187207583Y-100981797D01*
X187102399Y-100980421D01*
X187006158Y-100979161D01*
X187000461Y-100980140D01*
X187000460Y-100980140D01*
X186807628Y-101013274D01*
X186807627Y-101013274D01*
X186801931Y-101014253D01*
X186626108Y-101079118D01*
X186616006Y-101082845D01*
X186545173Y-101087657D01*
X186496830Y-101065459D01*
X186467892Y-101043771D01*
X186467890Y-101043770D01*
X186460705Y-101038385D01*
X186324316Y-100987255D01*
X186262134Y-100980500D01*
X184927866Y-100980500D01*
X184865684Y-100987255D01*
X184729295Y-101038385D01*
X184612739Y-101125739D01*
X184525385Y-101242295D01*
X184474255Y-101378684D01*
X184467500Y-101440866D01*
X184467500Y-102775134D01*
X180328490Y-102775134D01*
X180345136Y-102741453D01*
X180345137Y-102741451D01*
X180347430Y-102736811D01*
X180412370Y-102523069D01*
X180441529Y-102301590D01*
X180443156Y-102235000D01*
X180424852Y-102012361D01*
X180370431Y-101795702D01*
X180281354Y-101590840D01*
X180186542Y-101444283D01*
X180162822Y-101407617D01*
X180162820Y-101407614D01*
X180160014Y-101403277D01*
X180009670Y-101238051D01*
X180005619Y-101234852D01*
X180005615Y-101234848D01*
X179838414Y-101102800D01*
X179838410Y-101102798D01*
X179834359Y-101099598D01*
X179638789Y-100991638D01*
X179633920Y-100989914D01*
X179633916Y-100989912D01*
X179433087Y-100918795D01*
X179433083Y-100918794D01*
X179428212Y-100917069D01*
X179423119Y-100916162D01*
X179423116Y-100916161D01*
X179213373Y-100878800D01*
X179213367Y-100878799D01*
X179208284Y-100877894D01*
X179134452Y-100876992D01*
X178990081Y-100875228D01*
X178990079Y-100875228D01*
X178984911Y-100875165D01*
X178764091Y-100908955D01*
X178551756Y-100978357D01*
X178353607Y-101081507D01*
X178349474Y-101084610D01*
X178349471Y-101084612D01*
X178187025Y-101206580D01*
X178174965Y-101215635D01*
X178020629Y-101377138D01*
X177913201Y-101534621D01*
X177858293Y-101579621D01*
X177787768Y-101587792D01*
X177724021Y-101556538D01*
X177703324Y-101532054D01*
X177622822Y-101407617D01*
X177622820Y-101407614D01*
X177620014Y-101403277D01*
X177469670Y-101238051D01*
X177465619Y-101234852D01*
X177465615Y-101234848D01*
X177298414Y-101102800D01*
X177298410Y-101102798D01*
X177294359Y-101099598D01*
X177098789Y-100991638D01*
X177093920Y-100989914D01*
X177093916Y-100989912D01*
X176893087Y-100918795D01*
X176893083Y-100918794D01*
X176888212Y-100917069D01*
X176883119Y-100916162D01*
X176883116Y-100916161D01*
X176673373Y-100878800D01*
X176673367Y-100878799D01*
X176668284Y-100877894D01*
X176594452Y-100876992D01*
X176450081Y-100875228D01*
X176450079Y-100875228D01*
X176444911Y-100875165D01*
X176224091Y-100908955D01*
X176011756Y-100978357D01*
X175813607Y-101081507D01*
X175809474Y-101084610D01*
X175809471Y-101084612D01*
X175647025Y-101206580D01*
X175634965Y-101215635D01*
X175480629Y-101377138D01*
X175373201Y-101534621D01*
X175318293Y-101579621D01*
X175247768Y-101587792D01*
X175184021Y-101556538D01*
X175163324Y-101532054D01*
X175082822Y-101407617D01*
X175082820Y-101407614D01*
X175080014Y-101403277D01*
X174929670Y-101238051D01*
X174925619Y-101234852D01*
X174925615Y-101234848D01*
X174758414Y-101102800D01*
X174758410Y-101102798D01*
X174754359Y-101099598D01*
X174558789Y-100991638D01*
X174553920Y-100989914D01*
X174553916Y-100989912D01*
X174353087Y-100918795D01*
X174353083Y-100918794D01*
X174348212Y-100917069D01*
X174343119Y-100916162D01*
X174343116Y-100916161D01*
X174133373Y-100878800D01*
X174133367Y-100878799D01*
X174128284Y-100877894D01*
X174054452Y-100876992D01*
X173910081Y-100875228D01*
X173910079Y-100875228D01*
X173904911Y-100875165D01*
X173684091Y-100908955D01*
X173471756Y-100978357D01*
X173273607Y-101081507D01*
X173269474Y-101084610D01*
X173269471Y-101084612D01*
X173107025Y-101206580D01*
X173094965Y-101215635D01*
X173091393Y-101219373D01*
X173013898Y-101300466D01*
X172952374Y-101335895D01*
X172881462Y-101332438D01*
X172823676Y-101291192D01*
X172804823Y-101257644D01*
X172763324Y-101146946D01*
X172754786Y-101131351D01*
X172678285Y-101029276D01*
X172665724Y-101016715D01*
X172563649Y-100940214D01*
X172548054Y-100931676D01*
X172427606Y-100886522D01*
X172412351Y-100882895D01*
X172361486Y-100877369D01*
X172354672Y-100877000D01*
X171732115Y-100877000D01*
X171716876Y-100881475D01*
X171715671Y-100882865D01*
X171714000Y-100890548D01*
X171714000Y-103574884D01*
X171206000Y-103574884D01*
X171206000Y-102507115D01*
X171201525Y-102491876D01*
X171200135Y-102490671D01*
X171192452Y-102489000D01*
X170120116Y-102489000D01*
X170104877Y-102493475D01*
X170103672Y-102494865D01*
X170102001Y-102502548D01*
X170102001Y-103129669D01*
X162672566Y-103129669D01*
X162632527Y-103006444D01*
X162537040Y-102841056D01*
X162449941Y-102744322D01*
X162413675Y-102704045D01*
X162413674Y-102704044D01*
X162409253Y-102699134D01*
X162254752Y-102586882D01*
X162248724Y-102584198D01*
X162248722Y-102584197D01*
X162086319Y-102511891D01*
X162086318Y-102511891D01*
X162080288Y-102509206D01*
X161985227Y-102489000D01*
X161899944Y-102470872D01*
X161899939Y-102470872D01*
X161893487Y-102469500D01*
X161702513Y-102469500D01*
X161696061Y-102470872D01*
X161696056Y-102470872D01*
X161610773Y-102489000D01*
X161515712Y-102509206D01*
X161509682Y-102511891D01*
X161509681Y-102511891D01*
X161347278Y-102584197D01*
X161347276Y-102584198D01*
X161341248Y-102586882D01*
X161186747Y-102699134D01*
X161182326Y-102704044D01*
X161182325Y-102704045D01*
X161146060Y-102744322D01*
X161058960Y-102841056D01*
X160963473Y-103006444D01*
X160904458Y-103188072D01*
X160903768Y-103194633D01*
X160903768Y-103194635D01*
X160895581Y-103272529D01*
X160884496Y-103378000D01*
X118508278Y-103378000D01*
X118521589Y-103124000D01*
X118501246Y-102735824D01*
X118499165Y-102722680D01*
X118465353Y-102509206D01*
X118440438Y-102351901D01*
X118339833Y-101976438D01*
X118334631Y-101962885D01*
X170102000Y-101962885D01*
X170106475Y-101978124D01*
X170107865Y-101979329D01*
X170115548Y-101981000D01*
X171187885Y-101981000D01*
X171203124Y-101976525D01*
X171204329Y-101975135D01*
X171206000Y-101967452D01*
X171206000Y-100895116D01*
X171201525Y-100879877D01*
X171200135Y-100878672D01*
X171192452Y-100877001D01*
X170565331Y-100877001D01*
X170558510Y-100877371D01*
X170507648Y-100882895D01*
X170492396Y-100886521D01*
X170371946Y-100931676D01*
X170356351Y-100940214D01*
X170254276Y-101016715D01*
X170241715Y-101029276D01*
X170165214Y-101131351D01*
X170156676Y-101146946D01*
X170111522Y-101267394D01*
X170107895Y-101282649D01*
X170102369Y-101333514D01*
X170102000Y-101340328D01*
X170102000Y-101962885D01*
X118334631Y-101962885D01*
X118201716Y-101616632D01*
X118200532Y-101613547D01*
X118148655Y-101511732D01*
X118025561Y-101270147D01*
X118025557Y-101270140D01*
X118024062Y-101267206D01*
X118017853Y-101257644D01*
X117814152Y-100943971D01*
X117814152Y-100943970D01*
X117812357Y-100941207D01*
X117567734Y-100639124D01*
X117292876Y-100364266D01*
X116990793Y-100119643D01*
X116755940Y-99967128D01*
X116667564Y-99909736D01*
X116667561Y-99909734D01*
X116664795Y-99907938D01*
X116661861Y-99906443D01*
X116661854Y-99906439D01*
X116321393Y-99732966D01*
X116318453Y-99731468D01*
X116097453Y-99646634D01*
X115958652Y-99593353D01*
X115958650Y-99593352D01*
X115955562Y-99592167D01*
X115580099Y-99491562D01*
X115376207Y-99459268D01*
X115199424Y-99431268D01*
X115199416Y-99431267D01*
X115196176Y-99430754D01*
X114808000Y-99410411D01*
X114419824Y-99430754D01*
X114416584Y-99431267D01*
X114416576Y-99431268D01*
X114239793Y-99459268D01*
X114035901Y-99491562D01*
X113660438Y-99592167D01*
X113657350Y-99593352D01*
X113657348Y-99593353D01*
X113518547Y-99646634D01*
X113297547Y-99731468D01*
X113294607Y-99732966D01*
X112954147Y-99906439D01*
X112954140Y-99906443D01*
X112951206Y-99907938D01*
X112948440Y-99909734D01*
X112948437Y-99909736D01*
X112860061Y-99967128D01*
X112625207Y-100119643D01*
X112323124Y-100364266D01*
X112048266Y-100639124D01*
X111803643Y-100941207D01*
X111801848Y-100943970D01*
X111801848Y-100943971D01*
X111598148Y-101257644D01*
X111591938Y-101267206D01*
X111590443Y-101270140D01*
X111590439Y-101270147D01*
X111467345Y-101511732D01*
X111415468Y-101613547D01*
X111414284Y-101616632D01*
X111281370Y-101962885D01*
X111276167Y-101976438D01*
X111175562Y-102351901D01*
X111150647Y-102509206D01*
X111116836Y-102722680D01*
X111114754Y-102735824D01*
X111094411Y-103124000D01*
X109728500Y-103124000D01*
X109728500Y-99060000D01*
X154534496Y-99060000D01*
X154554458Y-99249928D01*
X154613473Y-99431556D01*
X154708960Y-99596944D01*
X154836747Y-99738866D01*
X154991248Y-99851118D01*
X154997276Y-99853802D01*
X154997278Y-99853803D01*
X155159681Y-99926109D01*
X155165712Y-99928794D01*
X155259112Y-99948647D01*
X155346056Y-99967128D01*
X155346061Y-99967128D01*
X155352513Y-99968500D01*
X155543487Y-99968500D01*
X155549939Y-99967128D01*
X155549944Y-99967128D01*
X155636888Y-99948647D01*
X155730288Y-99928794D01*
X155736319Y-99926109D01*
X155898722Y-99853803D01*
X155898724Y-99853802D01*
X155904752Y-99851118D01*
X156059253Y-99738866D01*
X156187040Y-99596944D01*
X156282527Y-99431556D01*
X156341542Y-99249928D01*
X156361504Y-99060000D01*
X156341542Y-98870072D01*
X156282527Y-98688444D01*
X156187040Y-98523056D01*
X156059253Y-98381134D01*
X155904752Y-98268882D01*
X155898724Y-98266198D01*
X155898722Y-98266197D01*
X155736319Y-98193891D01*
X155736318Y-98193891D01*
X155730288Y-98191206D01*
X155636888Y-98171353D01*
X155549944Y-98152872D01*
X155549939Y-98152872D01*
X155543487Y-98151500D01*
X155352513Y-98151500D01*
X155346061Y-98152872D01*
X155346056Y-98152872D01*
X155259112Y-98171353D01*
X155165712Y-98191206D01*
X155159682Y-98193891D01*
X155159681Y-98193891D01*
X154997278Y-98266197D01*
X154997276Y-98266198D01*
X154991248Y-98268882D01*
X154836747Y-98381134D01*
X154708960Y-98523056D01*
X154613473Y-98688444D01*
X154554458Y-98870072D01*
X154534496Y-99060000D01*
X109728500Y-99060000D01*
X109728500Y-97282000D01*
X124689496Y-97282000D01*
X124709458Y-97471928D01*
X124768473Y-97653556D01*
X124863960Y-97818944D01*
X124991747Y-97960866D01*
X125146248Y-98073118D01*
X125152276Y-98075802D01*
X125152278Y-98075803D01*
X125314681Y-98148109D01*
X125320712Y-98150794D01*
X125414113Y-98170647D01*
X125501056Y-98189128D01*
X125501061Y-98189128D01*
X125507513Y-98190500D01*
X125698487Y-98190500D01*
X125704939Y-98189128D01*
X125704944Y-98189128D01*
X125791887Y-98170647D01*
X125885288Y-98150794D01*
X125891319Y-98148109D01*
X126053722Y-98075803D01*
X126053724Y-98075802D01*
X126059752Y-98073118D01*
X126214253Y-97960866D01*
X126342040Y-97818944D01*
X126437527Y-97653556D01*
X126496542Y-97471928D01*
X126516504Y-97282000D01*
X126496542Y-97092072D01*
X126437527Y-96910444D01*
X126342040Y-96745056D01*
X126214253Y-96603134D01*
X126059752Y-96490882D01*
X126053724Y-96488198D01*
X126053722Y-96488197D01*
X125891319Y-96415891D01*
X125891318Y-96415891D01*
X125885288Y-96413206D01*
X125791888Y-96393353D01*
X125704944Y-96374872D01*
X125704939Y-96374872D01*
X125698487Y-96373500D01*
X125507513Y-96373500D01*
X125501061Y-96374872D01*
X125501056Y-96374872D01*
X125414112Y-96393353D01*
X125320712Y-96413206D01*
X125314682Y-96415891D01*
X125314681Y-96415891D01*
X125152278Y-96488197D01*
X125152276Y-96488198D01*
X125146248Y-96490882D01*
X124991747Y-96603134D01*
X124863960Y-96745056D01*
X124768473Y-96910444D01*
X124709458Y-97092072D01*
X124689496Y-97282000D01*
X109728500Y-97282000D01*
X109728500Y-94347527D01*
X126003035Y-94347527D01*
X126009790Y-94409709D01*
X126060920Y-94546098D01*
X126148274Y-94662654D01*
X126264830Y-94750008D01*
X126401219Y-94801138D01*
X126463401Y-94807893D01*
X128259669Y-94807893D01*
X128321851Y-94801138D01*
X128458240Y-94750008D01*
X128574796Y-94662654D01*
X128662150Y-94546098D01*
X128684334Y-94486922D01*
X128706133Y-94428775D01*
X128748775Y-94372011D01*
X128815337Y-94347311D01*
X128884685Y-94362519D01*
X128919352Y-94390507D01*
X128947785Y-94423331D01*
X129119661Y-94566025D01*
X129312535Y-94678731D01*
X129521227Y-94758423D01*
X129526295Y-94759454D01*
X129526298Y-94759455D01*
X129633552Y-94781276D01*
X129740132Y-94802960D01*
X129745307Y-94803150D01*
X129745309Y-94803150D01*
X129958208Y-94810957D01*
X129958212Y-94810957D01*
X129963372Y-94811146D01*
X129968492Y-94810490D01*
X129968494Y-94810490D01*
X130179823Y-94783418D01*
X130179824Y-94783418D01*
X130184951Y-94782761D01*
X130189901Y-94781276D01*
X130393964Y-94720054D01*
X130393969Y-94720052D01*
X130398919Y-94718567D01*
X130599529Y-94620289D01*
X130781395Y-94490566D01*
X130939631Y-94332882D01*
X131069988Y-94151470D01*
X131071311Y-94152421D01*
X131118180Y-94109250D01*
X131188115Y-94097018D01*
X131253561Y-94124537D01*
X131281410Y-94156387D01*
X131341522Y-94254481D01*
X131487785Y-94423331D01*
X131659661Y-94566025D01*
X131852535Y-94678731D01*
X132061227Y-94758423D01*
X132066295Y-94759454D01*
X132066298Y-94759455D01*
X132173552Y-94781276D01*
X132280132Y-94802960D01*
X132285307Y-94803150D01*
X132285309Y-94803150D01*
X132498208Y-94810957D01*
X132498212Y-94810957D01*
X132503372Y-94811146D01*
X132508492Y-94810490D01*
X132508494Y-94810490D01*
X132719823Y-94783418D01*
X132719824Y-94783418D01*
X132724951Y-94782761D01*
X132729901Y-94781276D01*
X132933964Y-94720054D01*
X132933969Y-94720052D01*
X132938919Y-94718567D01*
X133139529Y-94620289D01*
X133321395Y-94490566D01*
X133479631Y-94332882D01*
X133609988Y-94151470D01*
X133611311Y-94152421D01*
X133658180Y-94109250D01*
X133728115Y-94097018D01*
X133793561Y-94124537D01*
X133821410Y-94156387D01*
X133881522Y-94254481D01*
X134027785Y-94423331D01*
X134199661Y-94566025D01*
X134392535Y-94678731D01*
X134601227Y-94758423D01*
X134606295Y-94759454D01*
X134606298Y-94759455D01*
X134713552Y-94781276D01*
X134820132Y-94802960D01*
X134825307Y-94803150D01*
X134825309Y-94803150D01*
X135038208Y-94810957D01*
X135038212Y-94810957D01*
X135043372Y-94811146D01*
X135048492Y-94810490D01*
X135048494Y-94810490D01*
X135259823Y-94783418D01*
X135259824Y-94783418D01*
X135264951Y-94782761D01*
X135269901Y-94781276D01*
X135473964Y-94720054D01*
X135473969Y-94720052D01*
X135478919Y-94718567D01*
X135679529Y-94620289D01*
X135861395Y-94490566D01*
X136019631Y-94332882D01*
X136149988Y-94151470D01*
X136151311Y-94152421D01*
X136198180Y-94109250D01*
X136268115Y-94097018D01*
X136333561Y-94124537D01*
X136361410Y-94156387D01*
X136421522Y-94254481D01*
X136567785Y-94423331D01*
X136739661Y-94566025D01*
X136932535Y-94678731D01*
X137141227Y-94758423D01*
X137146295Y-94759454D01*
X137146298Y-94759455D01*
X137253552Y-94781276D01*
X137360132Y-94802960D01*
X137365307Y-94803150D01*
X137365309Y-94803150D01*
X137578208Y-94810957D01*
X137578212Y-94810957D01*
X137583372Y-94811146D01*
X137588492Y-94810490D01*
X137588494Y-94810490D01*
X137799823Y-94783418D01*
X137799824Y-94783418D01*
X137804951Y-94782761D01*
X137809901Y-94781276D01*
X138013964Y-94720054D01*
X138013969Y-94720052D01*
X138018919Y-94718567D01*
X138219529Y-94620289D01*
X138401395Y-94490566D01*
X138559631Y-94332882D01*
X138689988Y-94151470D01*
X138691311Y-94152421D01*
X138738180Y-94109250D01*
X138808115Y-94097018D01*
X138873561Y-94124537D01*
X138901410Y-94156387D01*
X138961522Y-94254481D01*
X139107785Y-94423331D01*
X139279661Y-94566025D01*
X139472535Y-94678731D01*
X139681227Y-94758423D01*
X139686295Y-94759454D01*
X139686298Y-94759455D01*
X139793552Y-94781276D01*
X139900132Y-94802960D01*
X139905307Y-94803150D01*
X139905309Y-94803150D01*
X140118208Y-94810957D01*
X140118212Y-94810957D01*
X140123372Y-94811146D01*
X140128492Y-94810490D01*
X140128494Y-94810490D01*
X140339823Y-94783418D01*
X140339824Y-94783418D01*
X140344951Y-94782761D01*
X140349901Y-94781276D01*
X140553964Y-94720054D01*
X140553969Y-94720052D01*
X140558919Y-94718567D01*
X140759529Y-94620289D01*
X140941395Y-94490566D01*
X141099631Y-94332882D01*
X141229988Y-94151470D01*
X141231311Y-94152421D01*
X141278180Y-94109250D01*
X141348115Y-94097018D01*
X141413561Y-94124537D01*
X141441410Y-94156387D01*
X141501522Y-94254481D01*
X141647785Y-94423331D01*
X141819661Y-94566025D01*
X142012535Y-94678731D01*
X142221227Y-94758423D01*
X142226295Y-94759454D01*
X142226298Y-94759455D01*
X142333552Y-94781276D01*
X142440132Y-94802960D01*
X142445307Y-94803150D01*
X142445309Y-94803150D01*
X142658208Y-94810957D01*
X142658212Y-94810957D01*
X142663372Y-94811146D01*
X142668492Y-94810490D01*
X142668494Y-94810490D01*
X142879823Y-94783418D01*
X142879824Y-94783418D01*
X142884951Y-94782761D01*
X142889901Y-94781276D01*
X143093964Y-94720054D01*
X143093969Y-94720052D01*
X143098919Y-94718567D01*
X143299529Y-94620289D01*
X143481395Y-94490566D01*
X143639631Y-94332882D01*
X143769988Y-94151470D01*
X143771311Y-94152421D01*
X143818180Y-94109250D01*
X143888115Y-94097018D01*
X143953561Y-94124537D01*
X143981410Y-94156387D01*
X144041522Y-94254481D01*
X144187785Y-94423331D01*
X144359661Y-94566025D01*
X144552535Y-94678731D01*
X144761227Y-94758423D01*
X144766295Y-94759454D01*
X144766298Y-94759455D01*
X144873552Y-94781276D01*
X144980132Y-94802960D01*
X144985307Y-94803150D01*
X144985309Y-94803150D01*
X145198208Y-94810957D01*
X145198212Y-94810957D01*
X145203372Y-94811146D01*
X145208492Y-94810490D01*
X145208494Y-94810490D01*
X145419823Y-94783418D01*
X145419824Y-94783418D01*
X145424951Y-94782761D01*
X145429901Y-94781276D01*
X145633964Y-94720054D01*
X145633969Y-94720052D01*
X145638919Y-94718567D01*
X145839529Y-94620289D01*
X146021395Y-94490566D01*
X146179631Y-94332882D01*
X146309988Y-94151470D01*
X146311311Y-94152421D01*
X146358180Y-94109250D01*
X146428115Y-94097018D01*
X146493561Y-94124537D01*
X146521410Y-94156387D01*
X146581522Y-94254481D01*
X146727785Y-94423331D01*
X146899661Y-94566025D01*
X147092535Y-94678731D01*
X147301227Y-94758423D01*
X147306295Y-94759454D01*
X147306298Y-94759455D01*
X147413552Y-94781276D01*
X147520132Y-94802960D01*
X147525307Y-94803150D01*
X147525309Y-94803150D01*
X147738208Y-94810957D01*
X147738212Y-94810957D01*
X147743372Y-94811146D01*
X147748492Y-94810490D01*
X147748494Y-94810490D01*
X147959823Y-94783418D01*
X147959824Y-94783418D01*
X147964951Y-94782761D01*
X147969901Y-94781276D01*
X148173964Y-94720054D01*
X148173969Y-94720052D01*
X148178919Y-94718567D01*
X148379529Y-94620289D01*
X148561395Y-94490566D01*
X148719631Y-94332882D01*
X148849988Y-94151470D01*
X148851311Y-94152421D01*
X148898180Y-94109250D01*
X148968115Y-94097018D01*
X149033561Y-94124537D01*
X149061410Y-94156387D01*
X149121522Y-94254481D01*
X149267785Y-94423331D01*
X149439661Y-94566025D01*
X149632535Y-94678731D01*
X149841227Y-94758423D01*
X149846295Y-94759454D01*
X149846298Y-94759455D01*
X149953552Y-94781276D01*
X150060132Y-94802960D01*
X150065307Y-94803150D01*
X150065309Y-94803150D01*
X150278208Y-94810957D01*
X150278212Y-94810957D01*
X150283372Y-94811146D01*
X150288492Y-94810490D01*
X150288494Y-94810490D01*
X150499823Y-94783418D01*
X150499824Y-94783418D01*
X150504951Y-94782761D01*
X150509901Y-94781276D01*
X150713964Y-94720054D01*
X150713969Y-94720052D01*
X150718919Y-94718567D01*
X150919529Y-94620289D01*
X151101395Y-94490566D01*
X151259631Y-94332882D01*
X151389988Y-94151470D01*
X151391311Y-94152421D01*
X151438180Y-94109250D01*
X151508115Y-94097018D01*
X151573561Y-94124537D01*
X151601410Y-94156387D01*
X151661522Y-94254481D01*
X151807785Y-94423331D01*
X151979661Y-94566025D01*
X152172535Y-94678731D01*
X152381227Y-94758423D01*
X152386295Y-94759454D01*
X152386298Y-94759455D01*
X152493552Y-94781276D01*
X152600132Y-94802960D01*
X152605307Y-94803150D01*
X152605309Y-94803150D01*
X152818208Y-94810957D01*
X152818212Y-94810957D01*
X152823372Y-94811146D01*
X152828492Y-94810490D01*
X152828494Y-94810490D01*
X153039823Y-94783418D01*
X153039824Y-94783418D01*
X153044951Y-94782761D01*
X153049901Y-94781276D01*
X153253964Y-94720054D01*
X153253969Y-94720052D01*
X153258919Y-94718567D01*
X153459529Y-94620289D01*
X153641395Y-94490566D01*
X153799631Y-94332882D01*
X153929988Y-94151470D01*
X153931311Y-94152421D01*
X153978180Y-94109250D01*
X154048115Y-94097018D01*
X154113561Y-94124537D01*
X154141410Y-94156387D01*
X154201522Y-94254481D01*
X154347785Y-94423331D01*
X154519661Y-94566025D01*
X154712535Y-94678731D01*
X154921227Y-94758423D01*
X154926295Y-94759454D01*
X154926298Y-94759455D01*
X155033552Y-94781276D01*
X155140132Y-94802960D01*
X155145307Y-94803150D01*
X155145309Y-94803150D01*
X155358208Y-94810957D01*
X155358212Y-94810957D01*
X155363372Y-94811146D01*
X155368492Y-94810490D01*
X155368494Y-94810490D01*
X155579823Y-94783418D01*
X155579824Y-94783418D01*
X155584951Y-94782761D01*
X155589901Y-94781276D01*
X155793964Y-94720054D01*
X155793969Y-94720052D01*
X155798919Y-94718567D01*
X155999529Y-94620289D01*
X156181395Y-94490566D01*
X156339631Y-94332882D01*
X156469988Y-94151470D01*
X156471311Y-94152421D01*
X156518180Y-94109250D01*
X156588115Y-94097018D01*
X156653561Y-94124537D01*
X156681410Y-94156387D01*
X156741522Y-94254481D01*
X156887785Y-94423331D01*
X157059661Y-94566025D01*
X157252535Y-94678731D01*
X157461227Y-94758423D01*
X157466295Y-94759454D01*
X157466298Y-94759455D01*
X157573552Y-94781276D01*
X157680132Y-94802960D01*
X157685307Y-94803150D01*
X157685309Y-94803150D01*
X157898208Y-94810957D01*
X157898212Y-94810957D01*
X157903372Y-94811146D01*
X157908492Y-94810490D01*
X157908494Y-94810490D01*
X158119823Y-94783418D01*
X158119824Y-94783418D01*
X158124951Y-94782761D01*
X158129901Y-94781276D01*
X158333964Y-94720054D01*
X158333969Y-94720052D01*
X158338919Y-94718567D01*
X158539529Y-94620289D01*
X158721395Y-94490566D01*
X158879631Y-94332882D01*
X159009988Y-94151470D01*
X159011311Y-94152421D01*
X159058180Y-94109250D01*
X159128115Y-94097018D01*
X159193561Y-94124537D01*
X159221410Y-94156387D01*
X159281522Y-94254481D01*
X159427785Y-94423331D01*
X159599661Y-94566025D01*
X159792535Y-94678731D01*
X160001227Y-94758423D01*
X160006295Y-94759454D01*
X160006298Y-94759455D01*
X160113552Y-94781276D01*
X160220132Y-94802960D01*
X160225307Y-94803150D01*
X160225309Y-94803150D01*
X160438208Y-94810957D01*
X160438212Y-94810957D01*
X160443372Y-94811146D01*
X160448492Y-94810490D01*
X160448494Y-94810490D01*
X160659823Y-94783418D01*
X160659824Y-94783418D01*
X160664951Y-94782761D01*
X160669901Y-94781276D01*
X160873964Y-94720054D01*
X160873969Y-94720052D01*
X160878919Y-94718567D01*
X161079529Y-94620289D01*
X161261395Y-94490566D01*
X161419631Y-94332882D01*
X161549988Y-94151470D01*
X161551311Y-94152421D01*
X161598180Y-94109250D01*
X161668115Y-94097018D01*
X161733561Y-94124537D01*
X161761410Y-94156387D01*
X161821522Y-94254481D01*
X161967785Y-94423331D01*
X162139661Y-94566025D01*
X162332535Y-94678731D01*
X162541227Y-94758423D01*
X162546295Y-94759454D01*
X162546298Y-94759455D01*
X162653552Y-94781276D01*
X162760132Y-94802960D01*
X162765307Y-94803150D01*
X162765309Y-94803150D01*
X162978208Y-94810957D01*
X162978212Y-94810957D01*
X162983372Y-94811146D01*
X162988492Y-94810490D01*
X162988494Y-94810490D01*
X163199823Y-94783418D01*
X163199824Y-94783418D01*
X163204951Y-94782761D01*
X163209901Y-94781276D01*
X163413964Y-94720054D01*
X163413969Y-94720052D01*
X163418919Y-94718567D01*
X163619529Y-94620289D01*
X163801395Y-94490566D01*
X163959631Y-94332882D01*
X164089988Y-94151470D01*
X164110855Y-94109250D01*
X164186671Y-93955846D01*
X164186672Y-93955844D01*
X164188965Y-93951204D01*
X164253905Y-93737462D01*
X164283064Y-93515983D01*
X164284691Y-93449393D01*
X164266387Y-93226754D01*
X164211966Y-93010095D01*
X164122889Y-92805233D01*
X164083441Y-92744255D01*
X164004357Y-92622010D01*
X164004355Y-92622007D01*
X164001549Y-92617670D01*
X163851205Y-92452444D01*
X163847154Y-92449245D01*
X163847150Y-92449241D01*
X163679949Y-92317193D01*
X163679945Y-92317191D01*
X163675894Y-92313991D01*
X163480324Y-92206031D01*
X163475455Y-92204307D01*
X163475451Y-92204305D01*
X163274622Y-92133188D01*
X163274618Y-92133187D01*
X163269747Y-92131462D01*
X163264654Y-92130555D01*
X163264651Y-92130554D01*
X163054908Y-92093193D01*
X163054902Y-92093192D01*
X163049819Y-92092287D01*
X162975987Y-92091385D01*
X162831616Y-92089621D01*
X162831614Y-92089621D01*
X162826446Y-92089558D01*
X162605626Y-92123348D01*
X162393291Y-92192750D01*
X162195142Y-92295900D01*
X162191009Y-92299003D01*
X162191006Y-92299005D01*
X162020635Y-92426923D01*
X162016500Y-92430028D01*
X162012928Y-92433766D01*
X161866846Y-92586632D01*
X161862164Y-92591531D01*
X161754736Y-92749014D01*
X161699828Y-92794014D01*
X161629303Y-92802185D01*
X161565556Y-92770931D01*
X161544859Y-92746447D01*
X161464357Y-92622010D01*
X161464355Y-92622007D01*
X161461549Y-92617670D01*
X161311205Y-92452444D01*
X161307154Y-92449245D01*
X161307150Y-92449241D01*
X161139949Y-92317193D01*
X161139945Y-92317191D01*
X161135894Y-92313991D01*
X160940324Y-92206031D01*
X160935455Y-92204307D01*
X160935451Y-92204305D01*
X160734622Y-92133188D01*
X160734618Y-92133187D01*
X160729747Y-92131462D01*
X160724654Y-92130555D01*
X160724651Y-92130554D01*
X160514908Y-92093193D01*
X160514902Y-92093192D01*
X160509819Y-92092287D01*
X160435987Y-92091385D01*
X160291616Y-92089621D01*
X160291614Y-92089621D01*
X160286446Y-92089558D01*
X160065626Y-92123348D01*
X159853291Y-92192750D01*
X159655142Y-92295900D01*
X159651009Y-92299003D01*
X159651006Y-92299005D01*
X159480635Y-92426923D01*
X159476500Y-92430028D01*
X159472928Y-92433766D01*
X159326846Y-92586632D01*
X159322164Y-92591531D01*
X159214736Y-92749014D01*
X159159828Y-92794014D01*
X159089303Y-92802185D01*
X159025556Y-92770931D01*
X159004859Y-92746447D01*
X158924357Y-92622010D01*
X158924355Y-92622007D01*
X158921549Y-92617670D01*
X158771205Y-92452444D01*
X158767154Y-92449245D01*
X158767150Y-92449241D01*
X158599949Y-92317193D01*
X158599945Y-92317191D01*
X158595894Y-92313991D01*
X158400324Y-92206031D01*
X158395455Y-92204307D01*
X158395451Y-92204305D01*
X158194622Y-92133188D01*
X158194618Y-92133187D01*
X158189747Y-92131462D01*
X158184654Y-92130555D01*
X158184651Y-92130554D01*
X157974908Y-92093193D01*
X157974902Y-92093192D01*
X157969819Y-92092287D01*
X157895987Y-92091385D01*
X157751616Y-92089621D01*
X157751614Y-92089621D01*
X157746446Y-92089558D01*
X157525626Y-92123348D01*
X157313291Y-92192750D01*
X157115142Y-92295900D01*
X157111009Y-92299003D01*
X157111006Y-92299005D01*
X156940635Y-92426923D01*
X156936500Y-92430028D01*
X156932928Y-92433766D01*
X156786846Y-92586632D01*
X156782164Y-92591531D01*
X156674736Y-92749014D01*
X156619828Y-92794014D01*
X156549303Y-92802185D01*
X156485556Y-92770931D01*
X156464859Y-92746447D01*
X156384357Y-92622010D01*
X156384355Y-92622007D01*
X156381549Y-92617670D01*
X156231205Y-92452444D01*
X156227154Y-92449245D01*
X156227150Y-92449241D01*
X156059949Y-92317193D01*
X156059945Y-92317191D01*
X156055894Y-92313991D01*
X155860324Y-92206031D01*
X155855455Y-92204307D01*
X155855451Y-92204305D01*
X155654622Y-92133188D01*
X155654618Y-92133187D01*
X155649747Y-92131462D01*
X155644654Y-92130555D01*
X155644651Y-92130554D01*
X155434908Y-92093193D01*
X155434902Y-92093192D01*
X155429819Y-92092287D01*
X155355987Y-92091385D01*
X155211616Y-92089621D01*
X155211614Y-92089621D01*
X155206446Y-92089558D01*
X154985626Y-92123348D01*
X154773291Y-92192750D01*
X154575142Y-92295900D01*
X154571009Y-92299003D01*
X154571006Y-92299005D01*
X154400635Y-92426923D01*
X154396500Y-92430028D01*
X154392928Y-92433766D01*
X154246846Y-92586632D01*
X154242164Y-92591531D01*
X154134736Y-92749014D01*
X154079828Y-92794014D01*
X154009303Y-92802185D01*
X153945556Y-92770931D01*
X153924859Y-92746447D01*
X153844357Y-92622010D01*
X153844355Y-92622007D01*
X153841549Y-92617670D01*
X153691205Y-92452444D01*
X153687154Y-92449245D01*
X153687150Y-92449241D01*
X153519949Y-92317193D01*
X153519945Y-92317191D01*
X153515894Y-92313991D01*
X153320324Y-92206031D01*
X153315455Y-92204307D01*
X153315451Y-92204305D01*
X153114622Y-92133188D01*
X153114618Y-92133187D01*
X153109747Y-92131462D01*
X153104654Y-92130555D01*
X153104651Y-92130554D01*
X152894908Y-92093193D01*
X152894902Y-92093192D01*
X152889819Y-92092287D01*
X152815987Y-92091385D01*
X152671616Y-92089621D01*
X152671614Y-92089621D01*
X152666446Y-92089558D01*
X152445626Y-92123348D01*
X152233291Y-92192750D01*
X152035142Y-92295900D01*
X152031009Y-92299003D01*
X152031006Y-92299005D01*
X151860635Y-92426923D01*
X151856500Y-92430028D01*
X151852928Y-92433766D01*
X151706846Y-92586632D01*
X151702164Y-92591531D01*
X151594736Y-92749014D01*
X151539828Y-92794014D01*
X151469303Y-92802185D01*
X151405556Y-92770931D01*
X151384859Y-92746447D01*
X151304357Y-92622010D01*
X151304355Y-92622007D01*
X151301549Y-92617670D01*
X151151205Y-92452444D01*
X151147154Y-92449245D01*
X151147150Y-92449241D01*
X150979949Y-92317193D01*
X150979945Y-92317191D01*
X150975894Y-92313991D01*
X150780324Y-92206031D01*
X150775455Y-92204307D01*
X150775451Y-92204305D01*
X150574622Y-92133188D01*
X150574618Y-92133187D01*
X150569747Y-92131462D01*
X150564654Y-92130555D01*
X150564651Y-92130554D01*
X150354908Y-92093193D01*
X150354902Y-92093192D01*
X150349819Y-92092287D01*
X150275987Y-92091385D01*
X150131616Y-92089621D01*
X150131614Y-92089621D01*
X150126446Y-92089558D01*
X149905626Y-92123348D01*
X149693291Y-92192750D01*
X149495142Y-92295900D01*
X149491009Y-92299003D01*
X149491006Y-92299005D01*
X149320635Y-92426923D01*
X149316500Y-92430028D01*
X149312928Y-92433766D01*
X149166846Y-92586632D01*
X149162164Y-92591531D01*
X149054736Y-92749014D01*
X148999828Y-92794014D01*
X148929303Y-92802185D01*
X148865556Y-92770931D01*
X148844859Y-92746447D01*
X148764357Y-92622010D01*
X148764355Y-92622007D01*
X148761549Y-92617670D01*
X148611205Y-92452444D01*
X148607154Y-92449245D01*
X148607150Y-92449241D01*
X148439949Y-92317193D01*
X148439945Y-92317191D01*
X148435894Y-92313991D01*
X148240324Y-92206031D01*
X148235455Y-92204307D01*
X148235451Y-92204305D01*
X148034622Y-92133188D01*
X148034618Y-92133187D01*
X148029747Y-92131462D01*
X148024654Y-92130555D01*
X148024651Y-92130554D01*
X147814908Y-92093193D01*
X147814902Y-92093192D01*
X147809819Y-92092287D01*
X147735987Y-92091385D01*
X147591616Y-92089621D01*
X147591614Y-92089621D01*
X147586446Y-92089558D01*
X147365626Y-92123348D01*
X147153291Y-92192750D01*
X146955142Y-92295900D01*
X146951009Y-92299003D01*
X146951006Y-92299005D01*
X146780635Y-92426923D01*
X146776500Y-92430028D01*
X146772928Y-92433766D01*
X146626846Y-92586632D01*
X146622164Y-92591531D01*
X146514736Y-92749014D01*
X146459828Y-92794014D01*
X146389303Y-92802185D01*
X146325556Y-92770931D01*
X146304859Y-92746447D01*
X146224357Y-92622010D01*
X146224355Y-92622007D01*
X146221549Y-92617670D01*
X146071205Y-92452444D01*
X146067154Y-92449245D01*
X146067150Y-92449241D01*
X145899949Y-92317193D01*
X145899945Y-92317191D01*
X145895894Y-92313991D01*
X145700324Y-92206031D01*
X145695455Y-92204307D01*
X145695451Y-92204305D01*
X145494622Y-92133188D01*
X145494618Y-92133187D01*
X145489747Y-92131462D01*
X145484654Y-92130555D01*
X145484651Y-92130554D01*
X145274908Y-92093193D01*
X145274902Y-92093192D01*
X145269819Y-92092287D01*
X145195987Y-92091385D01*
X145051616Y-92089621D01*
X145051614Y-92089621D01*
X145046446Y-92089558D01*
X144825626Y-92123348D01*
X144613291Y-92192750D01*
X144415142Y-92295900D01*
X144411009Y-92299003D01*
X144411006Y-92299005D01*
X144240635Y-92426923D01*
X144236500Y-92430028D01*
X144232928Y-92433766D01*
X144086846Y-92586632D01*
X144082164Y-92591531D01*
X143974736Y-92749014D01*
X143919828Y-92794014D01*
X143849303Y-92802185D01*
X143785556Y-92770931D01*
X143764859Y-92746447D01*
X143684357Y-92622010D01*
X143684355Y-92622007D01*
X143681549Y-92617670D01*
X143531205Y-92452444D01*
X143527154Y-92449245D01*
X143527150Y-92449241D01*
X143359949Y-92317193D01*
X143359945Y-92317191D01*
X143355894Y-92313991D01*
X143160324Y-92206031D01*
X143155455Y-92204307D01*
X143155451Y-92204305D01*
X142954622Y-92133188D01*
X142954618Y-92133187D01*
X142949747Y-92131462D01*
X142944654Y-92130555D01*
X142944651Y-92130554D01*
X142734908Y-92093193D01*
X142734902Y-92093192D01*
X142729819Y-92092287D01*
X142655987Y-92091385D01*
X142511616Y-92089621D01*
X142511614Y-92089621D01*
X142506446Y-92089558D01*
X142285626Y-92123348D01*
X142073291Y-92192750D01*
X141875142Y-92295900D01*
X141871009Y-92299003D01*
X141871006Y-92299005D01*
X141700635Y-92426923D01*
X141696500Y-92430028D01*
X141692928Y-92433766D01*
X141546846Y-92586632D01*
X141542164Y-92591531D01*
X141434736Y-92749014D01*
X141379828Y-92794014D01*
X141309303Y-92802185D01*
X141245556Y-92770931D01*
X141224859Y-92746447D01*
X141144357Y-92622010D01*
X141144355Y-92622007D01*
X141141549Y-92617670D01*
X140991205Y-92452444D01*
X140987154Y-92449245D01*
X140987150Y-92449241D01*
X140819949Y-92317193D01*
X140819945Y-92317191D01*
X140815894Y-92313991D01*
X140620324Y-92206031D01*
X140615455Y-92204307D01*
X140615451Y-92204305D01*
X140414622Y-92133188D01*
X140414618Y-92133187D01*
X140409747Y-92131462D01*
X140404654Y-92130555D01*
X140404651Y-92130554D01*
X140194908Y-92093193D01*
X140194902Y-92093192D01*
X140189819Y-92092287D01*
X140115987Y-92091385D01*
X139971616Y-92089621D01*
X139971614Y-92089621D01*
X139966446Y-92089558D01*
X139745626Y-92123348D01*
X139533291Y-92192750D01*
X139335142Y-92295900D01*
X139331009Y-92299003D01*
X139331006Y-92299005D01*
X139160635Y-92426923D01*
X139156500Y-92430028D01*
X139152928Y-92433766D01*
X139006846Y-92586632D01*
X139002164Y-92591531D01*
X138894736Y-92749014D01*
X138839828Y-92794014D01*
X138769303Y-92802185D01*
X138705556Y-92770931D01*
X138684859Y-92746447D01*
X138604357Y-92622010D01*
X138604355Y-92622007D01*
X138601549Y-92617670D01*
X138451205Y-92452444D01*
X138447154Y-92449245D01*
X138447150Y-92449241D01*
X138279949Y-92317193D01*
X138279945Y-92317191D01*
X138275894Y-92313991D01*
X138080324Y-92206031D01*
X138075455Y-92204307D01*
X138075451Y-92204305D01*
X137874622Y-92133188D01*
X137874618Y-92133187D01*
X137869747Y-92131462D01*
X137864654Y-92130555D01*
X137864651Y-92130554D01*
X137654908Y-92093193D01*
X137654902Y-92093192D01*
X137649819Y-92092287D01*
X137575987Y-92091385D01*
X137431616Y-92089621D01*
X137431614Y-92089621D01*
X137426446Y-92089558D01*
X137205626Y-92123348D01*
X136993291Y-92192750D01*
X136795142Y-92295900D01*
X136791009Y-92299003D01*
X136791006Y-92299005D01*
X136620635Y-92426923D01*
X136616500Y-92430028D01*
X136612928Y-92433766D01*
X136466846Y-92586632D01*
X136462164Y-92591531D01*
X136354736Y-92749014D01*
X136299828Y-92794014D01*
X136229303Y-92802185D01*
X136165556Y-92770931D01*
X136144859Y-92746447D01*
X136064357Y-92622010D01*
X136064355Y-92622007D01*
X136061549Y-92617670D01*
X135911205Y-92452444D01*
X135907154Y-92449245D01*
X135907150Y-92449241D01*
X135739949Y-92317193D01*
X135739945Y-92317191D01*
X135735894Y-92313991D01*
X135540324Y-92206031D01*
X135535455Y-92204307D01*
X135535451Y-92204305D01*
X135334622Y-92133188D01*
X135334618Y-92133187D01*
X135329747Y-92131462D01*
X135324654Y-92130555D01*
X135324651Y-92130554D01*
X135114908Y-92093193D01*
X135114902Y-92093192D01*
X135109819Y-92092287D01*
X135035987Y-92091385D01*
X134891616Y-92089621D01*
X134891614Y-92089621D01*
X134886446Y-92089558D01*
X134665626Y-92123348D01*
X134453291Y-92192750D01*
X134255142Y-92295900D01*
X134251009Y-92299003D01*
X134251006Y-92299005D01*
X134080635Y-92426923D01*
X134076500Y-92430028D01*
X134072928Y-92433766D01*
X133926846Y-92586632D01*
X133922164Y-92591531D01*
X133814736Y-92749014D01*
X133759828Y-92794014D01*
X133689303Y-92802185D01*
X133625556Y-92770931D01*
X133604859Y-92746447D01*
X133524357Y-92622010D01*
X133524355Y-92622007D01*
X133521549Y-92617670D01*
X133371205Y-92452444D01*
X133367154Y-92449245D01*
X133367150Y-92449241D01*
X133199949Y-92317193D01*
X133199945Y-92317191D01*
X133195894Y-92313991D01*
X133000324Y-92206031D01*
X132995455Y-92204307D01*
X132995451Y-92204305D01*
X132794622Y-92133188D01*
X132794618Y-92133187D01*
X132789747Y-92131462D01*
X132784654Y-92130555D01*
X132784651Y-92130554D01*
X132574908Y-92093193D01*
X132574902Y-92093192D01*
X132569819Y-92092287D01*
X132495987Y-92091385D01*
X132351616Y-92089621D01*
X132351614Y-92089621D01*
X132346446Y-92089558D01*
X132125626Y-92123348D01*
X131913291Y-92192750D01*
X131715142Y-92295900D01*
X131711009Y-92299003D01*
X131711006Y-92299005D01*
X131540635Y-92426923D01*
X131536500Y-92430028D01*
X131532928Y-92433766D01*
X131386846Y-92586632D01*
X131382164Y-92591531D01*
X131274736Y-92749014D01*
X131219828Y-92794014D01*
X131149303Y-92802185D01*
X131085556Y-92770931D01*
X131064859Y-92746447D01*
X130984357Y-92622010D01*
X130984355Y-92622007D01*
X130981549Y-92617670D01*
X130831205Y-92452444D01*
X130827154Y-92449245D01*
X130827150Y-92449241D01*
X130659949Y-92317193D01*
X130659945Y-92317191D01*
X130655894Y-92313991D01*
X130460324Y-92206031D01*
X130455455Y-92204307D01*
X130455451Y-92204305D01*
X130254622Y-92133188D01*
X130254618Y-92133187D01*
X130249747Y-92131462D01*
X130244654Y-92130555D01*
X130244651Y-92130554D01*
X130034908Y-92093193D01*
X130034902Y-92093192D01*
X130029819Y-92092287D01*
X129955987Y-92091385D01*
X129811616Y-92089621D01*
X129811614Y-92089621D01*
X129806446Y-92089558D01*
X129585626Y-92123348D01*
X129373291Y-92192750D01*
X129175142Y-92295900D01*
X129171009Y-92299003D01*
X129171006Y-92299005D01*
X129000635Y-92426923D01*
X128996500Y-92430028D01*
X128940072Y-92489077D01*
X128915818Y-92514457D01*
X128854294Y-92549887D01*
X128783381Y-92546430D01*
X128725595Y-92505184D01*
X128706742Y-92471636D01*
X128665302Y-92361096D01*
X128662150Y-92352688D01*
X128574796Y-92236132D01*
X128458240Y-92148778D01*
X128321851Y-92097648D01*
X128259669Y-92090893D01*
X126463401Y-92090893D01*
X126401219Y-92097648D01*
X126264830Y-92148778D01*
X126148274Y-92236132D01*
X126060920Y-92352688D01*
X126009790Y-92489077D01*
X126003035Y-92551259D01*
X126003035Y-94347527D01*
X109728500Y-94347527D01*
X109728500Y-91436695D01*
X203107251Y-91436695D01*
X203107548Y-91441848D01*
X203107548Y-91441851D01*
X203113011Y-91536590D01*
X203120110Y-91659715D01*
X203121247Y-91664761D01*
X203121248Y-91664767D01*
X203141119Y-91752939D01*
X203169222Y-91877639D01*
X203253266Y-92084616D01*
X203257113Y-92090893D01*
X203350515Y-92243312D01*
X203369987Y-92275088D01*
X203516250Y-92443938D01*
X203520230Y-92447242D01*
X203524981Y-92451187D01*
X203564616Y-92510090D01*
X203566113Y-92581071D01*
X203528997Y-92641593D01*
X203488724Y-92666112D01*
X203373295Y-92709385D01*
X203256739Y-92796739D01*
X203169385Y-92913295D01*
X203118255Y-93049684D01*
X203111500Y-93111866D01*
X203111500Y-94908134D01*
X203118255Y-94970316D01*
X203169385Y-95106705D01*
X203256739Y-95223261D01*
X203373295Y-95310615D01*
X203509684Y-95361745D01*
X203571866Y-95368500D01*
X205368134Y-95368500D01*
X205430316Y-95361745D01*
X205566705Y-95310615D01*
X205683261Y-95223261D01*
X205770615Y-95106705D01*
X205821745Y-94970316D01*
X205828500Y-94908134D01*
X205828500Y-93111866D01*
X205821745Y-93049684D01*
X205770615Y-92913295D01*
X205683261Y-92796739D01*
X205566705Y-92709385D01*
X205554132Y-92704672D01*
X205448203Y-92664960D01*
X205391439Y-92622318D01*
X205366739Y-92555756D01*
X205381947Y-92486408D01*
X205403493Y-92457727D01*
X205404962Y-92456263D01*
X205508096Y-92353489D01*
X205567594Y-92270689D01*
X205635435Y-92176277D01*
X205638453Y-92172077D01*
X205675660Y-92096795D01*
X205735136Y-91976453D01*
X205735137Y-91976451D01*
X205737430Y-91971811D01*
X205802370Y-91758069D01*
X205831529Y-91536590D01*
X205833156Y-91470000D01*
X205814852Y-91247361D01*
X205760431Y-91030702D01*
X205671354Y-90825840D01*
X205550014Y-90638277D01*
X205399670Y-90473051D01*
X205395619Y-90469852D01*
X205395615Y-90469848D01*
X205228414Y-90337800D01*
X205228410Y-90337798D01*
X205224359Y-90334598D01*
X205183053Y-90311796D01*
X205133084Y-90261364D01*
X205118312Y-90191921D01*
X205143428Y-90125516D01*
X205170780Y-90098909D01*
X205214603Y-90067650D01*
X205349860Y-89971173D01*
X205508096Y-89813489D01*
X205567594Y-89730689D01*
X205635435Y-89636277D01*
X205638453Y-89632077D01*
X205737430Y-89431811D01*
X205802370Y-89218069D01*
X205831529Y-88996590D01*
X205833156Y-88930000D01*
X205814852Y-88707361D01*
X205760431Y-88490702D01*
X205671354Y-88285840D01*
X205550014Y-88098277D01*
X205399670Y-87933051D01*
X205395619Y-87929852D01*
X205395615Y-87929848D01*
X205228414Y-87797800D01*
X205228410Y-87797798D01*
X205224359Y-87794598D01*
X205183053Y-87771796D01*
X205133084Y-87721364D01*
X205118312Y-87651921D01*
X205143428Y-87585516D01*
X205170780Y-87558909D01*
X205214603Y-87527650D01*
X205349860Y-87431173D01*
X205508096Y-87273489D01*
X205567594Y-87190689D01*
X205635435Y-87096277D01*
X205638453Y-87092077D01*
X205737430Y-86891811D01*
X205802370Y-86678069D01*
X205831529Y-86456590D01*
X205833156Y-86390000D01*
X205814852Y-86167361D01*
X205760431Y-85950702D01*
X205671354Y-85745840D01*
X205550014Y-85558277D01*
X205399670Y-85393051D01*
X205395619Y-85389852D01*
X205395615Y-85389848D01*
X205228414Y-85257800D01*
X205228410Y-85257798D01*
X205224359Y-85254598D01*
X205028789Y-85146638D01*
X205023920Y-85144914D01*
X205023916Y-85144912D01*
X204823087Y-85073795D01*
X204823083Y-85073794D01*
X204818212Y-85072069D01*
X204813119Y-85071162D01*
X204813116Y-85071161D01*
X204603373Y-85033800D01*
X204603367Y-85033799D01*
X204598284Y-85032894D01*
X204524452Y-85031992D01*
X204380081Y-85030228D01*
X204380079Y-85030228D01*
X204374911Y-85030165D01*
X204154091Y-85063955D01*
X203941756Y-85133357D01*
X203743607Y-85236507D01*
X203739474Y-85239610D01*
X203739471Y-85239612D01*
X203715247Y-85257800D01*
X203564965Y-85370635D01*
X203410629Y-85532138D01*
X203284743Y-85716680D01*
X203190688Y-85919305D01*
X203130989Y-86134570D01*
X203107251Y-86356695D01*
X203107548Y-86361848D01*
X203107548Y-86361851D01*
X203113011Y-86456590D01*
X203120110Y-86579715D01*
X203121247Y-86584761D01*
X203121248Y-86584767D01*
X203141119Y-86672939D01*
X203169222Y-86797639D01*
X203253266Y-87004616D01*
X203369987Y-87195088D01*
X203516250Y-87363938D01*
X203688126Y-87506632D01*
X203758595Y-87547811D01*
X203761445Y-87549476D01*
X203810169Y-87601114D01*
X203823240Y-87670897D01*
X203796509Y-87736669D01*
X203756055Y-87770027D01*
X203743607Y-87776507D01*
X203739474Y-87779610D01*
X203739471Y-87779612D01*
X203715247Y-87797800D01*
X203564965Y-87910635D01*
X203410629Y-88072138D01*
X203284743Y-88256680D01*
X203190688Y-88459305D01*
X203130989Y-88674570D01*
X203107251Y-88896695D01*
X203107548Y-88901848D01*
X203107548Y-88901851D01*
X203113011Y-88996590D01*
X203120110Y-89119715D01*
X203121247Y-89124761D01*
X203121248Y-89124767D01*
X203141119Y-89212939D01*
X203169222Y-89337639D01*
X203253266Y-89544616D01*
X203369987Y-89735088D01*
X203516250Y-89903938D01*
X203688126Y-90046632D01*
X203758595Y-90087811D01*
X203761445Y-90089476D01*
X203810169Y-90141114D01*
X203823240Y-90210897D01*
X203796509Y-90276669D01*
X203756055Y-90310027D01*
X203743607Y-90316507D01*
X203739474Y-90319610D01*
X203739471Y-90319612D01*
X203715247Y-90337800D01*
X203564965Y-90450635D01*
X203410629Y-90612138D01*
X203284743Y-90796680D01*
X203190688Y-90999305D01*
X203130989Y-91214570D01*
X203107251Y-91436695D01*
X109728500Y-91436695D01*
X109728500Y-77724000D01*
X111094411Y-77724000D01*
X111114754Y-78112176D01*
X111175562Y-78496099D01*
X111276167Y-78871562D01*
X111415468Y-79234453D01*
X111591938Y-79580794D01*
X111803643Y-79906793D01*
X112048266Y-80208876D01*
X112323124Y-80483734D01*
X112625207Y-80728357D01*
X112951205Y-80940062D01*
X112954139Y-80941557D01*
X112954146Y-80941561D01*
X113294607Y-81115034D01*
X113297547Y-81116532D01*
X113660438Y-81255833D01*
X114035901Y-81356438D01*
X114239793Y-81388732D01*
X114416576Y-81416732D01*
X114416584Y-81416733D01*
X114419824Y-81417246D01*
X114808000Y-81437589D01*
X115196176Y-81417246D01*
X115199416Y-81416733D01*
X115199424Y-81416732D01*
X115376207Y-81388732D01*
X115580099Y-81356438D01*
X115955562Y-81255833D01*
X116318453Y-81116532D01*
X116321393Y-81115034D01*
X116661854Y-80941561D01*
X116661861Y-80941557D01*
X116664795Y-80940062D01*
X116990793Y-80728357D01*
X117292876Y-80483734D01*
X117567734Y-80208876D01*
X117812357Y-79906793D01*
X118024062Y-79580794D01*
X118200532Y-79234453D01*
X118339833Y-78871562D01*
X118440438Y-78496099D01*
X118501246Y-78112176D01*
X118521589Y-77724000D01*
X200121411Y-77724000D01*
X200141754Y-78112176D01*
X200202562Y-78496099D01*
X200303167Y-78871562D01*
X200442468Y-79234453D01*
X200618938Y-79580794D01*
X200830643Y-79906793D01*
X201075266Y-80208876D01*
X201350124Y-80483734D01*
X201652207Y-80728357D01*
X201978205Y-80940062D01*
X201981139Y-80941557D01*
X201981146Y-80941561D01*
X202321607Y-81115034D01*
X202324547Y-81116532D01*
X202687438Y-81255833D01*
X203062901Y-81356438D01*
X203266793Y-81388732D01*
X203443576Y-81416732D01*
X203443584Y-81416733D01*
X203446824Y-81417246D01*
X203835000Y-81437589D01*
X204223176Y-81417246D01*
X204226416Y-81416733D01*
X204226424Y-81416732D01*
X204403207Y-81388732D01*
X204607099Y-81356438D01*
X204982562Y-81255833D01*
X205345453Y-81116532D01*
X205348393Y-81115034D01*
X205688854Y-80941561D01*
X205688861Y-80941557D01*
X205691795Y-80940062D01*
X206017793Y-80728357D01*
X206319876Y-80483734D01*
X206594734Y-80208876D01*
X206839357Y-79906793D01*
X207051062Y-79580794D01*
X207227532Y-79234453D01*
X207366833Y-78871562D01*
X207467438Y-78496099D01*
X207528246Y-78112176D01*
X207548589Y-77724000D01*
X207528246Y-77335824D01*
X207467438Y-76951901D01*
X207366833Y-76576438D01*
X207364717Y-76570924D01*
X207312366Y-76434547D01*
X207227532Y-76213547D01*
X207051062Y-75867206D01*
X206922602Y-75669393D01*
X206841152Y-75543971D01*
X206841152Y-75543970D01*
X206839357Y-75541207D01*
X206594734Y-75239124D01*
X206319876Y-74964266D01*
X206017793Y-74719643D01*
X205951563Y-74676633D01*
X205694564Y-74509736D01*
X205694561Y-74509734D01*
X205691795Y-74507938D01*
X205688861Y-74506443D01*
X205688854Y-74506439D01*
X205348393Y-74332966D01*
X205345453Y-74331468D01*
X204982562Y-74192167D01*
X204607099Y-74091562D01*
X204403207Y-74059268D01*
X204226424Y-74031268D01*
X204226416Y-74031267D01*
X204223176Y-74030754D01*
X203835000Y-74010411D01*
X203446824Y-74030754D01*
X203443584Y-74031267D01*
X203443576Y-74031268D01*
X203266793Y-74059268D01*
X203062901Y-74091562D01*
X202687438Y-74192167D01*
X202324547Y-74331468D01*
X202321607Y-74332966D01*
X201981147Y-74506439D01*
X201981140Y-74506443D01*
X201978206Y-74507938D01*
X201975440Y-74509734D01*
X201975437Y-74509736D01*
X201679871Y-74701678D01*
X201652207Y-74719643D01*
X201350124Y-74964266D01*
X201075266Y-75239124D01*
X200830643Y-75541207D01*
X200828848Y-75543970D01*
X200828848Y-75543971D01*
X200747399Y-75669393D01*
X200618938Y-75867206D01*
X200442468Y-76213547D01*
X200357634Y-76434547D01*
X200305284Y-76570924D01*
X200303167Y-76576438D01*
X200202562Y-76951901D01*
X200141754Y-77335824D01*
X200121411Y-77724000D01*
X118521589Y-77724000D01*
X118501246Y-77335824D01*
X118440438Y-76951901D01*
X118339833Y-76576438D01*
X118337717Y-76570924D01*
X118336413Y-76567527D01*
X126003035Y-76567527D01*
X126009790Y-76629709D01*
X126060920Y-76766098D01*
X126148274Y-76882654D01*
X126264830Y-76970008D01*
X126401219Y-77021138D01*
X126463401Y-77027893D01*
X128259669Y-77027893D01*
X128321851Y-77021138D01*
X128458240Y-76970008D01*
X128574796Y-76882654D01*
X128662150Y-76766098D01*
X128706333Y-76648241D01*
X128748975Y-76591477D01*
X128815536Y-76566777D01*
X128884885Y-76581985D01*
X128919552Y-76609973D01*
X128944753Y-76639066D01*
X128952115Y-76646276D01*
X129115969Y-76782309D01*
X129124416Y-76788224D01*
X129308291Y-76895672D01*
X129317577Y-76900122D01*
X129516536Y-76976096D01*
X129526434Y-76978972D01*
X129629785Y-76999999D01*
X129643834Y-76998803D01*
X129647535Y-76988458D01*
X129647535Y-76987910D01*
X130155535Y-76987910D01*
X130159599Y-77001752D01*
X130173013Y-77003786D01*
X130179719Y-77002927D01*
X130189797Y-77000785D01*
X130393790Y-76939584D01*
X130403377Y-76935826D01*
X130594630Y-76842132D01*
X130603480Y-76836857D01*
X130776863Y-76713185D01*
X130784735Y-76706532D01*
X130935587Y-76556205D01*
X130942265Y-76548358D01*
X131069557Y-76371212D01*
X131070814Y-76372115D01*
X131117908Y-76328755D01*
X131187846Y-76316538D01*
X131253286Y-76344071D01*
X131281114Y-76375904D01*
X131341522Y-76474481D01*
X131487785Y-76643331D01*
X131659661Y-76786025D01*
X131852535Y-76898731D01*
X132061227Y-76978423D01*
X132066295Y-76979454D01*
X132066298Y-76979455D01*
X132161397Y-76998803D01*
X132280132Y-77022960D01*
X132285307Y-77023150D01*
X132285309Y-77023150D01*
X132498208Y-77030957D01*
X132498212Y-77030957D01*
X132503372Y-77031146D01*
X132508492Y-77030490D01*
X132508494Y-77030490D01*
X132719823Y-77003418D01*
X132719824Y-77003418D01*
X132724951Y-77002761D01*
X132729901Y-77001276D01*
X132933964Y-76940054D01*
X132933969Y-76940052D01*
X132938919Y-76938567D01*
X133139529Y-76840289D01*
X133321395Y-76710566D01*
X133479631Y-76552882D01*
X133609988Y-76371470D01*
X133611311Y-76372421D01*
X133658180Y-76329250D01*
X133728115Y-76317018D01*
X133793561Y-76344537D01*
X133821410Y-76376387D01*
X133881522Y-76474481D01*
X134027785Y-76643331D01*
X134199661Y-76786025D01*
X134392535Y-76898731D01*
X134601227Y-76978423D01*
X134606295Y-76979454D01*
X134606298Y-76979455D01*
X134701397Y-76998803D01*
X134820132Y-77022960D01*
X134825307Y-77023150D01*
X134825309Y-77023150D01*
X135038208Y-77030957D01*
X135038212Y-77030957D01*
X135043372Y-77031146D01*
X135048492Y-77030490D01*
X135048494Y-77030490D01*
X135259823Y-77003418D01*
X135259824Y-77003418D01*
X135264951Y-77002761D01*
X135269901Y-77001276D01*
X135473964Y-76940054D01*
X135473969Y-76940052D01*
X135478919Y-76938567D01*
X135679529Y-76840289D01*
X135861395Y-76710566D01*
X136019631Y-76552882D01*
X136149988Y-76371470D01*
X136151311Y-76372421D01*
X136198180Y-76329250D01*
X136268115Y-76317018D01*
X136333561Y-76344537D01*
X136361410Y-76376387D01*
X136421522Y-76474481D01*
X136567785Y-76643331D01*
X136739661Y-76786025D01*
X136932535Y-76898731D01*
X137141227Y-76978423D01*
X137146295Y-76979454D01*
X137146298Y-76979455D01*
X137241397Y-76998803D01*
X137360132Y-77022960D01*
X137365307Y-77023150D01*
X137365309Y-77023150D01*
X137578208Y-77030957D01*
X137578212Y-77030957D01*
X137583372Y-77031146D01*
X137588492Y-77030490D01*
X137588494Y-77030490D01*
X137799823Y-77003418D01*
X137799824Y-77003418D01*
X137804951Y-77002761D01*
X137809901Y-77001276D01*
X138013964Y-76940054D01*
X138013969Y-76940052D01*
X138018919Y-76938567D01*
X138219529Y-76840289D01*
X138401395Y-76710566D01*
X138559631Y-76552882D01*
X138689988Y-76371470D01*
X138691311Y-76372421D01*
X138738180Y-76329250D01*
X138808115Y-76317018D01*
X138873561Y-76344537D01*
X138901410Y-76376387D01*
X138961522Y-76474481D01*
X139107785Y-76643331D01*
X139279661Y-76786025D01*
X139472535Y-76898731D01*
X139681227Y-76978423D01*
X139686295Y-76979454D01*
X139686298Y-76979455D01*
X139781397Y-76998803D01*
X139900132Y-77022960D01*
X139905307Y-77023150D01*
X139905309Y-77023150D01*
X140118208Y-77030957D01*
X140118212Y-77030957D01*
X140123372Y-77031146D01*
X140128492Y-77030490D01*
X140128494Y-77030490D01*
X140339823Y-77003418D01*
X140339824Y-77003418D01*
X140344951Y-77002761D01*
X140349901Y-77001276D01*
X140553964Y-76940054D01*
X140553969Y-76940052D01*
X140558919Y-76938567D01*
X140759529Y-76840289D01*
X140941395Y-76710566D01*
X141099631Y-76552882D01*
X141229988Y-76371470D01*
X141231311Y-76372421D01*
X141278180Y-76329250D01*
X141348115Y-76317018D01*
X141413561Y-76344537D01*
X141441410Y-76376387D01*
X141501522Y-76474481D01*
X141647785Y-76643331D01*
X141819661Y-76786025D01*
X142012535Y-76898731D01*
X142221227Y-76978423D01*
X142226295Y-76979454D01*
X142226298Y-76979455D01*
X142321397Y-76998803D01*
X142440132Y-77022960D01*
X142445307Y-77023150D01*
X142445309Y-77023150D01*
X142658208Y-77030957D01*
X142658212Y-77030957D01*
X142663372Y-77031146D01*
X142668492Y-77030490D01*
X142668494Y-77030490D01*
X142879823Y-77003418D01*
X142879824Y-77003418D01*
X142884951Y-77002761D01*
X142889901Y-77001276D01*
X143093964Y-76940054D01*
X143093969Y-76940052D01*
X143098919Y-76938567D01*
X143299529Y-76840289D01*
X143481395Y-76710566D01*
X143639631Y-76552882D01*
X143769988Y-76371470D01*
X143771311Y-76372421D01*
X143818180Y-76329250D01*
X143888115Y-76317018D01*
X143953561Y-76344537D01*
X143981410Y-76376387D01*
X144041522Y-76474481D01*
X144187785Y-76643331D01*
X144359661Y-76786025D01*
X144552535Y-76898731D01*
X144761227Y-76978423D01*
X144766295Y-76979454D01*
X144766298Y-76979455D01*
X144861397Y-76998803D01*
X144980132Y-77022960D01*
X144985307Y-77023150D01*
X144985309Y-77023150D01*
X145198208Y-77030957D01*
X145198212Y-77030957D01*
X145203372Y-77031146D01*
X145208492Y-77030490D01*
X145208494Y-77030490D01*
X145419823Y-77003418D01*
X145419824Y-77003418D01*
X145424951Y-77002761D01*
X145429901Y-77001276D01*
X145633964Y-76940054D01*
X145633969Y-76940052D01*
X145638919Y-76938567D01*
X145839529Y-76840289D01*
X146021395Y-76710566D01*
X146179631Y-76552882D01*
X146309988Y-76371470D01*
X146311311Y-76372421D01*
X146358180Y-76329250D01*
X146428115Y-76317018D01*
X146493561Y-76344537D01*
X146521410Y-76376387D01*
X146581522Y-76474481D01*
X146727785Y-76643331D01*
X146899661Y-76786025D01*
X147092535Y-76898731D01*
X147301227Y-76978423D01*
X147306295Y-76979454D01*
X147306298Y-76979455D01*
X147401397Y-76998803D01*
X147520132Y-77022960D01*
X147525307Y-77023150D01*
X147525309Y-77023150D01*
X147738208Y-77030957D01*
X147738212Y-77030957D01*
X147743372Y-77031146D01*
X147748492Y-77030490D01*
X147748494Y-77030490D01*
X147959823Y-77003418D01*
X147959824Y-77003418D01*
X147964951Y-77002761D01*
X147969901Y-77001276D01*
X148173964Y-76940054D01*
X148173969Y-76940052D01*
X148178919Y-76938567D01*
X148379529Y-76840289D01*
X148561395Y-76710566D01*
X148719631Y-76552882D01*
X148849988Y-76371470D01*
X148851311Y-76372421D01*
X148898180Y-76329250D01*
X148968115Y-76317018D01*
X149033561Y-76344537D01*
X149061410Y-76376387D01*
X149121522Y-76474481D01*
X149267785Y-76643331D01*
X149439661Y-76786025D01*
X149632535Y-76898731D01*
X149841227Y-76978423D01*
X149846295Y-76979454D01*
X149846298Y-76979455D01*
X149941397Y-76998803D01*
X150060132Y-77022960D01*
X150065307Y-77023150D01*
X150065309Y-77023150D01*
X150278208Y-77030957D01*
X150278212Y-77030957D01*
X150283372Y-77031146D01*
X150288492Y-77030490D01*
X150288494Y-77030490D01*
X150499823Y-77003418D01*
X150499824Y-77003418D01*
X150504951Y-77002761D01*
X150509901Y-77001276D01*
X150713964Y-76940054D01*
X150713969Y-76940052D01*
X150718919Y-76938567D01*
X150919529Y-76840289D01*
X151101395Y-76710566D01*
X151259631Y-76552882D01*
X151389988Y-76371470D01*
X151391311Y-76372421D01*
X151438180Y-76329250D01*
X151508115Y-76317018D01*
X151573561Y-76344537D01*
X151601410Y-76376387D01*
X151661522Y-76474481D01*
X151807785Y-76643331D01*
X151979661Y-76786025D01*
X152172535Y-76898731D01*
X152381227Y-76978423D01*
X152386295Y-76979454D01*
X152386298Y-76979455D01*
X152481397Y-76998803D01*
X152600132Y-77022960D01*
X152605307Y-77023150D01*
X152605309Y-77023150D01*
X152818208Y-77030957D01*
X152818212Y-77030957D01*
X152823372Y-77031146D01*
X152828492Y-77030490D01*
X152828494Y-77030490D01*
X153039823Y-77003418D01*
X153039824Y-77003418D01*
X153044951Y-77002761D01*
X153049901Y-77001276D01*
X153253964Y-76940054D01*
X153253969Y-76940052D01*
X153258919Y-76938567D01*
X153459529Y-76840289D01*
X153641395Y-76710566D01*
X153799631Y-76552882D01*
X153929988Y-76371470D01*
X153931311Y-76372421D01*
X153978180Y-76329250D01*
X154048115Y-76317018D01*
X154113561Y-76344537D01*
X154141410Y-76376387D01*
X154201522Y-76474481D01*
X154347785Y-76643331D01*
X154519661Y-76786025D01*
X154712535Y-76898731D01*
X154921227Y-76978423D01*
X154926295Y-76979454D01*
X154926298Y-76979455D01*
X155021397Y-76998803D01*
X155140132Y-77022960D01*
X155145307Y-77023150D01*
X155145309Y-77023150D01*
X155358208Y-77030957D01*
X155358212Y-77030957D01*
X155363372Y-77031146D01*
X155368492Y-77030490D01*
X155368494Y-77030490D01*
X155579823Y-77003418D01*
X155579824Y-77003418D01*
X155584951Y-77002761D01*
X155589901Y-77001276D01*
X155793964Y-76940054D01*
X155793969Y-76940052D01*
X155798919Y-76938567D01*
X155999529Y-76840289D01*
X156181395Y-76710566D01*
X156339631Y-76552882D01*
X156469988Y-76371470D01*
X156471311Y-76372421D01*
X156518180Y-76329250D01*
X156588115Y-76317018D01*
X156653561Y-76344537D01*
X156681410Y-76376387D01*
X156741522Y-76474481D01*
X156887785Y-76643331D01*
X157059661Y-76786025D01*
X157252535Y-76898731D01*
X157461227Y-76978423D01*
X157466295Y-76979454D01*
X157466298Y-76979455D01*
X157561397Y-76998803D01*
X157680132Y-77022960D01*
X157685307Y-77023150D01*
X157685309Y-77023150D01*
X157898208Y-77030957D01*
X157898212Y-77030957D01*
X157903372Y-77031146D01*
X157908492Y-77030490D01*
X157908494Y-77030490D01*
X158119823Y-77003418D01*
X158119824Y-77003418D01*
X158124951Y-77002761D01*
X158129901Y-77001276D01*
X158333964Y-76940054D01*
X158333969Y-76940052D01*
X158338919Y-76938567D01*
X158539529Y-76840289D01*
X158721395Y-76710566D01*
X158879631Y-76552882D01*
X159009988Y-76371470D01*
X159011311Y-76372421D01*
X159058180Y-76329250D01*
X159128115Y-76317018D01*
X159193561Y-76344537D01*
X159221410Y-76376387D01*
X159281522Y-76474481D01*
X159427785Y-76643331D01*
X159599661Y-76786025D01*
X159792535Y-76898731D01*
X160001227Y-76978423D01*
X160006295Y-76979454D01*
X160006298Y-76979455D01*
X160101397Y-76998803D01*
X160220132Y-77022960D01*
X160225307Y-77023150D01*
X160225309Y-77023150D01*
X160438208Y-77030957D01*
X160438212Y-77030957D01*
X160443372Y-77031146D01*
X160448492Y-77030490D01*
X160448494Y-77030490D01*
X160659823Y-77003418D01*
X160659824Y-77003418D01*
X160664951Y-77002761D01*
X160669901Y-77001276D01*
X160873964Y-76940054D01*
X160873969Y-76940052D01*
X160878919Y-76938567D01*
X161079529Y-76840289D01*
X161261395Y-76710566D01*
X161419631Y-76552882D01*
X161549988Y-76371470D01*
X161551311Y-76372421D01*
X161598180Y-76329250D01*
X161668115Y-76317018D01*
X161733561Y-76344537D01*
X161761410Y-76376387D01*
X161821522Y-76474481D01*
X161967785Y-76643331D01*
X162139661Y-76786025D01*
X162332535Y-76898731D01*
X162541227Y-76978423D01*
X162546295Y-76979454D01*
X162546298Y-76979455D01*
X162641397Y-76998803D01*
X162760132Y-77022960D01*
X162765307Y-77023150D01*
X162765309Y-77023150D01*
X162978208Y-77030957D01*
X162978212Y-77030957D01*
X162983372Y-77031146D01*
X162988492Y-77030490D01*
X162988494Y-77030490D01*
X163199823Y-77003418D01*
X163199824Y-77003418D01*
X163204951Y-77002761D01*
X163209901Y-77001276D01*
X163413964Y-76940054D01*
X163413969Y-76940052D01*
X163418919Y-76938567D01*
X163619529Y-76840289D01*
X163801395Y-76710566D01*
X163959631Y-76552882D01*
X164089988Y-76371470D01*
X164103530Y-76344071D01*
X164186671Y-76175846D01*
X164186672Y-76175844D01*
X164188965Y-76171204D01*
X164253905Y-75957462D01*
X164283064Y-75735983D01*
X164284691Y-75669393D01*
X164266387Y-75446754D01*
X164211966Y-75230095D01*
X164122889Y-75025233D01*
X164001549Y-74837670D01*
X163851205Y-74672444D01*
X163847154Y-74669245D01*
X163847150Y-74669241D01*
X163679949Y-74537193D01*
X163679945Y-74537191D01*
X163675894Y-74533991D01*
X163639563Y-74513935D01*
X163623671Y-74505162D01*
X163480324Y-74426031D01*
X163475455Y-74424307D01*
X163475451Y-74424305D01*
X163274622Y-74353188D01*
X163274618Y-74353187D01*
X163269747Y-74351462D01*
X163264654Y-74350555D01*
X163264651Y-74350554D01*
X163054908Y-74313193D01*
X163054902Y-74313192D01*
X163049819Y-74312287D01*
X162975987Y-74311385D01*
X162831616Y-74309621D01*
X162831614Y-74309621D01*
X162826446Y-74309558D01*
X162605626Y-74343348D01*
X162393291Y-74412750D01*
X162195142Y-74515900D01*
X162191009Y-74519003D01*
X162191006Y-74519005D01*
X162020635Y-74646923D01*
X162016500Y-74650028D01*
X161862164Y-74811531D01*
X161754736Y-74969014D01*
X161699828Y-75014014D01*
X161629303Y-75022185D01*
X161565556Y-74990931D01*
X161544859Y-74966447D01*
X161464357Y-74842010D01*
X161464355Y-74842007D01*
X161461549Y-74837670D01*
X161311205Y-74672444D01*
X161307154Y-74669245D01*
X161307150Y-74669241D01*
X161139949Y-74537193D01*
X161139945Y-74537191D01*
X161135894Y-74533991D01*
X161099563Y-74513935D01*
X161083671Y-74505162D01*
X160940324Y-74426031D01*
X160935455Y-74424307D01*
X160935451Y-74424305D01*
X160734622Y-74353188D01*
X160734618Y-74353187D01*
X160729747Y-74351462D01*
X160724654Y-74350555D01*
X160724651Y-74350554D01*
X160514908Y-74313193D01*
X160514902Y-74313192D01*
X160509819Y-74312287D01*
X160435987Y-74311385D01*
X160291616Y-74309621D01*
X160291614Y-74309621D01*
X160286446Y-74309558D01*
X160065626Y-74343348D01*
X159853291Y-74412750D01*
X159655142Y-74515900D01*
X159651009Y-74519003D01*
X159651006Y-74519005D01*
X159480635Y-74646923D01*
X159476500Y-74650028D01*
X159322164Y-74811531D01*
X159214736Y-74969014D01*
X159159828Y-75014014D01*
X159089303Y-75022185D01*
X159025556Y-74990931D01*
X159004859Y-74966447D01*
X158924357Y-74842010D01*
X158924355Y-74842007D01*
X158921549Y-74837670D01*
X158771205Y-74672444D01*
X158767154Y-74669245D01*
X158767150Y-74669241D01*
X158599949Y-74537193D01*
X158599945Y-74537191D01*
X158595894Y-74533991D01*
X158559563Y-74513935D01*
X158543671Y-74505162D01*
X158400324Y-74426031D01*
X158395455Y-74424307D01*
X158395451Y-74424305D01*
X158194622Y-74353188D01*
X158194618Y-74353187D01*
X158189747Y-74351462D01*
X158184654Y-74350555D01*
X158184651Y-74350554D01*
X157974908Y-74313193D01*
X157974902Y-74313192D01*
X157969819Y-74312287D01*
X157895987Y-74311385D01*
X157751616Y-74309621D01*
X157751614Y-74309621D01*
X157746446Y-74309558D01*
X157525626Y-74343348D01*
X157313291Y-74412750D01*
X157115142Y-74515900D01*
X157111009Y-74519003D01*
X157111006Y-74519005D01*
X156940635Y-74646923D01*
X156936500Y-74650028D01*
X156782164Y-74811531D01*
X156674736Y-74969014D01*
X156619828Y-75014014D01*
X156549303Y-75022185D01*
X156485556Y-74990931D01*
X156464859Y-74966447D01*
X156384357Y-74842010D01*
X156384355Y-74842007D01*
X156381549Y-74837670D01*
X156231205Y-74672444D01*
X156227154Y-74669245D01*
X156227150Y-74669241D01*
X156059949Y-74537193D01*
X156059945Y-74537191D01*
X156055894Y-74533991D01*
X156019563Y-74513935D01*
X156003671Y-74505162D01*
X155860324Y-74426031D01*
X155855455Y-74424307D01*
X155855451Y-74424305D01*
X155654622Y-74353188D01*
X155654618Y-74353187D01*
X155649747Y-74351462D01*
X155644654Y-74350555D01*
X155644651Y-74350554D01*
X155434908Y-74313193D01*
X155434902Y-74313192D01*
X155429819Y-74312287D01*
X155355987Y-74311385D01*
X155211616Y-74309621D01*
X155211614Y-74309621D01*
X155206446Y-74309558D01*
X154985626Y-74343348D01*
X154773291Y-74412750D01*
X154575142Y-74515900D01*
X154571009Y-74519003D01*
X154571006Y-74519005D01*
X154400635Y-74646923D01*
X154396500Y-74650028D01*
X154242164Y-74811531D01*
X154134736Y-74969014D01*
X154079828Y-75014014D01*
X154009303Y-75022185D01*
X153945556Y-74990931D01*
X153924859Y-74966447D01*
X153844357Y-74842010D01*
X153844355Y-74842007D01*
X153841549Y-74837670D01*
X153691205Y-74672444D01*
X153687154Y-74669245D01*
X153687150Y-74669241D01*
X153519949Y-74537193D01*
X153519945Y-74537191D01*
X153515894Y-74533991D01*
X153479563Y-74513935D01*
X153463671Y-74505162D01*
X153320324Y-74426031D01*
X153315455Y-74424307D01*
X153315451Y-74424305D01*
X153114622Y-74353188D01*
X153114618Y-74353187D01*
X153109747Y-74351462D01*
X153104654Y-74350555D01*
X153104651Y-74350554D01*
X152894908Y-74313193D01*
X152894902Y-74313192D01*
X152889819Y-74312287D01*
X152815987Y-74311385D01*
X152671616Y-74309621D01*
X152671614Y-74309621D01*
X152666446Y-74309558D01*
X152445626Y-74343348D01*
X152233291Y-74412750D01*
X152035142Y-74515900D01*
X152031009Y-74519003D01*
X152031006Y-74519005D01*
X151860635Y-74646923D01*
X151856500Y-74650028D01*
X151702164Y-74811531D01*
X151594736Y-74969014D01*
X151539828Y-75014014D01*
X151469303Y-75022185D01*
X151405556Y-74990931D01*
X151384859Y-74966447D01*
X151304357Y-74842010D01*
X151304355Y-74842007D01*
X151301549Y-74837670D01*
X151151205Y-74672444D01*
X151147154Y-74669245D01*
X151147150Y-74669241D01*
X150979949Y-74537193D01*
X150979945Y-74537191D01*
X150975894Y-74533991D01*
X150939563Y-74513935D01*
X150923671Y-74505162D01*
X150780324Y-74426031D01*
X150775455Y-74424307D01*
X150775451Y-74424305D01*
X150574622Y-74353188D01*
X150574618Y-74353187D01*
X150569747Y-74351462D01*
X150564654Y-74350555D01*
X150564651Y-74350554D01*
X150354908Y-74313193D01*
X150354902Y-74313192D01*
X150349819Y-74312287D01*
X150275987Y-74311385D01*
X150131616Y-74309621D01*
X150131614Y-74309621D01*
X150126446Y-74309558D01*
X149905626Y-74343348D01*
X149693291Y-74412750D01*
X149495142Y-74515900D01*
X149491009Y-74519003D01*
X149491006Y-74519005D01*
X149320635Y-74646923D01*
X149316500Y-74650028D01*
X149162164Y-74811531D01*
X149054736Y-74969014D01*
X148999828Y-75014014D01*
X148929303Y-75022185D01*
X148865556Y-74990931D01*
X148844859Y-74966447D01*
X148764357Y-74842010D01*
X148764355Y-74842007D01*
X148761549Y-74837670D01*
X148611205Y-74672444D01*
X148607154Y-74669245D01*
X148607150Y-74669241D01*
X148439949Y-74537193D01*
X148439945Y-74537191D01*
X148435894Y-74533991D01*
X148399563Y-74513935D01*
X148383671Y-74505162D01*
X148240324Y-74426031D01*
X148235455Y-74424307D01*
X148235451Y-74424305D01*
X148034622Y-74353188D01*
X148034618Y-74353187D01*
X148029747Y-74351462D01*
X148024654Y-74350555D01*
X148024651Y-74350554D01*
X147814908Y-74313193D01*
X147814902Y-74313192D01*
X147809819Y-74312287D01*
X147735987Y-74311385D01*
X147591616Y-74309621D01*
X147591614Y-74309621D01*
X147586446Y-74309558D01*
X147365626Y-74343348D01*
X147153291Y-74412750D01*
X146955142Y-74515900D01*
X146951009Y-74519003D01*
X146951006Y-74519005D01*
X146780635Y-74646923D01*
X146776500Y-74650028D01*
X146622164Y-74811531D01*
X146514736Y-74969014D01*
X146459828Y-75014014D01*
X146389303Y-75022185D01*
X146325556Y-74990931D01*
X146304859Y-74966447D01*
X146224357Y-74842010D01*
X146224355Y-74842007D01*
X146221549Y-74837670D01*
X146071205Y-74672444D01*
X146067154Y-74669245D01*
X146067150Y-74669241D01*
X145899949Y-74537193D01*
X145899945Y-74537191D01*
X145895894Y-74533991D01*
X145859563Y-74513935D01*
X145843671Y-74505162D01*
X145700324Y-74426031D01*
X145695455Y-74424307D01*
X145695451Y-74424305D01*
X145494622Y-74353188D01*
X145494618Y-74353187D01*
X145489747Y-74351462D01*
X145484654Y-74350555D01*
X145484651Y-74350554D01*
X145274908Y-74313193D01*
X145274902Y-74313192D01*
X145269819Y-74312287D01*
X145195987Y-74311385D01*
X145051616Y-74309621D01*
X145051614Y-74309621D01*
X145046446Y-74309558D01*
X144825626Y-74343348D01*
X144613291Y-74412750D01*
X144415142Y-74515900D01*
X144411009Y-74519003D01*
X144411006Y-74519005D01*
X144240635Y-74646923D01*
X144236500Y-74650028D01*
X144082164Y-74811531D01*
X143974736Y-74969014D01*
X143919828Y-75014014D01*
X143849303Y-75022185D01*
X143785556Y-74990931D01*
X143764859Y-74966447D01*
X143684357Y-74842010D01*
X143684355Y-74842007D01*
X143681549Y-74837670D01*
X143531205Y-74672444D01*
X143527154Y-74669245D01*
X143527150Y-74669241D01*
X143359949Y-74537193D01*
X143359945Y-74537191D01*
X143355894Y-74533991D01*
X143319563Y-74513935D01*
X143303671Y-74505162D01*
X143160324Y-74426031D01*
X143155455Y-74424307D01*
X143155451Y-74424305D01*
X142954622Y-74353188D01*
X142954618Y-74353187D01*
X142949747Y-74351462D01*
X142944654Y-74350555D01*
X142944651Y-74350554D01*
X142734908Y-74313193D01*
X142734902Y-74313192D01*
X142729819Y-74312287D01*
X142655987Y-74311385D01*
X142511616Y-74309621D01*
X142511614Y-74309621D01*
X142506446Y-74309558D01*
X142285626Y-74343348D01*
X142073291Y-74412750D01*
X141875142Y-74515900D01*
X141871009Y-74519003D01*
X141871006Y-74519005D01*
X141700635Y-74646923D01*
X141696500Y-74650028D01*
X141542164Y-74811531D01*
X141434736Y-74969014D01*
X141379828Y-75014014D01*
X141309303Y-75022185D01*
X141245556Y-74990931D01*
X141224859Y-74966447D01*
X141144357Y-74842010D01*
X141144355Y-74842007D01*
X141141549Y-74837670D01*
X140991205Y-74672444D01*
X140987154Y-74669245D01*
X140987150Y-74669241D01*
X140819949Y-74537193D01*
X140819945Y-74537191D01*
X140815894Y-74533991D01*
X140779563Y-74513935D01*
X140763671Y-74505162D01*
X140620324Y-74426031D01*
X140615455Y-74424307D01*
X140615451Y-74424305D01*
X140414622Y-74353188D01*
X140414618Y-74353187D01*
X140409747Y-74351462D01*
X140404654Y-74350555D01*
X140404651Y-74350554D01*
X140194908Y-74313193D01*
X140194902Y-74313192D01*
X140189819Y-74312287D01*
X140115987Y-74311385D01*
X139971616Y-74309621D01*
X139971614Y-74309621D01*
X139966446Y-74309558D01*
X139745626Y-74343348D01*
X139533291Y-74412750D01*
X139335142Y-74515900D01*
X139331009Y-74519003D01*
X139331006Y-74519005D01*
X139160635Y-74646923D01*
X139156500Y-74650028D01*
X139002164Y-74811531D01*
X138894736Y-74969014D01*
X138839828Y-75014014D01*
X138769303Y-75022185D01*
X138705556Y-74990931D01*
X138684859Y-74966447D01*
X138604357Y-74842010D01*
X138604355Y-74842007D01*
X138601549Y-74837670D01*
X138451205Y-74672444D01*
X138447154Y-74669245D01*
X138447150Y-74669241D01*
X138279949Y-74537193D01*
X138279945Y-74537191D01*
X138275894Y-74533991D01*
X138239563Y-74513935D01*
X138223671Y-74505162D01*
X138080324Y-74426031D01*
X138075455Y-74424307D01*
X138075451Y-74424305D01*
X137874622Y-74353188D01*
X137874618Y-74353187D01*
X137869747Y-74351462D01*
X137864654Y-74350555D01*
X137864651Y-74350554D01*
X137654908Y-74313193D01*
X137654902Y-74313192D01*
X137649819Y-74312287D01*
X137575987Y-74311385D01*
X137431616Y-74309621D01*
X137431614Y-74309621D01*
X137426446Y-74309558D01*
X137205626Y-74343348D01*
X136993291Y-74412750D01*
X136795142Y-74515900D01*
X136791009Y-74519003D01*
X136791006Y-74519005D01*
X136620635Y-74646923D01*
X136616500Y-74650028D01*
X136462164Y-74811531D01*
X136354736Y-74969014D01*
X136299828Y-75014014D01*
X136229303Y-75022185D01*
X136165556Y-74990931D01*
X136144859Y-74966447D01*
X136064357Y-74842010D01*
X136064355Y-74842007D01*
X136061549Y-74837670D01*
X135911205Y-74672444D01*
X135907154Y-74669245D01*
X135907150Y-74669241D01*
X135739949Y-74537193D01*
X135739945Y-74537191D01*
X135735894Y-74533991D01*
X135699563Y-74513935D01*
X135683671Y-74505162D01*
X135540324Y-74426031D01*
X135535455Y-74424307D01*
X135535451Y-74424305D01*
X135334622Y-74353188D01*
X135334618Y-74353187D01*
X135329747Y-74351462D01*
X135324654Y-74350555D01*
X135324651Y-74350554D01*
X135114908Y-74313193D01*
X135114902Y-74313192D01*
X135109819Y-74312287D01*
X135035987Y-74311385D01*
X134891616Y-74309621D01*
X134891614Y-74309621D01*
X134886446Y-74309558D01*
X134665626Y-74343348D01*
X134453291Y-74412750D01*
X134255142Y-74515900D01*
X134251009Y-74519003D01*
X134251006Y-74519005D01*
X134080635Y-74646923D01*
X134076500Y-74650028D01*
X133922164Y-74811531D01*
X133814736Y-74969014D01*
X133759828Y-75014014D01*
X133689303Y-75022185D01*
X133625556Y-74990931D01*
X133604859Y-74966447D01*
X133524357Y-74842010D01*
X133524355Y-74842007D01*
X133521549Y-74837670D01*
X133371205Y-74672444D01*
X133367154Y-74669245D01*
X133367150Y-74669241D01*
X133199949Y-74537193D01*
X133199945Y-74537191D01*
X133195894Y-74533991D01*
X133159563Y-74513935D01*
X133143671Y-74505162D01*
X133000324Y-74426031D01*
X132995455Y-74424307D01*
X132995451Y-74424305D01*
X132794622Y-74353188D01*
X132794618Y-74353187D01*
X132789747Y-74351462D01*
X132784654Y-74350555D01*
X132784651Y-74350554D01*
X132574908Y-74313193D01*
X132574902Y-74313192D01*
X132569819Y-74312287D01*
X132495987Y-74311385D01*
X132351616Y-74309621D01*
X132351614Y-74309621D01*
X132346446Y-74309558D01*
X132125626Y-74343348D01*
X131913291Y-74412750D01*
X131715142Y-74515900D01*
X131711009Y-74519003D01*
X131711006Y-74519005D01*
X131540635Y-74646923D01*
X131536500Y-74650028D01*
X131382164Y-74811531D01*
X131274739Y-74969011D01*
X131274433Y-74969459D01*
X131219522Y-75014462D01*
X131148997Y-75022633D01*
X131085250Y-74991379D01*
X131064553Y-74966895D01*
X130983961Y-74842319D01*
X130977671Y-74834150D01*
X130834341Y-74676633D01*
X130826808Y-74669608D01*
X130659674Y-74537615D01*
X130651087Y-74531910D01*
X130464652Y-74428992D01*
X130455240Y-74424762D01*
X130254494Y-74353673D01*
X130244523Y-74351039D01*
X130173372Y-74338365D01*
X130160075Y-74339825D01*
X130155535Y-74354382D01*
X130155535Y-76987910D01*
X129647535Y-76987910D01*
X129647535Y-74352495D01*
X129643617Y-74339151D01*
X129629341Y-74337164D01*
X129590859Y-74343053D01*
X129580823Y-74345444D01*
X129378403Y-74411605D01*
X129368894Y-74415602D01*
X129179998Y-74513935D01*
X129171273Y-74519429D01*
X129000968Y-74647298D01*
X128993261Y-74654141D01*
X128916013Y-74734977D01*
X128854489Y-74770407D01*
X128783577Y-74766950D01*
X128725790Y-74725704D01*
X128706937Y-74692156D01*
X128665302Y-74581096D01*
X128662150Y-74572688D01*
X128574796Y-74456132D01*
X128458240Y-74368778D01*
X128321851Y-74317648D01*
X128259669Y-74310893D01*
X126463401Y-74310893D01*
X126401219Y-74317648D01*
X126264830Y-74368778D01*
X126148274Y-74456132D01*
X126060920Y-74572688D01*
X126009790Y-74709077D01*
X126003035Y-74771259D01*
X126003035Y-76567527D01*
X118336413Y-76567527D01*
X118285366Y-76434547D01*
X118200532Y-76213547D01*
X118024062Y-75867206D01*
X117895602Y-75669393D01*
X117814152Y-75543971D01*
X117814152Y-75543970D01*
X117812357Y-75541207D01*
X117567734Y-75239124D01*
X117292876Y-74964266D01*
X116990793Y-74719643D01*
X116924563Y-74676633D01*
X116667564Y-74509736D01*
X116667561Y-74509734D01*
X116664795Y-74507938D01*
X116661861Y-74506443D01*
X116661854Y-74506439D01*
X116321393Y-74332966D01*
X116318453Y-74331468D01*
X115955562Y-74192167D01*
X115580099Y-74091562D01*
X115376207Y-74059268D01*
X115199424Y-74031268D01*
X115199416Y-74031267D01*
X115196176Y-74030754D01*
X114808000Y-74010411D01*
X114419824Y-74030754D01*
X114416584Y-74031267D01*
X114416576Y-74031268D01*
X114239793Y-74059268D01*
X114035901Y-74091562D01*
X113660438Y-74192167D01*
X113297547Y-74331468D01*
X113294607Y-74332966D01*
X112954147Y-74506439D01*
X112954140Y-74506443D01*
X112951206Y-74507938D01*
X112948440Y-74509734D01*
X112948437Y-74509736D01*
X112652871Y-74701678D01*
X112625207Y-74719643D01*
X112323124Y-74964266D01*
X112048266Y-75239124D01*
X111803643Y-75541207D01*
X111801848Y-75543970D01*
X111801848Y-75543971D01*
X111720399Y-75669393D01*
X111591938Y-75867206D01*
X111415468Y-76213547D01*
X111330634Y-76434547D01*
X111278284Y-76570924D01*
X111276167Y-76576438D01*
X111175562Y-76951901D01*
X111114754Y-77335824D01*
X111094411Y-77724000D01*
X109728500Y-77724000D01*
X109728500Y-73024500D01*
X109748502Y-72956379D01*
X109802158Y-72909886D01*
X109854500Y-72898500D01*
X208280500Y-72898500D01*
X208348621Y-72918502D01*
G37*
G04 #@! TD.AperFunction*
M02*
