G04 #@! TF.GenerationSoftware,KiCad,Pcbnew,(6.0.9)*
G04 #@! TF.CreationDate,2023-02-20T10:38:45+01:00*
G04 #@! TF.ProjectId,sensorboard,73656e73-6f72-4626-9f61-72642e6b6963,rev?*
G04 #@! TF.SameCoordinates,Original*
G04 #@! TF.FileFunction,Legend,Top*
G04 #@! TF.FilePolarity,Positive*
%FSLAX46Y46*%
G04 Gerber Fmt 4.6, Leading zero omitted, Abs format (unit mm)*
G04 Created by KiCad (PCBNEW (6.0.9)) date 2023-02-20 10:38:45*
%MOMM*%
%LPD*%
G01*
G04 APERTURE LIST*
G04 Aperture macros list*
%AMRoundRect*
0 Rectangle with rounded corners*
0 $1 Rounding radius*
0 $2 $3 $4 $5 $6 $7 $8 $9 X,Y pos of 4 corners*
0 Add a 4 corners polygon primitive as box body*
4,1,4,$2,$3,$4,$5,$6,$7,$8,$9,$2,$3,0*
0 Add four circle primitives for the rounded corners*
1,1,$1+$1,$2,$3*
1,1,$1+$1,$4,$5*
1,1,$1+$1,$6,$7*
1,1,$1+$1,$8,$9*
0 Add four rect primitives between the rounded corners*
20,1,$1+$1,$2,$3,$4,$5,0*
20,1,$1+$1,$4,$5,$6,$7,0*
20,1,$1+$1,$6,$7,$8,$9,0*
20,1,$1+$1,$8,$9,$2,$3,0*%
G04 Aperture macros list end*
%ADD10C,0.100000*%
%ADD11C,0.150000*%
%ADD12C,0.080000*%
%ADD13C,0.120000*%
%ADD14C,0.127000*%
%ADD15C,0.200000*%
%ADD16C,0.010000*%
%ADD17RoundRect,0.250000X-0.350000X-0.450000X0.350000X-0.450000X0.350000X0.450000X-0.350000X0.450000X0*%
%ADD18R,1.700000X1.700000*%
%ADD19O,1.700000X1.700000*%
%ADD20C,0.800000*%
%ADD21C,6.400000*%
%ADD22RoundRect,0.250000X-0.337500X-0.475000X0.337500X-0.475000X0.337500X0.475000X-0.337500X0.475000X0*%
%ADD23R,0.550000X0.400000*%
%ADD24RoundRect,0.027000X-0.218000X-0.198000X0.218000X-0.198000X0.218000X0.198000X-0.218000X0.198000X0*%
%ADD25RoundRect,0.250000X0.337500X0.475000X-0.337500X0.475000X-0.337500X-0.475000X0.337500X-0.475000X0*%
%ADD26RoundRect,0.250000X-0.475000X0.337500X-0.475000X-0.337500X0.475000X-0.337500X0.475000X0.337500X0*%
%ADD27R,1.238000X1.238000*%
%ADD28C,1.238000*%
G04 APERTURE END LIST*
D10*
X202522142Y-89342857D02*
X202550714Y-89257142D01*
X202579285Y-89228571D01*
X202636428Y-89200000D01*
X202722142Y-89200000D01*
X202779285Y-89228571D01*
X202807857Y-89257142D01*
X202836428Y-89314285D01*
X202836428Y-89542857D01*
X202236428Y-89542857D01*
X202236428Y-89342857D01*
X202265000Y-89285714D01*
X202293571Y-89257142D01*
X202350714Y-89228571D01*
X202407857Y-89228571D01*
X202465000Y-89257142D01*
X202493571Y-89285714D01*
X202522142Y-89342857D01*
X202522142Y-89542857D01*
X202665000Y-88971428D02*
X202665000Y-88685714D01*
X202836428Y-89028571D02*
X202236428Y-88828571D01*
X202836428Y-88628571D01*
X202236428Y-88514285D02*
X202236428Y-88171428D01*
X202836428Y-88342857D02*
X202236428Y-88342857D01*
X173890000Y-105173428D02*
X173690000Y-104887714D01*
X173547142Y-105173428D02*
X173547142Y-104573428D01*
X173775714Y-104573428D01*
X173832857Y-104602000D01*
X173861428Y-104630571D01*
X173890000Y-104687714D01*
X173890000Y-104773428D01*
X173861428Y-104830571D01*
X173832857Y-104859142D01*
X173775714Y-104887714D01*
X173547142Y-104887714D01*
X174090000Y-104573428D02*
X174490000Y-105173428D01*
X174490000Y-104573428D02*
X174090000Y-105173428D01*
X178612857Y-104602000D02*
X178555714Y-104573428D01*
X178470000Y-104573428D01*
X178384285Y-104602000D01*
X178327142Y-104659142D01*
X178298571Y-104716285D01*
X178270000Y-104830571D01*
X178270000Y-104916285D01*
X178298571Y-105030571D01*
X178327142Y-105087714D01*
X178384285Y-105144857D01*
X178470000Y-105173428D01*
X178527142Y-105173428D01*
X178612857Y-105144857D01*
X178641428Y-105116285D01*
X178641428Y-104916285D01*
X178527142Y-104916285D01*
X178898571Y-105173428D02*
X178898571Y-104573428D01*
X179241428Y-105173428D01*
X179241428Y-104573428D01*
X179527142Y-105173428D02*
X179527142Y-104573428D01*
X179670000Y-104573428D01*
X179755714Y-104602000D01*
X179812857Y-104659142D01*
X179841428Y-104716285D01*
X179870000Y-104830571D01*
X179870000Y-104916285D01*
X179841428Y-105030571D01*
X179812857Y-105087714D01*
X179755714Y-105144857D01*
X179670000Y-105173428D01*
X179527142Y-105173428D01*
X202265000Y-86817142D02*
X202236428Y-86874285D01*
X202236428Y-86960000D01*
X202265000Y-87045714D01*
X202322142Y-87102857D01*
X202379285Y-87131428D01*
X202493571Y-87160000D01*
X202579285Y-87160000D01*
X202693571Y-87131428D01*
X202750714Y-87102857D01*
X202807857Y-87045714D01*
X202836428Y-86960000D01*
X202836428Y-86902857D01*
X202807857Y-86817142D01*
X202779285Y-86788571D01*
X202579285Y-86788571D01*
X202579285Y-86902857D01*
X202836428Y-86531428D02*
X202236428Y-86531428D01*
X202836428Y-86188571D01*
X202236428Y-86188571D01*
X202836428Y-85902857D02*
X202236428Y-85902857D01*
X202236428Y-85760000D01*
X202265000Y-85674285D01*
X202322142Y-85617142D01*
X202379285Y-85588571D01*
X202493571Y-85560000D01*
X202579285Y-85560000D01*
X202693571Y-85588571D01*
X202750714Y-85617142D01*
X202807857Y-85674285D01*
X202836428Y-85760000D01*
X202836428Y-85902857D01*
X170650000Y-104573428D02*
X170850000Y-105173428D01*
X171050000Y-104573428D01*
X171592857Y-105116285D02*
X171564285Y-105144857D01*
X171478571Y-105173428D01*
X171421428Y-105173428D01*
X171335714Y-105144857D01*
X171278571Y-105087714D01*
X171250000Y-105030571D01*
X171221428Y-104916285D01*
X171221428Y-104830571D01*
X171250000Y-104716285D01*
X171278571Y-104659142D01*
X171335714Y-104602000D01*
X171421428Y-104573428D01*
X171478571Y-104573428D01*
X171564285Y-104602000D01*
X171592857Y-104630571D01*
X172192857Y-105116285D02*
X172164285Y-105144857D01*
X172078571Y-105173428D01*
X172021428Y-105173428D01*
X171935714Y-105144857D01*
X171878571Y-105087714D01*
X171850000Y-105030571D01*
X171821428Y-104916285D01*
X171821428Y-104830571D01*
X171850000Y-104716285D01*
X171878571Y-104659142D01*
X171935714Y-104602000D01*
X172021428Y-104573428D01*
X172078571Y-104573428D01*
X172164285Y-104602000D01*
X172192857Y-104630571D01*
X202236428Y-94094285D02*
X202236428Y-94380000D01*
X202522142Y-94408571D01*
X202493571Y-94380000D01*
X202465000Y-94322857D01*
X202465000Y-94180000D01*
X202493571Y-94122857D01*
X202522142Y-94094285D01*
X202579285Y-94065714D01*
X202722142Y-94065714D01*
X202779285Y-94094285D01*
X202807857Y-94122857D01*
X202836428Y-94180000D01*
X202836428Y-94322857D01*
X202807857Y-94380000D01*
X202779285Y-94408571D01*
X202236428Y-93894285D02*
X202836428Y-93694285D01*
X202236428Y-93494285D01*
X202522142Y-91882857D02*
X202522142Y-91682857D01*
X202836428Y-91597142D02*
X202836428Y-91882857D01*
X202236428Y-91882857D01*
X202236428Y-91597142D01*
X202836428Y-91340000D02*
X202236428Y-91340000D01*
X202836428Y-90997142D01*
X202236428Y-90997142D01*
X176072857Y-104573428D02*
X176415714Y-104573428D01*
X176244285Y-105173428D02*
X176244285Y-104573428D01*
X176558571Y-104573428D02*
X176958571Y-105173428D01*
X176958571Y-104573428D02*
X176558571Y-105173428D01*
X147236666Y-98270190D02*
X147070000Y-98032095D01*
X146950952Y-98270190D02*
X146950952Y-97770190D01*
X147141428Y-97770190D01*
X147189047Y-97794000D01*
X147212857Y-97817809D01*
X147236666Y-97865428D01*
X147236666Y-97936857D01*
X147212857Y-97984476D01*
X147189047Y-98008285D01*
X147141428Y-98032095D01*
X146950952Y-98032095D01*
X147712857Y-98270190D02*
X147427142Y-98270190D01*
X147570000Y-98270190D02*
X147570000Y-97770190D01*
X147522380Y-97841619D01*
X147474761Y-97889238D01*
X147427142Y-97913047D01*
D11*
X170992857Y-99366428D02*
X170992857Y-99852142D01*
X171021428Y-99909285D01*
X171050000Y-99937857D01*
X171107142Y-99966428D01*
X171221428Y-99966428D01*
X171278571Y-99937857D01*
X171307142Y-99909285D01*
X171335714Y-99852142D01*
X171335714Y-99366428D01*
X171564285Y-99366428D02*
X171964285Y-99366428D01*
X171707142Y-99966428D01*
X135561428Y-104597142D02*
X136047142Y-104597142D01*
X136104285Y-104568571D01*
X136132857Y-104540000D01*
X136161428Y-104482857D01*
X136161428Y-104368571D01*
X136132857Y-104311428D01*
X136104285Y-104282857D01*
X136047142Y-104254285D01*
X135561428Y-104254285D01*
X136161428Y-103654285D02*
X136161428Y-103997142D01*
X136161428Y-103825714D02*
X135561428Y-103825714D01*
X135647142Y-103882857D01*
X135704285Y-103940000D01*
X135732857Y-103997142D01*
D10*
X142537666Y-98095571D02*
X142513857Y-98119380D01*
X142442428Y-98143190D01*
X142394809Y-98143190D01*
X142323380Y-98119380D01*
X142275761Y-98071761D01*
X142251952Y-98024142D01*
X142228142Y-97928904D01*
X142228142Y-97857476D01*
X142251952Y-97762238D01*
X142275761Y-97714619D01*
X142323380Y-97667000D01*
X142394809Y-97643190D01*
X142442428Y-97643190D01*
X142513857Y-97667000D01*
X142537666Y-97690809D01*
X142966238Y-97643190D02*
X142871000Y-97643190D01*
X142823380Y-97667000D01*
X142799571Y-97690809D01*
X142751952Y-97762238D01*
X142728142Y-97857476D01*
X142728142Y-98047952D01*
X142751952Y-98095571D01*
X142775761Y-98119380D01*
X142823380Y-98143190D01*
X142918619Y-98143190D01*
X142966238Y-98119380D01*
X142990047Y-98095571D01*
X143013857Y-98047952D01*
X143013857Y-97928904D01*
X142990047Y-97881285D01*
X142966238Y-97857476D01*
X142918619Y-97833666D01*
X142823380Y-97833666D01*
X142775761Y-97857476D01*
X142751952Y-97881285D01*
X142728142Y-97928904D01*
X142559166Y-101397571D02*
X142535357Y-101421380D01*
X142463928Y-101445190D01*
X142416309Y-101445190D01*
X142344880Y-101421380D01*
X142297261Y-101373761D01*
X142273452Y-101326142D01*
X142249642Y-101230904D01*
X142249642Y-101159476D01*
X142273452Y-101064238D01*
X142297261Y-101016619D01*
X142344880Y-100969000D01*
X142416309Y-100945190D01*
X142463928Y-100945190D01*
X142535357Y-100969000D01*
X142559166Y-100992809D01*
X143011547Y-100945190D02*
X142773452Y-100945190D01*
X142749642Y-101183285D01*
X142773452Y-101159476D01*
X142821071Y-101135666D01*
X142940119Y-101135666D01*
X142987738Y-101159476D01*
X143011547Y-101183285D01*
X143035357Y-101230904D01*
X143035357Y-101349952D01*
X143011547Y-101397571D01*
X142987738Y-101421380D01*
X142940119Y-101445190D01*
X142821071Y-101445190D01*
X142773452Y-101421380D01*
X142749642Y-101397571D01*
X152781047Y-99040190D02*
X152781047Y-99444952D01*
X152804857Y-99492571D01*
X152828666Y-99516380D01*
X152876285Y-99540190D01*
X152971523Y-99540190D01*
X153019142Y-99516380D01*
X153042952Y-99492571D01*
X153066761Y-99444952D01*
X153066761Y-99040190D01*
X153519142Y-99206857D02*
X153519142Y-99540190D01*
X153400095Y-99016380D02*
X153281047Y-99373523D01*
X153590571Y-99373523D01*
D11*
X203708095Y-95792380D02*
X203708095Y-96601904D01*
X203755714Y-96697142D01*
X203803333Y-96744761D01*
X203898571Y-96792380D01*
X204089047Y-96792380D01*
X204184285Y-96744761D01*
X204231904Y-96697142D01*
X204279523Y-96601904D01*
X204279523Y-95792380D01*
X205231904Y-95792380D02*
X204755714Y-95792380D01*
X204708095Y-96268571D01*
X204755714Y-96220952D01*
X204850952Y-96173333D01*
X205089047Y-96173333D01*
X205184285Y-96220952D01*
X205231904Y-96268571D01*
X205279523Y-96363809D01*
X205279523Y-96601904D01*
X205231904Y-96697142D01*
X205184285Y-96744761D01*
X205089047Y-96792380D01*
X204850952Y-96792380D01*
X204755714Y-96744761D01*
X204708095Y-96697142D01*
X185374392Y-95660821D02*
X185374392Y-96146535D01*
X185402963Y-96203678D01*
X185431535Y-96232250D01*
X185488677Y-96260821D01*
X185602963Y-96260821D01*
X185660106Y-96232250D01*
X185688677Y-96203678D01*
X185717249Y-96146535D01*
X185717249Y-95660821D01*
X186260106Y-95660821D02*
X186145820Y-95660821D01*
X186088677Y-95689393D01*
X186060106Y-95717964D01*
X186002963Y-95803678D01*
X185974392Y-95917964D01*
X185974392Y-96146535D01*
X186002963Y-96203678D01*
X186031535Y-96232250D01*
X186088677Y-96260821D01*
X186202963Y-96260821D01*
X186260106Y-96232250D01*
X186288677Y-96203678D01*
X186317249Y-96146535D01*
X186317249Y-96003678D01*
X186288677Y-95946535D01*
X186260106Y-95917964D01*
X186202963Y-95889393D01*
X186088677Y-95889393D01*
X186031535Y-95917964D01*
X186002963Y-95946535D01*
X185974392Y-96003678D01*
D10*
X154497999Y-78062690D02*
X154497999Y-77562690D01*
X154688475Y-77562690D01*
X154736094Y-77586500D01*
X154759904Y-77610309D01*
X154783713Y-77657928D01*
X154783713Y-77729357D01*
X154759904Y-77776976D01*
X154736094Y-77800785D01*
X154688475Y-77824595D01*
X154497999Y-77824595D01*
X154974189Y-77919833D02*
X155212285Y-77919833D01*
X154926570Y-78062690D02*
X155093237Y-77562690D01*
X155259904Y-78062690D01*
X155688475Y-78062690D02*
X155402761Y-78062690D01*
X155545618Y-78062690D02*
X155545618Y-77562690D01*
X155497999Y-77634119D01*
X155450380Y-77681738D01*
X155402761Y-77705547D01*
X155855142Y-77562690D02*
X156188475Y-77562690D01*
X155974189Y-78062690D01*
X113770618Y-85535976D02*
X114175380Y-85535976D01*
X114222999Y-85512166D01*
X114246808Y-85488357D01*
X114270618Y-85440738D01*
X114270618Y-85345500D01*
X114246808Y-85297880D01*
X114222999Y-85274071D01*
X114175380Y-85250261D01*
X113770618Y-85250261D01*
X114246808Y-85035976D02*
X114270618Y-84964547D01*
X114270618Y-84845500D01*
X114246808Y-84797880D01*
X114222999Y-84774071D01*
X114175380Y-84750261D01*
X114127761Y-84750261D01*
X114080142Y-84774071D01*
X114056332Y-84797880D01*
X114032523Y-84845500D01*
X114008713Y-84940738D01*
X113984904Y-84988357D01*
X113961094Y-85012166D01*
X113913475Y-85035976D01*
X113865856Y-85035976D01*
X113818237Y-85012166D01*
X113794428Y-84988357D01*
X113770618Y-84940738D01*
X113770618Y-84821690D01*
X113794428Y-84750261D01*
X114008713Y-84369309D02*
X114032523Y-84297880D01*
X114056332Y-84274071D01*
X114103951Y-84250261D01*
X114175380Y-84250261D01*
X114222999Y-84274071D01*
X114246808Y-84297880D01*
X114270618Y-84345500D01*
X114270618Y-84535976D01*
X113770618Y-84535976D01*
X113770618Y-84369309D01*
X113794428Y-84321690D01*
X113818237Y-84297880D01*
X113865856Y-84274071D01*
X113913475Y-84274071D01*
X113961094Y-84297880D01*
X113984904Y-84321690D01*
X114008713Y-84369309D01*
X114008713Y-84535976D01*
X114080142Y-84035976D02*
X114080142Y-83655023D01*
X114222999Y-83131214D02*
X114246808Y-83155023D01*
X114270618Y-83226452D01*
X114270618Y-83274071D01*
X114246808Y-83345500D01*
X114199189Y-83393119D01*
X114151570Y-83416928D01*
X114056332Y-83440738D01*
X113984904Y-83440738D01*
X113889666Y-83416928D01*
X113842047Y-83393119D01*
X113794428Y-83345500D01*
X113770618Y-83274071D01*
X113770618Y-83226452D01*
X113794428Y-83155023D01*
X113818237Y-83131214D01*
X196400890Y-83005453D02*
X196234223Y-82767358D01*
X196115175Y-83005453D02*
X196115175Y-82505453D01*
X196305652Y-82505453D01*
X196353271Y-82529263D01*
X196377080Y-82553072D01*
X196400890Y-82600691D01*
X196400890Y-82672120D01*
X196377080Y-82719739D01*
X196353271Y-82743548D01*
X196305652Y-82767358D01*
X196115175Y-82767358D01*
X196781842Y-82743548D02*
X196615175Y-82743548D01*
X196615175Y-83005453D02*
X196615175Y-82505453D01*
X196853271Y-82505453D01*
X162117999Y-78062690D02*
X162117999Y-77562690D01*
X162308475Y-77562690D01*
X162356094Y-77586500D01*
X162379904Y-77610309D01*
X162403713Y-77657928D01*
X162403713Y-77729357D01*
X162379904Y-77776976D01*
X162356094Y-77800785D01*
X162308475Y-77824595D01*
X162117999Y-77824595D01*
X162594189Y-77919833D02*
X162832285Y-77919833D01*
X162546570Y-78062690D02*
X162713237Y-77562690D01*
X162879904Y-78062690D01*
X163308475Y-78062690D02*
X163022761Y-78062690D01*
X163165618Y-78062690D02*
X163165618Y-77562690D01*
X163117999Y-77634119D01*
X163070380Y-77681738D01*
X163022761Y-77705547D01*
X163737047Y-77729357D02*
X163737047Y-78062690D01*
X163617999Y-77538880D02*
X163498951Y-77896023D01*
X163808475Y-77896023D01*
X140900856Y-90945309D02*
X140900856Y-91445309D01*
X140710380Y-91445309D01*
X140662761Y-91421500D01*
X140638951Y-91397690D01*
X140615142Y-91350071D01*
X140615142Y-91278642D01*
X140638951Y-91231023D01*
X140662761Y-91207214D01*
X140710380Y-91183404D01*
X140900856Y-91183404D01*
X140424666Y-91088166D02*
X140186570Y-91088166D01*
X140472285Y-90945309D02*
X140305618Y-91445309D01*
X140138951Y-90945309D01*
X139877047Y-91445309D02*
X139829428Y-91445309D01*
X139781808Y-91421500D01*
X139757999Y-91397690D01*
X139734189Y-91350071D01*
X139710380Y-91254833D01*
X139710380Y-91135785D01*
X139734189Y-91040547D01*
X139757999Y-90992928D01*
X139781808Y-90969119D01*
X139829428Y-90945309D01*
X139877047Y-90945309D01*
X139924666Y-90969119D01*
X139948475Y-90992928D01*
X139972285Y-91040547D01*
X139996094Y-91135785D01*
X139996094Y-91254833D01*
X139972285Y-91350071D01*
X139948475Y-91397690D01*
X139924666Y-91421500D01*
X139877047Y-91445309D01*
X139281808Y-91278642D02*
X139281808Y-90945309D01*
X139400856Y-91469119D02*
X139519904Y-91111976D01*
X139210380Y-91111976D01*
X127760380Y-91421500D02*
X127807999Y-91445309D01*
X127879428Y-91445309D01*
X127950856Y-91421500D01*
X127998475Y-91373880D01*
X128022285Y-91326261D01*
X128046094Y-91231023D01*
X128046094Y-91159595D01*
X128022285Y-91064357D01*
X127998475Y-91016738D01*
X127950856Y-90969119D01*
X127879428Y-90945309D01*
X127831808Y-90945309D01*
X127760380Y-90969119D01*
X127736570Y-90992928D01*
X127736570Y-91159595D01*
X127831808Y-91159595D01*
X127522285Y-90945309D02*
X127522285Y-91445309D01*
X127236570Y-90945309D01*
X127236570Y-91445309D01*
X126998475Y-90945309D02*
X126998475Y-91445309D01*
X126879428Y-91445309D01*
X126807999Y-91421500D01*
X126760380Y-91373880D01*
X126736570Y-91326261D01*
X126712761Y-91231023D01*
X126712761Y-91159595D01*
X126736570Y-91064357D01*
X126760380Y-91016738D01*
X126807999Y-90969119D01*
X126879428Y-90945309D01*
X126998475Y-90945309D01*
X130740856Y-90945309D02*
X130740856Y-91445309D01*
X130550380Y-91445309D01*
X130502761Y-91421500D01*
X130478951Y-91397690D01*
X130455142Y-91350071D01*
X130455142Y-91278642D01*
X130478951Y-91231023D01*
X130502761Y-91207214D01*
X130550380Y-91183404D01*
X130740856Y-91183404D01*
X130264666Y-91088166D02*
X130026570Y-91088166D01*
X130312285Y-90945309D02*
X130145618Y-91445309D01*
X129978951Y-90945309D01*
X129717047Y-91445309D02*
X129669428Y-91445309D01*
X129621808Y-91421500D01*
X129597999Y-91397690D01*
X129574189Y-91350071D01*
X129550380Y-91254833D01*
X129550380Y-91135785D01*
X129574189Y-91040547D01*
X129597999Y-90992928D01*
X129621808Y-90969119D01*
X129669428Y-90945309D01*
X129717047Y-90945309D01*
X129764666Y-90969119D01*
X129788475Y-90992928D01*
X129812285Y-91040547D01*
X129836094Y-91135785D01*
X129836094Y-91254833D01*
X129812285Y-91350071D01*
X129788475Y-91397690D01*
X129764666Y-91421500D01*
X129717047Y-91445309D01*
X129359904Y-91397690D02*
X129336094Y-91421500D01*
X129288475Y-91445309D01*
X129169428Y-91445309D01*
X129121808Y-91421500D01*
X129097999Y-91397690D01*
X129074189Y-91350071D01*
X129074189Y-91302452D01*
X129097999Y-91231023D01*
X129383713Y-90945309D01*
X129074189Y-90945309D01*
X134142285Y-78062690D02*
X134142285Y-77562690D01*
X134332761Y-77562690D01*
X134380380Y-77586500D01*
X134404189Y-77610309D01*
X134427999Y-77657928D01*
X134427999Y-77729357D01*
X134404189Y-77776976D01*
X134380380Y-77800785D01*
X134332761Y-77824595D01*
X134142285Y-77824595D01*
X134808951Y-77800785D02*
X134880380Y-77824595D01*
X134904189Y-77848404D01*
X134927999Y-77896023D01*
X134927999Y-77967452D01*
X134904189Y-78015071D01*
X134880380Y-78038880D01*
X134832761Y-78062690D01*
X134642285Y-78062690D01*
X134642285Y-77562690D01*
X134808951Y-77562690D01*
X134856570Y-77586500D01*
X134880380Y-77610309D01*
X134904189Y-77657928D01*
X134904189Y-77705547D01*
X134880380Y-77753166D01*
X134856570Y-77776976D01*
X134808951Y-77800785D01*
X134642285Y-77800785D01*
X135237523Y-77562690D02*
X135285142Y-77562690D01*
X135332761Y-77586500D01*
X135356570Y-77610309D01*
X135380380Y-77657928D01*
X135404189Y-77753166D01*
X135404189Y-77872214D01*
X135380380Y-77967452D01*
X135356570Y-78015071D01*
X135332761Y-78038880D01*
X135285142Y-78062690D01*
X135237523Y-78062690D01*
X135189904Y-78038880D01*
X135166094Y-78015071D01*
X135142285Y-77967452D01*
X135118475Y-77872214D01*
X135118475Y-77753166D01*
X135142285Y-77657928D01*
X135166094Y-77610309D01*
X135189904Y-77586500D01*
X135237523Y-77562690D01*
X135570856Y-77562690D02*
X135880380Y-77562690D01*
X135713713Y-77753166D01*
X135785142Y-77753166D01*
X135832761Y-77776976D01*
X135856570Y-77800785D01*
X135880380Y-77848404D01*
X135880380Y-77967452D01*
X135856570Y-78015071D01*
X135832761Y-78038880D01*
X135785142Y-78062690D01*
X135642285Y-78062690D01*
X135594666Y-78038880D01*
X135570856Y-78015071D01*
X153600856Y-90945309D02*
X153600856Y-91445309D01*
X153410380Y-91445309D01*
X153362761Y-91421500D01*
X153338951Y-91397690D01*
X153315142Y-91350071D01*
X153315142Y-91278642D01*
X153338951Y-91231023D01*
X153362761Y-91207214D01*
X153410380Y-91183404D01*
X153600856Y-91183404D01*
X153124666Y-91088166D02*
X152886570Y-91088166D01*
X153172285Y-90945309D02*
X153005618Y-91445309D01*
X152838951Y-90945309D01*
X152577047Y-91445309D02*
X152529428Y-91445309D01*
X152481808Y-91421500D01*
X152457999Y-91397690D01*
X152434189Y-91350071D01*
X152410380Y-91254833D01*
X152410380Y-91135785D01*
X152434189Y-91040547D01*
X152457999Y-90992928D01*
X152481808Y-90969119D01*
X152529428Y-90945309D01*
X152577047Y-90945309D01*
X152624666Y-90969119D01*
X152648475Y-90992928D01*
X152672285Y-91040547D01*
X152696094Y-91135785D01*
X152696094Y-91254833D01*
X152672285Y-91350071D01*
X152648475Y-91397690D01*
X152624666Y-91421500D01*
X152577047Y-91445309D01*
X152172285Y-90945309D02*
X152077047Y-90945309D01*
X152029428Y-90969119D01*
X152005618Y-90992928D01*
X151957999Y-91064357D01*
X151934189Y-91159595D01*
X151934189Y-91350071D01*
X151957999Y-91397690D01*
X151981808Y-91421500D01*
X152029428Y-91445309D01*
X152124666Y-91445309D01*
X152172285Y-91421500D01*
X152196094Y-91397690D01*
X152219904Y-91350071D01*
X152219904Y-91231023D01*
X152196094Y-91183404D01*
X152172285Y-91159595D01*
X152124666Y-91135785D01*
X152029428Y-91135785D01*
X151981808Y-91159595D01*
X151957999Y-91183404D01*
X151934189Y-91231023D01*
X157037999Y-78062690D02*
X157037999Y-77562690D01*
X157228475Y-77562690D01*
X157276094Y-77586500D01*
X157299904Y-77610309D01*
X157323713Y-77657928D01*
X157323713Y-77729357D01*
X157299904Y-77776976D01*
X157276094Y-77800785D01*
X157228475Y-77824595D01*
X157037999Y-77824595D01*
X157514189Y-77919833D02*
X157752285Y-77919833D01*
X157466570Y-78062690D02*
X157633237Y-77562690D01*
X157799904Y-78062690D01*
X158228475Y-78062690D02*
X157942761Y-78062690D01*
X158085618Y-78062690D02*
X158085618Y-77562690D01*
X158037999Y-77634119D01*
X157990380Y-77681738D01*
X157942761Y-77705547D01*
X158657047Y-77562690D02*
X158561808Y-77562690D01*
X158514189Y-77586500D01*
X158490380Y-77610309D01*
X158442761Y-77681738D01*
X158418951Y-77776976D01*
X158418951Y-77967452D01*
X158442761Y-78015071D01*
X158466570Y-78038880D01*
X158514189Y-78062690D01*
X158609428Y-78062690D01*
X158657047Y-78038880D01*
X158680856Y-78015071D01*
X158704666Y-77967452D01*
X158704666Y-77848404D01*
X158680856Y-77800785D01*
X158657047Y-77776976D01*
X158609428Y-77753166D01*
X158514189Y-77753166D01*
X158466570Y-77776976D01*
X158442761Y-77800785D01*
X158418951Y-77848404D01*
X145980856Y-90945309D02*
X145980856Y-91445309D01*
X145790380Y-91445309D01*
X145742761Y-91421500D01*
X145718951Y-91397690D01*
X145695142Y-91350071D01*
X145695142Y-91278642D01*
X145718951Y-91231023D01*
X145742761Y-91207214D01*
X145790380Y-91183404D01*
X145980856Y-91183404D01*
X145504666Y-91088166D02*
X145266570Y-91088166D01*
X145552285Y-90945309D02*
X145385618Y-91445309D01*
X145218951Y-90945309D01*
X144957047Y-91445309D02*
X144909428Y-91445309D01*
X144861808Y-91421500D01*
X144837999Y-91397690D01*
X144814189Y-91350071D01*
X144790380Y-91254833D01*
X144790380Y-91135785D01*
X144814189Y-91040547D01*
X144837999Y-90992928D01*
X144861808Y-90969119D01*
X144909428Y-90945309D01*
X144957047Y-90945309D01*
X145004666Y-90969119D01*
X145028475Y-90992928D01*
X145052285Y-91040547D01*
X145076094Y-91135785D01*
X145076094Y-91254833D01*
X145052285Y-91350071D01*
X145028475Y-91397690D01*
X145004666Y-91421500D01*
X144957047Y-91445309D01*
X144361808Y-91445309D02*
X144457047Y-91445309D01*
X144504666Y-91421500D01*
X144528475Y-91397690D01*
X144576094Y-91326261D01*
X144599904Y-91231023D01*
X144599904Y-91040547D01*
X144576094Y-90992928D01*
X144552285Y-90969119D01*
X144504666Y-90945309D01*
X144409428Y-90945309D01*
X144361808Y-90969119D01*
X144337999Y-90992928D01*
X144314189Y-91040547D01*
X144314189Y-91159595D01*
X144337999Y-91207214D01*
X144361808Y-91231023D01*
X144409428Y-91254833D01*
X144504666Y-91254833D01*
X144552285Y-91231023D01*
X144576094Y-91207214D01*
X144599904Y-91159595D01*
X159577999Y-78062690D02*
X159577999Y-77562690D01*
X159768475Y-77562690D01*
X159816094Y-77586500D01*
X159839904Y-77610309D01*
X159863713Y-77657928D01*
X159863713Y-77729357D01*
X159839904Y-77776976D01*
X159816094Y-77800785D01*
X159768475Y-77824595D01*
X159577999Y-77824595D01*
X160054189Y-77919833D02*
X160292285Y-77919833D01*
X160006570Y-78062690D02*
X160173237Y-77562690D01*
X160339904Y-78062690D01*
X160768475Y-78062690D02*
X160482761Y-78062690D01*
X160625618Y-78062690D02*
X160625618Y-77562690D01*
X160577999Y-77634119D01*
X160530380Y-77681738D01*
X160482761Y-77705547D01*
X161220856Y-77562690D02*
X160982761Y-77562690D01*
X160958951Y-77800785D01*
X160982761Y-77776976D01*
X161030380Y-77753166D01*
X161149428Y-77753166D01*
X161197047Y-77776976D01*
X161220856Y-77800785D01*
X161244666Y-77848404D01*
X161244666Y-77967452D01*
X161220856Y-78015071D01*
X161197047Y-78038880D01*
X161149428Y-78062690D01*
X161030380Y-78062690D01*
X160982761Y-78038880D01*
X160958951Y-78015071D01*
X126867725Y-88068202D02*
X127367725Y-87901535D01*
X126867725Y-87734869D01*
X127367725Y-87306297D02*
X127367725Y-87592012D01*
X127367725Y-87449154D02*
X126867725Y-87449154D01*
X126939154Y-87496773D01*
X126986773Y-87544393D01*
X127010582Y-87592012D01*
X127177249Y-86711059D02*
X127177249Y-86330107D01*
X126915344Y-85734869D02*
X126891535Y-85711059D01*
X126867725Y-85663440D01*
X126867725Y-85544393D01*
X126891535Y-85496773D01*
X126915344Y-85472964D01*
X126962963Y-85449154D01*
X127010582Y-85449154D01*
X127082011Y-85472964D01*
X127367725Y-85758678D01*
X127367725Y-85449154D01*
X126867725Y-84996773D02*
X126867725Y-85234869D01*
X127105820Y-85258678D01*
X127082011Y-85234869D01*
X127058201Y-85187250D01*
X127058201Y-85068202D01*
X127082011Y-85020583D01*
X127105820Y-84996773D01*
X127153439Y-84972964D01*
X127272487Y-84972964D01*
X127320106Y-84996773D01*
X127343915Y-85020583D01*
X127367725Y-85068202D01*
X127367725Y-85187250D01*
X127343915Y-85234869D01*
X127320106Y-85258678D01*
X126843915Y-84401535D02*
X127486773Y-84830107D01*
X127367725Y-83972964D02*
X127367725Y-84258678D01*
X127367725Y-84115821D02*
X126867725Y-84115821D01*
X126939154Y-84163440D01*
X126986773Y-84211059D01*
X127010582Y-84258678D01*
X126867725Y-83663440D02*
X126867725Y-83615821D01*
X126891535Y-83568202D01*
X126915344Y-83544393D01*
X126962963Y-83520583D01*
X127058201Y-83496773D01*
X127177249Y-83496773D01*
X127272487Y-83520583D01*
X127320106Y-83544393D01*
X127343915Y-83568202D01*
X127367725Y-83615821D01*
X127367725Y-83663440D01*
X127343915Y-83711059D01*
X127320106Y-83734869D01*
X127272487Y-83758678D01*
X127177249Y-83782488D01*
X127058201Y-83782488D01*
X126962963Y-83758678D01*
X126915344Y-83734869D01*
X126891535Y-83711059D01*
X126867725Y-83663440D01*
X126843915Y-82925345D02*
X127486773Y-83353916D01*
X126915344Y-82782488D02*
X126891535Y-82758678D01*
X126867725Y-82711059D01*
X126867725Y-82592012D01*
X126891535Y-82544393D01*
X126915344Y-82520583D01*
X126962963Y-82496773D01*
X127010582Y-82496773D01*
X127082011Y-82520583D01*
X127367725Y-82806297D01*
X127367725Y-82496773D01*
X126867725Y-82187250D02*
X126867725Y-82139631D01*
X126891535Y-82092012D01*
X126915344Y-82068202D01*
X126962963Y-82044393D01*
X127058201Y-82020583D01*
X127177249Y-82020583D01*
X127272487Y-82044393D01*
X127320106Y-82068202D01*
X127343915Y-82092012D01*
X127367725Y-82139631D01*
X127367725Y-82187250D01*
X127343915Y-82234869D01*
X127320106Y-82258678D01*
X127272487Y-82282488D01*
X127177249Y-82306297D01*
X127058201Y-82306297D01*
X126962963Y-82282488D01*
X126915344Y-82258678D01*
X126891535Y-82234869D01*
X126867725Y-82187250D01*
X126915344Y-81830107D02*
X126891535Y-81806297D01*
X126867725Y-81758678D01*
X126867725Y-81639631D01*
X126891535Y-81592012D01*
X126915344Y-81568202D01*
X126962963Y-81544393D01*
X127010582Y-81544393D01*
X127082011Y-81568202D01*
X127367725Y-81853916D01*
X127367725Y-81544393D01*
X126915344Y-81353916D02*
X126891535Y-81330107D01*
X126867725Y-81282488D01*
X126867725Y-81163440D01*
X126891535Y-81115821D01*
X126915344Y-81092012D01*
X126962963Y-81068202D01*
X127010582Y-81068202D01*
X127082011Y-81092012D01*
X127367725Y-81377726D01*
X127367725Y-81068202D01*
X129300380Y-77562690D02*
X129609904Y-77562690D01*
X129443237Y-77753166D01*
X129514666Y-77753166D01*
X129562285Y-77776976D01*
X129586094Y-77800785D01*
X129609904Y-77848404D01*
X129609904Y-77967452D01*
X129586094Y-78015071D01*
X129562285Y-78038880D01*
X129514666Y-78062690D01*
X129371808Y-78062690D01*
X129324189Y-78038880D01*
X129300380Y-78015071D01*
X129752761Y-77562690D02*
X129919428Y-78062690D01*
X130086094Y-77562690D01*
X130205142Y-77562690D02*
X130514666Y-77562690D01*
X130347999Y-77753166D01*
X130419428Y-77753166D01*
X130467047Y-77776976D01*
X130490856Y-77800785D01*
X130514666Y-77848404D01*
X130514666Y-77967452D01*
X130490856Y-78015071D01*
X130467047Y-78038880D01*
X130419428Y-78062690D01*
X130276570Y-78062690D01*
X130228951Y-78038880D01*
X130205142Y-78015071D01*
X148520856Y-90945309D02*
X148520856Y-91445309D01*
X148330380Y-91445309D01*
X148282761Y-91421500D01*
X148258951Y-91397690D01*
X148235142Y-91350071D01*
X148235142Y-91278642D01*
X148258951Y-91231023D01*
X148282761Y-91207214D01*
X148330380Y-91183404D01*
X148520856Y-91183404D01*
X148044666Y-91088166D02*
X147806570Y-91088166D01*
X148092285Y-90945309D02*
X147925618Y-91445309D01*
X147758951Y-90945309D01*
X147497047Y-91445309D02*
X147449428Y-91445309D01*
X147401808Y-91421500D01*
X147377999Y-91397690D01*
X147354189Y-91350071D01*
X147330380Y-91254833D01*
X147330380Y-91135785D01*
X147354189Y-91040547D01*
X147377999Y-90992928D01*
X147401808Y-90969119D01*
X147449428Y-90945309D01*
X147497047Y-90945309D01*
X147544666Y-90969119D01*
X147568475Y-90992928D01*
X147592285Y-91040547D01*
X147616094Y-91135785D01*
X147616094Y-91254833D01*
X147592285Y-91350071D01*
X147568475Y-91397690D01*
X147544666Y-91421500D01*
X147497047Y-91445309D01*
X147163713Y-91445309D02*
X146830380Y-91445309D01*
X147044666Y-90945309D01*
X126831808Y-77562690D02*
X126998475Y-78062690D01*
X127165142Y-77562690D01*
X127331808Y-78062690D02*
X127331808Y-77562690D01*
X127569904Y-78062690D02*
X127569904Y-77562690D01*
X127855618Y-78062690D01*
X127855618Y-77562690D01*
X161220856Y-90945309D02*
X161220856Y-91445309D01*
X161030380Y-91445309D01*
X160982761Y-91421500D01*
X160958951Y-91397690D01*
X160935142Y-91350071D01*
X160935142Y-91278642D01*
X160958951Y-91231023D01*
X160982761Y-91207214D01*
X161030380Y-91183404D01*
X161220856Y-91183404D01*
X160744666Y-91088166D02*
X160506570Y-91088166D01*
X160792285Y-90945309D02*
X160625618Y-91445309D01*
X160458951Y-90945309D01*
X160030380Y-90945309D02*
X160316094Y-90945309D01*
X160173237Y-90945309D02*
X160173237Y-91445309D01*
X160220856Y-91373880D01*
X160268475Y-91326261D01*
X160316094Y-91302452D01*
X159839904Y-91397690D02*
X159816094Y-91421500D01*
X159768475Y-91445309D01*
X159649428Y-91445309D01*
X159601808Y-91421500D01*
X159577999Y-91397690D01*
X159554189Y-91350071D01*
X159554189Y-91302452D01*
X159577999Y-91231023D01*
X159863713Y-90945309D01*
X159554189Y-90945309D01*
X135820856Y-90945309D02*
X135820856Y-91445309D01*
X135630380Y-91445309D01*
X135582761Y-91421500D01*
X135558951Y-91397690D01*
X135535142Y-91350071D01*
X135535142Y-91278642D01*
X135558951Y-91231023D01*
X135582761Y-91207214D01*
X135630380Y-91183404D01*
X135820856Y-91183404D01*
X135344666Y-91088166D02*
X135106570Y-91088166D01*
X135392285Y-90945309D02*
X135225618Y-91445309D01*
X135058951Y-90945309D01*
X134797047Y-91445309D02*
X134749428Y-91445309D01*
X134701808Y-91421500D01*
X134677999Y-91397690D01*
X134654189Y-91350071D01*
X134630380Y-91254833D01*
X134630380Y-91135785D01*
X134654189Y-91040547D01*
X134677999Y-90992928D01*
X134701808Y-90969119D01*
X134749428Y-90945309D01*
X134797047Y-90945309D01*
X134844666Y-90969119D01*
X134868475Y-90992928D01*
X134892285Y-91040547D01*
X134916094Y-91135785D01*
X134916094Y-91254833D01*
X134892285Y-91350071D01*
X134868475Y-91397690D01*
X134844666Y-91421500D01*
X134797047Y-91445309D01*
X134344666Y-91231023D02*
X134392285Y-91254833D01*
X134416094Y-91278642D01*
X134439904Y-91326261D01*
X134439904Y-91350071D01*
X134416094Y-91397690D01*
X134392285Y-91421500D01*
X134344666Y-91445309D01*
X134249428Y-91445309D01*
X134201808Y-91421500D01*
X134177999Y-91397690D01*
X134154189Y-91350071D01*
X134154189Y-91326261D01*
X134177999Y-91278642D01*
X134201808Y-91254833D01*
X134249428Y-91231023D01*
X134344666Y-91231023D01*
X134392285Y-91207214D01*
X134416094Y-91183404D01*
X134439904Y-91135785D01*
X134439904Y-91040547D01*
X134416094Y-90992928D01*
X134392285Y-90969119D01*
X134344666Y-90945309D01*
X134249428Y-90945309D01*
X134201808Y-90969119D01*
X134177999Y-90992928D01*
X134154189Y-91040547D01*
X134154189Y-91135785D01*
X134177999Y-91183404D01*
X134201808Y-91207214D01*
X134249428Y-91231023D01*
X143440856Y-90945309D02*
X143440856Y-91445309D01*
X143250380Y-91445309D01*
X143202761Y-91421500D01*
X143178951Y-91397690D01*
X143155142Y-91350071D01*
X143155142Y-91278642D01*
X143178951Y-91231023D01*
X143202761Y-91207214D01*
X143250380Y-91183404D01*
X143440856Y-91183404D01*
X142964666Y-91088166D02*
X142726570Y-91088166D01*
X143012285Y-90945309D02*
X142845618Y-91445309D01*
X142678951Y-90945309D01*
X142417047Y-91445309D02*
X142369428Y-91445309D01*
X142321808Y-91421500D01*
X142297999Y-91397690D01*
X142274189Y-91350071D01*
X142250380Y-91254833D01*
X142250380Y-91135785D01*
X142274189Y-91040547D01*
X142297999Y-90992928D01*
X142321808Y-90969119D01*
X142369428Y-90945309D01*
X142417047Y-90945309D01*
X142464666Y-90969119D01*
X142488475Y-90992928D01*
X142512285Y-91040547D01*
X142536094Y-91135785D01*
X142536094Y-91254833D01*
X142512285Y-91350071D01*
X142488475Y-91397690D01*
X142464666Y-91421500D01*
X142417047Y-91445309D01*
X141797999Y-91445309D02*
X142036094Y-91445309D01*
X142059904Y-91207214D01*
X142036094Y-91231023D01*
X141988475Y-91254833D01*
X141869428Y-91254833D01*
X141821808Y-91231023D01*
X141797999Y-91207214D01*
X141774189Y-91159595D01*
X141774189Y-91040547D01*
X141797999Y-90992928D01*
X141821808Y-90969119D01*
X141869428Y-90945309D01*
X141988475Y-90945309D01*
X142036094Y-90969119D01*
X142059904Y-90992928D01*
X151957999Y-78062690D02*
X151957999Y-77562690D01*
X152148475Y-77562690D01*
X152196094Y-77586500D01*
X152219904Y-77610309D01*
X152243713Y-77657928D01*
X152243713Y-77729357D01*
X152219904Y-77776976D01*
X152196094Y-77800785D01*
X152148475Y-77824595D01*
X151957999Y-77824595D01*
X152434189Y-77919833D02*
X152672285Y-77919833D01*
X152386570Y-78062690D02*
X152553237Y-77562690D01*
X152719904Y-78062690D01*
X153148475Y-78062690D02*
X152862761Y-78062690D01*
X153005618Y-78062690D02*
X153005618Y-77562690D01*
X152957999Y-77634119D01*
X152910380Y-77681738D01*
X152862761Y-77705547D01*
X153434189Y-77776976D02*
X153386570Y-77753166D01*
X153362761Y-77729357D01*
X153338951Y-77681738D01*
X153338951Y-77657928D01*
X153362761Y-77610309D01*
X153386570Y-77586500D01*
X153434189Y-77562690D01*
X153529428Y-77562690D01*
X153577047Y-77586500D01*
X153600856Y-77610309D01*
X153624666Y-77657928D01*
X153624666Y-77681738D01*
X153600856Y-77729357D01*
X153577047Y-77753166D01*
X153529428Y-77776976D01*
X153434189Y-77776976D01*
X153386570Y-77800785D01*
X153362761Y-77824595D01*
X153338951Y-77872214D01*
X153338951Y-77967452D01*
X153362761Y-78015071D01*
X153386570Y-78038880D01*
X153434189Y-78062690D01*
X153529428Y-78062690D01*
X153577047Y-78038880D01*
X153600856Y-78015071D01*
X153624666Y-77967452D01*
X153624666Y-77872214D01*
X153600856Y-77824595D01*
X153577047Y-77800785D01*
X153529428Y-77776976D01*
X158680856Y-90945309D02*
X158680856Y-91445309D01*
X158490380Y-91445309D01*
X158442761Y-91421500D01*
X158418951Y-91397690D01*
X158395142Y-91350071D01*
X158395142Y-91278642D01*
X158418951Y-91231023D01*
X158442761Y-91207214D01*
X158490380Y-91183404D01*
X158680856Y-91183404D01*
X158204666Y-91088166D02*
X157966570Y-91088166D01*
X158252285Y-90945309D02*
X158085618Y-91445309D01*
X157918951Y-90945309D01*
X157490380Y-90945309D02*
X157776094Y-90945309D01*
X157633237Y-90945309D02*
X157633237Y-91445309D01*
X157680856Y-91373880D01*
X157728475Y-91326261D01*
X157776094Y-91302452D01*
X157014189Y-90945309D02*
X157299904Y-90945309D01*
X157157047Y-90945309D02*
X157157047Y-91445309D01*
X157204666Y-91373880D01*
X157252285Y-91326261D01*
X157299904Y-91302452D01*
X146877999Y-78062690D02*
X146877999Y-77562690D01*
X147068475Y-77562690D01*
X147116094Y-77586500D01*
X147139904Y-77610309D01*
X147163713Y-77657928D01*
X147163713Y-77729357D01*
X147139904Y-77776976D01*
X147116094Y-77800785D01*
X147068475Y-77824595D01*
X146877999Y-77824595D01*
X147354189Y-77919833D02*
X147592285Y-77919833D01*
X147306570Y-78062690D02*
X147473237Y-77562690D01*
X147639904Y-78062690D01*
X147782761Y-77610309D02*
X147806570Y-77586500D01*
X147854189Y-77562690D01*
X147973237Y-77562690D01*
X148020856Y-77586500D01*
X148044666Y-77610309D01*
X148068475Y-77657928D01*
X148068475Y-77705547D01*
X148044666Y-77776976D01*
X147758951Y-78062690D01*
X148068475Y-78062690D01*
X148377999Y-77562690D02*
X148425618Y-77562690D01*
X148473237Y-77586500D01*
X148497047Y-77610309D01*
X148520856Y-77657928D01*
X148544666Y-77753166D01*
X148544666Y-77872214D01*
X148520856Y-77967452D01*
X148497047Y-78015071D01*
X148473237Y-78038880D01*
X148425618Y-78062690D01*
X148377999Y-78062690D01*
X148330380Y-78038880D01*
X148306570Y-78015071D01*
X148282761Y-77967452D01*
X148258951Y-77872214D01*
X148258951Y-77753166D01*
X148282761Y-77657928D01*
X148306570Y-77610309D01*
X148330380Y-77586500D01*
X148377999Y-77562690D01*
X149417999Y-78062690D02*
X149417999Y-77562690D01*
X149608475Y-77562690D01*
X149656094Y-77586500D01*
X149679904Y-77610309D01*
X149703713Y-77657928D01*
X149703713Y-77729357D01*
X149679904Y-77776976D01*
X149656094Y-77800785D01*
X149608475Y-77824595D01*
X149417999Y-77824595D01*
X149894189Y-77919833D02*
X150132285Y-77919833D01*
X149846570Y-78062690D02*
X150013237Y-77562690D01*
X150179904Y-78062690D01*
X150608475Y-78062690D02*
X150322761Y-78062690D01*
X150465618Y-78062690D02*
X150465618Y-77562690D01*
X150417999Y-77634119D01*
X150370380Y-77681738D01*
X150322761Y-77705547D01*
X150846570Y-78062690D02*
X150941808Y-78062690D01*
X150989428Y-78038880D01*
X151013237Y-78015071D01*
X151060856Y-77943642D01*
X151084666Y-77848404D01*
X151084666Y-77657928D01*
X151060856Y-77610309D01*
X151037047Y-77586500D01*
X150989428Y-77562690D01*
X150894189Y-77562690D01*
X150846570Y-77586500D01*
X150822761Y-77610309D01*
X150798951Y-77657928D01*
X150798951Y-77776976D01*
X150822761Y-77824595D01*
X150846570Y-77848404D01*
X150894189Y-77872214D01*
X150989428Y-77872214D01*
X151037047Y-77848404D01*
X151060856Y-77824595D01*
X151084666Y-77776976D01*
X163760856Y-90945309D02*
X163760856Y-91445309D01*
X163570380Y-91445309D01*
X163522761Y-91421500D01*
X163498951Y-91397690D01*
X163475142Y-91350071D01*
X163475142Y-91278642D01*
X163498951Y-91231023D01*
X163522761Y-91207214D01*
X163570380Y-91183404D01*
X163760856Y-91183404D01*
X163284666Y-91088166D02*
X163046570Y-91088166D01*
X163332285Y-90945309D02*
X163165618Y-91445309D01*
X162998951Y-90945309D01*
X162570380Y-90945309D02*
X162856094Y-90945309D01*
X162713237Y-90945309D02*
X162713237Y-91445309D01*
X162760856Y-91373880D01*
X162808475Y-91326261D01*
X162856094Y-91302452D01*
X162403713Y-91445309D02*
X162094189Y-91445309D01*
X162260856Y-91254833D01*
X162189428Y-91254833D01*
X162141808Y-91231023D01*
X162117999Y-91207214D01*
X162094189Y-91159595D01*
X162094189Y-91040547D01*
X162117999Y-90992928D01*
X162141808Y-90969119D01*
X162189428Y-90945309D01*
X162332285Y-90945309D01*
X162379904Y-90969119D01*
X162403713Y-90992928D01*
X136682285Y-78062690D02*
X136682285Y-77562690D01*
X136872761Y-77562690D01*
X136920380Y-77586500D01*
X136944189Y-77610309D01*
X136967999Y-77657928D01*
X136967999Y-77729357D01*
X136944189Y-77776976D01*
X136920380Y-77800785D01*
X136872761Y-77824595D01*
X136682285Y-77824595D01*
X137348951Y-77800785D02*
X137420380Y-77824595D01*
X137444189Y-77848404D01*
X137467999Y-77896023D01*
X137467999Y-77967452D01*
X137444189Y-78015071D01*
X137420380Y-78038880D01*
X137372761Y-78062690D01*
X137182285Y-78062690D01*
X137182285Y-77562690D01*
X137348951Y-77562690D01*
X137396570Y-77586500D01*
X137420380Y-77610309D01*
X137444189Y-77657928D01*
X137444189Y-77705547D01*
X137420380Y-77753166D01*
X137396570Y-77776976D01*
X137348951Y-77800785D01*
X137182285Y-77800785D01*
X137658475Y-77610309D02*
X137682285Y-77586500D01*
X137729904Y-77562690D01*
X137848951Y-77562690D01*
X137896570Y-77586500D01*
X137920380Y-77610309D01*
X137944189Y-77657928D01*
X137944189Y-77705547D01*
X137920380Y-77776976D01*
X137634666Y-78062690D01*
X137944189Y-78062690D01*
X138134666Y-77610309D02*
X138158475Y-77586500D01*
X138206094Y-77562690D01*
X138325142Y-77562690D01*
X138372761Y-77586500D01*
X138396570Y-77610309D01*
X138420380Y-77657928D01*
X138420380Y-77705547D01*
X138396570Y-77776976D01*
X138110856Y-78062690D01*
X138420380Y-78062690D01*
X156140856Y-90945309D02*
X156140856Y-91445309D01*
X155950380Y-91445309D01*
X155902761Y-91421500D01*
X155878951Y-91397690D01*
X155855142Y-91350071D01*
X155855142Y-91278642D01*
X155878951Y-91231023D01*
X155902761Y-91207214D01*
X155950380Y-91183404D01*
X156140856Y-91183404D01*
X155664666Y-91088166D02*
X155426570Y-91088166D01*
X155712285Y-90945309D02*
X155545618Y-91445309D01*
X155378951Y-90945309D01*
X154950380Y-90945309D02*
X155236094Y-90945309D01*
X155093237Y-90945309D02*
X155093237Y-91445309D01*
X155140856Y-91373880D01*
X155188475Y-91326261D01*
X155236094Y-91302452D01*
X154640856Y-91445309D02*
X154593237Y-91445309D01*
X154545618Y-91421500D01*
X154521808Y-91397690D01*
X154497999Y-91350071D01*
X154474189Y-91254833D01*
X154474189Y-91135785D01*
X154497999Y-91040547D01*
X154521808Y-90992928D01*
X154545618Y-90969119D01*
X154593237Y-90945309D01*
X154640856Y-90945309D01*
X154688475Y-90969119D01*
X154712285Y-90992928D01*
X154736094Y-91040547D01*
X154759904Y-91135785D01*
X154759904Y-91254833D01*
X154736094Y-91350071D01*
X154712285Y-91397690D01*
X154688475Y-91421500D01*
X154640856Y-91445309D01*
X144337999Y-78062690D02*
X144337999Y-77562690D01*
X144528475Y-77562690D01*
X144576094Y-77586500D01*
X144599904Y-77610309D01*
X144623713Y-77657928D01*
X144623713Y-77729357D01*
X144599904Y-77776976D01*
X144576094Y-77800785D01*
X144528475Y-77824595D01*
X144337999Y-77824595D01*
X144814189Y-77919833D02*
X145052285Y-77919833D01*
X144766570Y-78062690D02*
X144933237Y-77562690D01*
X145099904Y-78062690D01*
X145242761Y-77610309D02*
X145266570Y-77586500D01*
X145314189Y-77562690D01*
X145433237Y-77562690D01*
X145480856Y-77586500D01*
X145504666Y-77610309D01*
X145528475Y-77657928D01*
X145528475Y-77705547D01*
X145504666Y-77776976D01*
X145218951Y-78062690D01*
X145528475Y-78062690D01*
X146004666Y-78062690D02*
X145718951Y-78062690D01*
X145861808Y-78062690D02*
X145861808Y-77562690D01*
X145814189Y-77634119D01*
X145766570Y-77681738D01*
X145718951Y-77705547D01*
X133280856Y-90945309D02*
X133280856Y-91445309D01*
X133090380Y-91445309D01*
X133042761Y-91421500D01*
X133018951Y-91397690D01*
X132995142Y-91350071D01*
X132995142Y-91278642D01*
X133018951Y-91231023D01*
X133042761Y-91207214D01*
X133090380Y-91183404D01*
X133280856Y-91183404D01*
X132804666Y-91088166D02*
X132566570Y-91088166D01*
X132852285Y-90945309D02*
X132685618Y-91445309D01*
X132518951Y-90945309D01*
X132257047Y-91445309D02*
X132209428Y-91445309D01*
X132161808Y-91421500D01*
X132137999Y-91397690D01*
X132114189Y-91350071D01*
X132090380Y-91254833D01*
X132090380Y-91135785D01*
X132114189Y-91040547D01*
X132137999Y-90992928D01*
X132161808Y-90969119D01*
X132209428Y-90945309D01*
X132257047Y-90945309D01*
X132304666Y-90969119D01*
X132328475Y-90992928D01*
X132352285Y-91040547D01*
X132376094Y-91135785D01*
X132376094Y-91254833D01*
X132352285Y-91350071D01*
X132328475Y-91397690D01*
X132304666Y-91421500D01*
X132257047Y-91445309D01*
X131923713Y-91445309D02*
X131614189Y-91445309D01*
X131780856Y-91254833D01*
X131709428Y-91254833D01*
X131661808Y-91231023D01*
X131637999Y-91207214D01*
X131614189Y-91159595D01*
X131614189Y-91040547D01*
X131637999Y-90992928D01*
X131661808Y-90969119D01*
X131709428Y-90945309D01*
X131852285Y-90945309D01*
X131899904Y-90969119D01*
X131923713Y-90992928D01*
D11*
X126242296Y-89163440D02*
X126289915Y-89020583D01*
X126289915Y-88782488D01*
X126242296Y-88687250D01*
X126194677Y-88639631D01*
X126099439Y-88592012D01*
X126004201Y-88592012D01*
X125908963Y-88639631D01*
X125861344Y-88687250D01*
X125813725Y-88782488D01*
X125766106Y-88972964D01*
X125718487Y-89068202D01*
X125670868Y-89115821D01*
X125575630Y-89163440D01*
X125480392Y-89163440D01*
X125385154Y-89115821D01*
X125337535Y-89068202D01*
X125289915Y-88972964D01*
X125289915Y-88734869D01*
X125337535Y-88592012D01*
X126004201Y-88211059D02*
X126004201Y-87734869D01*
X126289915Y-88306297D02*
X125289915Y-87972964D01*
X126289915Y-87639631D01*
X126289915Y-87306297D02*
X125289915Y-87306297D01*
X126004201Y-86972964D01*
X125289915Y-86639631D01*
X126289915Y-86639631D01*
X126289915Y-86163440D02*
X125289915Y-86163440D01*
X125289915Y-85925345D01*
X125337535Y-85782488D01*
X125432773Y-85687250D01*
X125528011Y-85639631D01*
X125718487Y-85592012D01*
X125861344Y-85592012D01*
X126051820Y-85639631D01*
X126147058Y-85687250D01*
X126242296Y-85782488D01*
X126289915Y-85925345D01*
X126289915Y-86163440D01*
X126289915Y-84734869D02*
X125766106Y-84734869D01*
X125670868Y-84782488D01*
X125623249Y-84877726D01*
X125623249Y-85068202D01*
X125670868Y-85163440D01*
X126242296Y-84734869D02*
X126289915Y-84830107D01*
X126289915Y-85068202D01*
X126242296Y-85163440D01*
X126147058Y-85211059D01*
X126051820Y-85211059D01*
X125956582Y-85163440D01*
X125908963Y-85068202D01*
X125908963Y-84830107D01*
X125861344Y-84734869D01*
X126289915Y-83830107D02*
X125766106Y-83830107D01*
X125670868Y-83877726D01*
X125623249Y-83972964D01*
X125623249Y-84163440D01*
X125670868Y-84258678D01*
X126242296Y-83830107D02*
X126289915Y-83925345D01*
X126289915Y-84163440D01*
X126242296Y-84258678D01*
X126147058Y-84306297D01*
X126051820Y-84306297D01*
X125956582Y-84258678D01*
X125908963Y-84163440D01*
X125908963Y-83925345D01*
X125861344Y-83830107D01*
X126289915Y-83353916D02*
X125289915Y-83353916D01*
X126289915Y-82782488D01*
X125289915Y-82782488D01*
X126289915Y-82163440D02*
X126242296Y-82258678D01*
X126194677Y-82306297D01*
X126099439Y-82353916D01*
X125813725Y-82353916D01*
X125718487Y-82306297D01*
X125670868Y-82258678D01*
X125623249Y-82163440D01*
X125623249Y-82020583D01*
X125670868Y-81925345D01*
X125718487Y-81877726D01*
X125813725Y-81830107D01*
X126099439Y-81830107D01*
X126194677Y-81877726D01*
X126242296Y-81925345D01*
X126289915Y-82020583D01*
X126289915Y-82163440D01*
X125385154Y-81449154D02*
X125337535Y-81401535D01*
X125289915Y-81306297D01*
X125289915Y-81068202D01*
X125337535Y-80972964D01*
X125385154Y-80925345D01*
X125480392Y-80877726D01*
X125575630Y-80877726D01*
X125718487Y-80925345D01*
X126289915Y-81496773D01*
X126289915Y-80877726D01*
X126289915Y-79925345D02*
X126289915Y-80496773D01*
X126289915Y-80211059D02*
X125289915Y-80211059D01*
X125432773Y-80306297D01*
X125528011Y-80401535D01*
X125575630Y-80496773D01*
D10*
X132078475Y-77586500D02*
X132030856Y-77562690D01*
X131959428Y-77562690D01*
X131887999Y-77586500D01*
X131840380Y-77634119D01*
X131816570Y-77681738D01*
X131792761Y-77776976D01*
X131792761Y-77848404D01*
X131816570Y-77943642D01*
X131840380Y-77991261D01*
X131887999Y-78038880D01*
X131959428Y-78062690D01*
X132007047Y-78062690D01*
X132078475Y-78038880D01*
X132102285Y-78015071D01*
X132102285Y-77848404D01*
X132007047Y-77848404D01*
X132316570Y-78062690D02*
X132316570Y-77562690D01*
X132602285Y-78062690D01*
X132602285Y-77562690D01*
X132840380Y-78062690D02*
X132840380Y-77562690D01*
X132959428Y-77562690D01*
X133030856Y-77586500D01*
X133078475Y-77634119D01*
X133102285Y-77681738D01*
X133126094Y-77776976D01*
X133126094Y-77848404D01*
X133102285Y-77943642D01*
X133078475Y-77991261D01*
X133030856Y-78038880D01*
X132959428Y-78062690D01*
X132840380Y-78062690D01*
X138360856Y-90945309D02*
X138360856Y-91445309D01*
X138170380Y-91445309D01*
X138122761Y-91421500D01*
X138098951Y-91397690D01*
X138075142Y-91350071D01*
X138075142Y-91278642D01*
X138098951Y-91231023D01*
X138122761Y-91207214D01*
X138170380Y-91183404D01*
X138360856Y-91183404D01*
X137884666Y-91088166D02*
X137646570Y-91088166D01*
X137932285Y-90945309D02*
X137765618Y-91445309D01*
X137598951Y-90945309D01*
X137337047Y-91445309D02*
X137289428Y-91445309D01*
X137241808Y-91421500D01*
X137217999Y-91397690D01*
X137194189Y-91350071D01*
X137170380Y-91254833D01*
X137170380Y-91135785D01*
X137194189Y-91040547D01*
X137217999Y-90992928D01*
X137241808Y-90969119D01*
X137289428Y-90945309D01*
X137337047Y-90945309D01*
X137384666Y-90969119D01*
X137408475Y-90992928D01*
X137432285Y-91040547D01*
X137456094Y-91135785D01*
X137456094Y-91254833D01*
X137432285Y-91350071D01*
X137408475Y-91397690D01*
X137384666Y-91421500D01*
X137337047Y-91445309D01*
X136932285Y-90945309D02*
X136837047Y-90945309D01*
X136789428Y-90969119D01*
X136765618Y-90992928D01*
X136717999Y-91064357D01*
X136694189Y-91159595D01*
X136694189Y-91350071D01*
X136717999Y-91397690D01*
X136741808Y-91421500D01*
X136789428Y-91445309D01*
X136884666Y-91445309D01*
X136932285Y-91421500D01*
X136956094Y-91397690D01*
X136979904Y-91350071D01*
X136979904Y-91231023D01*
X136956094Y-91183404D01*
X136932285Y-91159595D01*
X136884666Y-91135785D01*
X136789428Y-91135785D01*
X136741808Y-91159595D01*
X136717999Y-91183404D01*
X136694189Y-91231023D01*
X139257999Y-78062690D02*
X139257999Y-77562690D01*
X139448475Y-77562690D01*
X139496094Y-77586500D01*
X139519904Y-77610309D01*
X139543713Y-77657928D01*
X139543713Y-77729357D01*
X139519904Y-77776976D01*
X139496094Y-77800785D01*
X139448475Y-77824595D01*
X139257999Y-77824595D01*
X139734189Y-77919833D02*
X139972285Y-77919833D01*
X139686570Y-78062690D02*
X139853237Y-77562690D01*
X140019904Y-78062690D01*
X140162761Y-77610309D02*
X140186570Y-77586500D01*
X140234189Y-77562690D01*
X140353237Y-77562690D01*
X140400856Y-77586500D01*
X140424666Y-77610309D01*
X140448475Y-77657928D01*
X140448475Y-77705547D01*
X140424666Y-77776976D01*
X140138951Y-78062690D01*
X140448475Y-78062690D01*
X140615142Y-77562690D02*
X140924666Y-77562690D01*
X140757999Y-77753166D01*
X140829428Y-77753166D01*
X140877047Y-77776976D01*
X140900856Y-77800785D01*
X140924666Y-77848404D01*
X140924666Y-77967452D01*
X140900856Y-78015071D01*
X140877047Y-78038880D01*
X140829428Y-78062690D01*
X140686570Y-78062690D01*
X140638951Y-78038880D01*
X140615142Y-78015071D01*
X151060856Y-90945309D02*
X151060856Y-91445309D01*
X150870380Y-91445309D01*
X150822761Y-91421500D01*
X150798951Y-91397690D01*
X150775142Y-91350071D01*
X150775142Y-91278642D01*
X150798951Y-91231023D01*
X150822761Y-91207214D01*
X150870380Y-91183404D01*
X151060856Y-91183404D01*
X150584666Y-91088166D02*
X150346570Y-91088166D01*
X150632285Y-90945309D02*
X150465618Y-91445309D01*
X150298951Y-90945309D01*
X150037047Y-91445309D02*
X149989428Y-91445309D01*
X149941808Y-91421500D01*
X149917999Y-91397690D01*
X149894189Y-91350071D01*
X149870380Y-91254833D01*
X149870380Y-91135785D01*
X149894189Y-91040547D01*
X149917999Y-90992928D01*
X149941808Y-90969119D01*
X149989428Y-90945309D01*
X150037047Y-90945309D01*
X150084666Y-90969119D01*
X150108475Y-90992928D01*
X150132285Y-91040547D01*
X150156094Y-91135785D01*
X150156094Y-91254833D01*
X150132285Y-91350071D01*
X150108475Y-91397690D01*
X150084666Y-91421500D01*
X150037047Y-91445309D01*
X149584666Y-91231023D02*
X149632285Y-91254833D01*
X149656094Y-91278642D01*
X149679904Y-91326261D01*
X149679904Y-91350071D01*
X149656094Y-91397690D01*
X149632285Y-91421500D01*
X149584666Y-91445309D01*
X149489428Y-91445309D01*
X149441808Y-91421500D01*
X149417999Y-91397690D01*
X149394189Y-91350071D01*
X149394189Y-91326261D01*
X149417999Y-91278642D01*
X149441808Y-91254833D01*
X149489428Y-91231023D01*
X149584666Y-91231023D01*
X149632285Y-91207214D01*
X149656094Y-91183404D01*
X149679904Y-91135785D01*
X149679904Y-91040547D01*
X149656094Y-90992928D01*
X149632285Y-90969119D01*
X149584666Y-90945309D01*
X149489428Y-90945309D01*
X149441808Y-90969119D01*
X149417999Y-90992928D01*
X149394189Y-91040547D01*
X149394189Y-91135785D01*
X149417999Y-91183404D01*
X149441808Y-91207214D01*
X149489428Y-91231023D01*
X141797999Y-78062690D02*
X141797999Y-77562690D01*
X141988475Y-77562690D01*
X142036094Y-77586500D01*
X142059904Y-77610309D01*
X142083713Y-77657928D01*
X142083713Y-77729357D01*
X142059904Y-77776976D01*
X142036094Y-77800785D01*
X141988475Y-77824595D01*
X141797999Y-77824595D01*
X142274189Y-77919833D02*
X142512285Y-77919833D01*
X142226570Y-78062690D02*
X142393237Y-77562690D01*
X142559904Y-78062690D01*
X142702761Y-77610309D02*
X142726570Y-77586500D01*
X142774189Y-77562690D01*
X142893237Y-77562690D01*
X142940856Y-77586500D01*
X142964666Y-77610309D01*
X142988475Y-77657928D01*
X142988475Y-77705547D01*
X142964666Y-77776976D01*
X142678951Y-78062690D01*
X142988475Y-78062690D01*
X143178951Y-77610309D02*
X143202761Y-77586500D01*
X143250380Y-77562690D01*
X143369428Y-77562690D01*
X143417047Y-77586500D01*
X143440856Y-77610309D01*
X143464666Y-77657928D01*
X143464666Y-77705547D01*
X143440856Y-77776976D01*
X143155142Y-78062690D01*
X143464666Y-78062690D01*
X158009547Y-99040190D02*
X158009547Y-99444952D01*
X158033357Y-99492571D01*
X158057166Y-99516380D01*
X158104785Y-99540190D01*
X158200023Y-99540190D01*
X158247642Y-99516380D01*
X158271452Y-99492571D01*
X158295261Y-99444952D01*
X158295261Y-99040190D01*
X158485738Y-99040190D02*
X158795261Y-99040190D01*
X158628595Y-99230666D01*
X158700023Y-99230666D01*
X158747642Y-99254476D01*
X158771452Y-99278285D01*
X158795261Y-99325904D01*
X158795261Y-99444952D01*
X158771452Y-99492571D01*
X158747642Y-99516380D01*
X158700023Y-99540190D01*
X158557166Y-99540190D01*
X158509547Y-99516380D01*
X158485738Y-99492571D01*
X163746666Y-98222571D02*
X163722857Y-98246380D01*
X163651428Y-98270190D01*
X163603809Y-98270190D01*
X163532380Y-98246380D01*
X163484761Y-98198761D01*
X163460952Y-98151142D01*
X163437142Y-98055904D01*
X163437142Y-97984476D01*
X163460952Y-97889238D01*
X163484761Y-97841619D01*
X163532380Y-97794000D01*
X163603809Y-97770190D01*
X163651428Y-97770190D01*
X163722857Y-97794000D01*
X163746666Y-97817809D01*
X164175238Y-97936857D02*
X164175238Y-98270190D01*
X164056190Y-97746380D02*
X163937142Y-98103523D01*
X164246666Y-98103523D01*
X140640571Y-102318333D02*
X140664380Y-102342142D01*
X140688190Y-102413571D01*
X140688190Y-102461190D01*
X140664380Y-102532619D01*
X140616761Y-102580238D01*
X140569142Y-102604047D01*
X140473904Y-102627857D01*
X140402476Y-102627857D01*
X140307238Y-102604047D01*
X140259619Y-102580238D01*
X140212000Y-102532619D01*
X140188190Y-102461190D01*
X140188190Y-102413571D01*
X140212000Y-102342142D01*
X140235809Y-102318333D01*
X140235809Y-102127857D02*
X140212000Y-102104047D01*
X140188190Y-102056428D01*
X140188190Y-101937380D01*
X140212000Y-101889761D01*
X140235809Y-101865952D01*
X140283428Y-101842142D01*
X140331047Y-101842142D01*
X140402476Y-101865952D01*
X140688190Y-102151666D01*
X140688190Y-101842142D01*
D11*
X186867857Y-99493428D02*
X186867857Y-99979142D01*
X186896428Y-100036285D01*
X186925000Y-100064857D01*
X186982142Y-100093428D01*
X187096428Y-100093428D01*
X187153571Y-100064857D01*
X187182142Y-100036285D01*
X187210714Y-99979142D01*
X187210714Y-99493428D01*
X187467857Y-99550571D02*
X187496428Y-99522000D01*
X187553571Y-99493428D01*
X187696428Y-99493428D01*
X187753571Y-99522000D01*
X187782142Y-99550571D01*
X187810714Y-99607714D01*
X187810714Y-99664857D01*
X187782142Y-99750571D01*
X187439285Y-100093428D01*
X187810714Y-100093428D01*
D12*
X147512166Y-101397571D02*
X147488357Y-101421380D01*
X147416928Y-101445190D01*
X147369309Y-101445190D01*
X147297880Y-101421380D01*
X147250261Y-101373761D01*
X147226452Y-101326142D01*
X147202642Y-101230904D01*
X147202642Y-101159476D01*
X147226452Y-101064238D01*
X147250261Y-101016619D01*
X147297880Y-100969000D01*
X147369309Y-100945190D01*
X147416928Y-100945190D01*
X147488357Y-100969000D01*
X147512166Y-100992809D01*
X147678833Y-100945190D02*
X147988357Y-100945190D01*
X147821690Y-101135666D01*
X147893119Y-101135666D01*
X147940738Y-101159476D01*
X147964547Y-101183285D01*
X147988357Y-101230904D01*
X147988357Y-101349952D01*
X147964547Y-101397571D01*
X147940738Y-101421380D01*
X147893119Y-101445190D01*
X147750261Y-101445190D01*
X147702642Y-101421380D01*
X147678833Y-101397571D01*
D10*
X163746666Y-101397571D02*
X163722857Y-101421380D01*
X163651428Y-101445190D01*
X163603809Y-101445190D01*
X163532380Y-101421380D01*
X163484761Y-101373761D01*
X163460952Y-101326142D01*
X163437142Y-101230904D01*
X163437142Y-101159476D01*
X163460952Y-101064238D01*
X163484761Y-101016619D01*
X163532380Y-100969000D01*
X163603809Y-100945190D01*
X163651428Y-100945190D01*
X163722857Y-100969000D01*
X163746666Y-100992809D01*
X164222857Y-101445190D02*
X163937142Y-101445190D01*
X164080000Y-101445190D02*
X164080000Y-100945190D01*
X164032380Y-101016619D01*
X163984761Y-101064238D01*
X163937142Y-101088047D01*
D13*
X148362936Y-100176000D02*
X148817064Y-100176000D01*
X148362936Y-98706000D02*
X148817064Y-98706000D01*
X180410000Y-103565000D02*
X180410000Y-100905000D01*
X171460000Y-103565000D02*
X170130000Y-103565000D01*
X170130000Y-103565000D02*
X170130000Y-102235000D01*
X172730000Y-103565000D02*
X172730000Y-100905000D01*
X172730000Y-100905000D02*
X180410000Y-100905000D01*
X172730000Y-103565000D02*
X180410000Y-103565000D01*
D14*
X134844000Y-106650000D02*
X134844000Y-104820000D01*
X133014000Y-96550000D02*
X134844000Y-96550000D01*
X126574000Y-106650000D02*
X124744000Y-106650000D01*
X134844000Y-96550000D02*
X134844000Y-98380000D01*
X124744000Y-96550000D02*
X126574000Y-96550000D01*
X124744000Y-96550000D02*
X124744000Y-98380000D01*
X134844000Y-106650000D02*
X133014000Y-106650000D01*
X124744000Y-106650000D02*
X124744000Y-104820000D01*
D15*
X124221000Y-99100000D02*
G75*
G03*
X124221000Y-99100000I-100000J0D01*
G01*
D13*
X143248748Y-98706000D02*
X143771252Y-98706000D01*
X143248748Y-100176000D02*
X143771252Y-100176000D01*
X143248748Y-103351000D02*
X143771252Y-103351000D01*
X143248748Y-101881000D02*
X143771252Y-101881000D01*
D14*
X153085000Y-100026000D02*
X155525000Y-100026000D01*
X155525000Y-102666000D02*
X153085000Y-102666000D01*
D15*
X152355000Y-100546000D02*
G75*
G03*
X152355000Y-100546000I-100000J0D01*
G01*
D13*
X205800000Y-94010000D02*
X205800000Y-95340000D01*
X205800000Y-95340000D02*
X204470000Y-95340000D01*
X205800000Y-92740000D02*
X203140000Y-92740000D01*
X203140000Y-92740000D02*
X203140000Y-85060000D01*
X205800000Y-92740000D02*
X205800000Y-85060000D01*
X205800000Y-85060000D02*
X203140000Y-85060000D01*
X195590846Y-83844393D02*
X195090846Y-83844393D01*
X126031535Y-76999393D02*
X126031535Y-75669393D01*
D10*
X199134113Y-95065429D02*
X115396625Y-95067700D01*
D13*
X195590846Y-85244393D02*
X195090846Y-85244393D01*
D10*
X200134428Y-75026500D02*
X200134113Y-94065429D01*
X114396625Y-94067700D02*
X114395622Y-75026500D01*
D13*
X198590846Y-86044393D02*
X198390846Y-86044393D01*
D15*
X166654535Y-75634393D02*
X166654535Y-93434393D01*
X193324535Y-75634393D02*
X193324535Y-79334393D01*
D13*
X195790846Y-86044393D02*
X195590846Y-86044393D01*
X195590846Y-86044393D02*
X195590846Y-85244393D01*
X126031535Y-94779393D02*
X126031535Y-93449393D01*
X198590846Y-83044393D02*
X198590846Y-83844393D01*
D10*
X115314428Y-88740393D02*
X111982453Y-88740393D01*
D13*
X198390846Y-83044393D02*
X198590846Y-83044393D01*
X198590846Y-85244393D02*
X198590846Y-86044393D01*
D10*
X111982453Y-79790393D02*
X115314428Y-79790393D01*
D13*
X195590846Y-83844393D02*
X195590846Y-83244393D01*
D10*
X115395622Y-74026500D02*
X199134428Y-74026500D01*
D15*
X193324535Y-89734393D02*
X193324535Y-93434393D01*
D10*
X111982453Y-88740393D02*
X111982453Y-79790393D01*
D13*
X195590846Y-83244393D02*
X195790846Y-83044393D01*
X126031535Y-92119393D02*
X164251535Y-92119393D01*
X164251535Y-92119393D02*
X164251535Y-94779393D01*
X164251535Y-94779393D02*
X126031535Y-94779393D01*
X126031535Y-94779393D02*
X126031535Y-92119393D01*
X126031535Y-74339393D02*
X164251535Y-74339393D01*
X164251535Y-74339393D02*
X164251535Y-76999393D01*
X164251535Y-76999393D02*
X126031535Y-76999393D01*
X126031535Y-76999393D02*
X126031535Y-74339393D01*
D10*
X115395622Y-74026500D02*
G75*
G03*
X114395622Y-75026500I-1J-999999D01*
G01*
X200134428Y-75026500D02*
G75*
G03*
X199134428Y-74026500I-1000000J0D01*
G01*
X114396625Y-94067700D02*
G75*
G03*
X115396625Y-95067700I999999J-1D01*
G01*
X199134113Y-95065385D02*
G75*
G03*
X200134113Y-94065429I15J999985D01*
G01*
D14*
X158085000Y-99961000D02*
X160685000Y-99961000D01*
X158085000Y-102731000D02*
X160685000Y-102731000D01*
D15*
X161035000Y-100346000D02*
G75*
G03*
X161035000Y-100346000I-50000J0D01*
G01*
D13*
X165361252Y-100176000D02*
X164838748Y-100176000D01*
X165361252Y-98706000D02*
X164838748Y-98706000D01*
X138203000Y-100692248D02*
X138203000Y-101214752D01*
X139673000Y-100692248D02*
X139673000Y-101214752D01*
D14*
X184095000Y-100808000D02*
X184095000Y-104308000D01*
X184095000Y-104308000D02*
X193095000Y-104308000D01*
X184095000Y-100808000D02*
X193095000Y-100808000D01*
X193095000Y-104308000D02*
X193095000Y-100808000D01*
D15*
X185672000Y-100150000D02*
G75*
G03*
X185672000Y-100150000I-100000J0D01*
G01*
D13*
X148328748Y-101881000D02*
X148851252Y-101881000D01*
X148328748Y-103351000D02*
X148851252Y-103351000D01*
X164838748Y-103351000D02*
X165361252Y-103351000D01*
X164838748Y-101881000D02*
X165361252Y-101881000D01*
%LPC*%
G36*
X127794000Y-106450000D02*
G01*
X126794000Y-106450000D01*
X126794000Y-104750000D01*
X127794000Y-104750000D01*
X127794000Y-106450000D01*
G37*
D16*
X127794000Y-106450000D02*
X126794000Y-106450000D01*
X126794000Y-104750000D01*
X127794000Y-104750000D01*
X127794000Y-106450000D01*
G36*
X129044000Y-106450000D02*
G01*
X128044000Y-106450000D01*
X128044000Y-104750000D01*
X129044000Y-104750000D01*
X129044000Y-106450000D01*
G37*
X129044000Y-106450000D02*
X128044000Y-106450000D01*
X128044000Y-104750000D01*
X129044000Y-104750000D01*
X129044000Y-106450000D01*
G36*
X132294000Y-104100000D02*
G01*
X127294000Y-104100000D01*
X127294000Y-99100000D01*
X132294000Y-99100000D01*
X132294000Y-104100000D01*
G37*
X132294000Y-104100000D02*
X127294000Y-104100000D01*
X127294000Y-99100000D01*
X132294000Y-99100000D01*
X132294000Y-104100000D01*
G36*
X126644000Y-104600000D02*
G01*
X124944000Y-104600000D01*
X124944000Y-103600000D01*
X126644000Y-103600000D01*
X126644000Y-104600000D01*
G37*
X126644000Y-104600000D02*
X124944000Y-104600000D01*
X124944000Y-103600000D01*
X126644000Y-103600000D01*
X126644000Y-104600000D01*
G36*
X134644000Y-104600000D02*
G01*
X132944000Y-104600000D01*
X132944000Y-103600000D01*
X134644000Y-103600000D01*
X134644000Y-104600000D01*
G37*
X134644000Y-104600000D02*
X132944000Y-104600000D01*
X132944000Y-103600000D01*
X134644000Y-103600000D01*
X134644000Y-104600000D01*
G36*
X126644000Y-98880000D02*
G01*
X126644000Y-99600000D01*
X124944000Y-99600000D01*
X124944000Y-98600000D01*
X126364000Y-98600000D01*
X126644000Y-98880000D01*
G37*
X126644000Y-98880000D02*
X126644000Y-99600000D01*
X124944000Y-99600000D01*
X124944000Y-98600000D01*
X126364000Y-98600000D01*
X126644000Y-98880000D01*
G36*
X134644000Y-99600000D02*
G01*
X132944000Y-99600000D01*
X132944000Y-98600000D01*
X134644000Y-98600000D01*
X134644000Y-99600000D01*
G37*
X134644000Y-99600000D02*
X132944000Y-99600000D01*
X132944000Y-98600000D01*
X134644000Y-98600000D01*
X134644000Y-99600000D01*
G36*
X132794000Y-106450000D02*
G01*
X131794000Y-106450000D01*
X131794000Y-104750000D01*
X132794000Y-104750000D01*
X132794000Y-106450000D01*
G37*
X132794000Y-106450000D02*
X131794000Y-106450000D01*
X131794000Y-104750000D01*
X132794000Y-104750000D01*
X132794000Y-106450000D01*
G36*
X134644000Y-100850000D02*
G01*
X132944000Y-100850000D01*
X132944000Y-99850000D01*
X134644000Y-99850000D01*
X134644000Y-100850000D01*
G37*
X134644000Y-100850000D02*
X132944000Y-100850000D01*
X132944000Y-99850000D01*
X134644000Y-99850000D01*
X134644000Y-100850000D01*
G36*
X126644000Y-100850000D02*
G01*
X124944000Y-100850000D01*
X124944000Y-99850000D01*
X126644000Y-99850000D01*
X126644000Y-100850000D01*
G37*
X126644000Y-100850000D02*
X124944000Y-100850000D01*
X124944000Y-99850000D01*
X126644000Y-99850000D01*
X126644000Y-100850000D01*
G36*
X130294000Y-98450000D02*
G01*
X129294000Y-98450000D01*
X129294000Y-96750000D01*
X130294000Y-96750000D01*
X130294000Y-98450000D01*
G37*
X130294000Y-98450000D02*
X129294000Y-98450000D01*
X129294000Y-96750000D01*
X130294000Y-96750000D01*
X130294000Y-98450000D01*
G36*
X127794000Y-98450000D02*
G01*
X126794000Y-98450000D01*
X126794000Y-96750000D01*
X127794000Y-96750000D01*
X127794000Y-98450000D01*
G37*
X127794000Y-98450000D02*
X126794000Y-98450000D01*
X126794000Y-96750000D01*
X127794000Y-96750000D01*
X127794000Y-98450000D01*
G36*
X134644000Y-103350000D02*
G01*
X132944000Y-103350000D01*
X132944000Y-102350000D01*
X134644000Y-102350000D01*
X134644000Y-103350000D01*
G37*
X134644000Y-103350000D02*
X132944000Y-103350000D01*
X132944000Y-102350000D01*
X134644000Y-102350000D01*
X134644000Y-103350000D01*
G36*
X129044000Y-98450000D02*
G01*
X128044000Y-98450000D01*
X128044000Y-96750000D01*
X129044000Y-96750000D01*
X129044000Y-98450000D01*
G37*
X129044000Y-98450000D02*
X128044000Y-98450000D01*
X128044000Y-96750000D01*
X129044000Y-96750000D01*
X129044000Y-98450000D01*
G36*
X126644000Y-103350000D02*
G01*
X124944000Y-103350000D01*
X124944000Y-102350000D01*
X126644000Y-102350000D01*
X126644000Y-103350000D01*
G37*
X126644000Y-103350000D02*
X124944000Y-103350000D01*
X124944000Y-102350000D01*
X126644000Y-102350000D01*
X126644000Y-103350000D01*
G36*
X126644000Y-102100000D02*
G01*
X124944000Y-102100000D01*
X124944000Y-101100000D01*
X126644000Y-101100000D01*
X126644000Y-102100000D01*
G37*
X126644000Y-102100000D02*
X124944000Y-102100000D01*
X124944000Y-101100000D01*
X126644000Y-101100000D01*
X126644000Y-102100000D01*
G36*
X134644000Y-102100000D02*
G01*
X132944000Y-102100000D01*
X132944000Y-101100000D01*
X134644000Y-101100000D01*
X134644000Y-102100000D01*
G37*
X134644000Y-102100000D02*
X132944000Y-102100000D01*
X132944000Y-101100000D01*
X134644000Y-101100000D01*
X134644000Y-102100000D01*
G36*
X131544000Y-98450000D02*
G01*
X130544000Y-98450000D01*
X130544000Y-96750000D01*
X131544000Y-96750000D01*
X131544000Y-98450000D01*
G37*
X131544000Y-98450000D02*
X130544000Y-98450000D01*
X130544000Y-96750000D01*
X131544000Y-96750000D01*
X131544000Y-98450000D01*
G36*
X131544000Y-106450000D02*
G01*
X130544000Y-106450000D01*
X130544000Y-104750000D01*
X131544000Y-104750000D01*
X131544000Y-106450000D01*
G37*
X131544000Y-106450000D02*
X130544000Y-106450000D01*
X130544000Y-104750000D01*
X131544000Y-104750000D01*
X131544000Y-106450000D01*
G36*
X130294000Y-106450000D02*
G01*
X129294000Y-106450000D01*
X129294000Y-104750000D01*
X130294000Y-104750000D01*
X130294000Y-106450000D01*
G37*
X130294000Y-106450000D02*
X129294000Y-106450000D01*
X129294000Y-104750000D01*
X130294000Y-104750000D01*
X130294000Y-106450000D01*
G36*
X132794000Y-98450000D02*
G01*
X131794000Y-98450000D01*
X131794000Y-96750000D01*
X132794000Y-96750000D01*
X132794000Y-98450000D01*
G37*
X132794000Y-98450000D02*
X131794000Y-98450000D01*
X131794000Y-96750000D01*
X132794000Y-96750000D01*
X132794000Y-98450000D01*
G36*
X154980000Y-102246000D02*
G01*
X153630000Y-102246000D01*
X153630000Y-100766000D01*
X153950000Y-100446000D01*
X154980000Y-100446000D01*
X154980000Y-102246000D01*
G37*
X154980000Y-102246000D02*
X153630000Y-102246000D01*
X153630000Y-100766000D01*
X153950000Y-100446000D01*
X154980000Y-100446000D01*
X154980000Y-102246000D01*
D17*
X147590000Y-99441000D03*
X149590000Y-99441000D03*
D18*
X171460000Y-102235000D03*
D19*
X174000000Y-102235000D03*
X176540000Y-102235000D03*
X179080000Y-102235000D03*
D20*
X112408000Y-77724000D03*
X114808000Y-75324000D03*
X113110944Y-76026944D03*
X117208000Y-77724000D03*
X116505056Y-76026944D03*
X113110944Y-79421056D03*
X116505056Y-79421056D03*
X114808000Y-80124000D03*
D21*
X114808000Y-77724000D03*
D22*
X142472500Y-99441000D03*
X144547500Y-99441000D03*
X142472500Y-102616000D03*
X144547500Y-102616000D03*
D23*
X153155000Y-100546000D03*
X153155000Y-101346000D03*
X153155000Y-102146000D03*
X155455000Y-102146000D03*
X155455000Y-101346000D03*
X155455000Y-100546000D03*
D20*
X206235000Y-103124000D03*
X202137944Y-101426944D03*
X202137944Y-104821056D03*
X203835000Y-100724000D03*
D21*
X203835000Y-103124000D03*
D20*
X205532056Y-101426944D03*
X201435000Y-103124000D03*
X203835000Y-105524000D03*
X205532056Y-104821056D03*
D18*
X204470000Y-94010000D03*
D19*
X204470000Y-91470000D03*
X204470000Y-88930000D03*
X204470000Y-86390000D03*
D18*
X127361535Y-93449393D03*
D19*
X129901535Y-93449393D03*
X132441535Y-93449393D03*
X134981535Y-93449393D03*
X137521535Y-93449393D03*
X140061535Y-93449393D03*
X142601535Y-93449393D03*
X145141535Y-93449393D03*
X147681535Y-93449393D03*
X150221535Y-93449393D03*
X152761535Y-93449393D03*
X155301535Y-93449393D03*
X157841535Y-93449393D03*
X160381535Y-93449393D03*
X162921535Y-93449393D03*
X162921535Y-75669393D03*
X160381535Y-75669393D03*
X157841535Y-75669393D03*
X155301535Y-75669393D03*
X152761535Y-75669393D03*
X150221535Y-75669393D03*
X147681535Y-75669393D03*
X145141535Y-75669393D03*
X142601535Y-75669393D03*
X140061535Y-75669393D03*
X137521535Y-75669393D03*
X134981535Y-75669393D03*
X132441535Y-75669393D03*
X129901535Y-75669393D03*
D18*
X127361535Y-75669393D03*
D20*
X205532056Y-79421056D03*
X203835000Y-80124000D03*
X205532056Y-76026944D03*
D21*
X203835000Y-77724000D03*
D20*
X203835000Y-75324000D03*
X206235000Y-77724000D03*
X202137944Y-79421056D03*
X201435000Y-77724000D03*
X202137944Y-76026944D03*
X114808000Y-100724000D03*
X114808000Y-105524000D03*
X112408000Y-103124000D03*
D21*
X114808000Y-103124000D03*
D20*
X116505056Y-104821056D03*
X113110944Y-104821056D03*
X116505056Y-101426944D03*
X113110944Y-101426944D03*
X117208000Y-103124000D03*
D24*
X160355000Y-100371000D03*
X160355000Y-101021000D03*
X160355000Y-101671000D03*
X160355000Y-102321000D03*
X158415000Y-102321000D03*
X158415000Y-101671000D03*
X158415000Y-101021000D03*
X158415000Y-100371000D03*
D25*
X166137500Y-99441000D03*
X164062500Y-99441000D03*
D26*
X138938000Y-99916000D03*
X138938000Y-101991000D03*
D27*
X185595000Y-102108000D03*
D28*
X187095000Y-102108000D03*
X188595000Y-102108000D03*
X190095000Y-102108000D03*
X191595000Y-102108000D03*
D22*
X147552500Y-102616000D03*
X149627500Y-102616000D03*
X164062500Y-102616000D03*
X166137500Y-102616000D03*
M02*
