G04 #@! TF.GenerationSoftware,KiCad,Pcbnew,(6.0.9)*
G04 #@! TF.CreationDate,2023-02-20T10:38:45+01:00*
G04 #@! TF.ProjectId,sensorboard,73656e73-6f72-4626-9f61-72642e6b6963,rev?*
G04 #@! TF.SameCoordinates,Original*
G04 #@! TF.FileFunction,Legend,Bot*
G04 #@! TF.FilePolarity,Positive*
%FSLAX46Y46*%
G04 Gerber Fmt 4.6, Leading zero omitted, Abs format (unit mm)*
G04 Created by KiCad (PCBNEW (6.0.9)) date 2023-02-20 10:38:45*
%MOMM*%
%LPD*%
G01*
G04 APERTURE LIST*
%ADD10R,1.700000X1.700000*%
%ADD11O,1.700000X1.700000*%
%ADD12C,0.800000*%
%ADD13C,6.400000*%
%ADD14R,1.238000X1.238000*%
%ADD15C,1.238000*%
G04 APERTURE END LIST*
%LPC*%
D10*
X171460000Y-102235000D03*
D11*
X174000000Y-102235000D03*
X176540000Y-102235000D03*
X179080000Y-102235000D03*
D12*
X112408000Y-77724000D03*
X114808000Y-75324000D03*
X113110944Y-76026944D03*
X117208000Y-77724000D03*
X116505056Y-76026944D03*
X113110944Y-79421056D03*
X116505056Y-79421056D03*
X114808000Y-80124000D03*
D13*
X114808000Y-77724000D03*
D12*
X206235000Y-103124000D03*
X202137944Y-101426944D03*
X202137944Y-104821056D03*
X203835000Y-100724000D03*
D13*
X203835000Y-103124000D03*
D12*
X205532056Y-101426944D03*
X201435000Y-103124000D03*
X203835000Y-105524000D03*
X205532056Y-104821056D03*
D10*
X204470000Y-94010000D03*
D11*
X204470000Y-91470000D03*
X204470000Y-88930000D03*
X204470000Y-86390000D03*
D10*
X127361535Y-93449393D03*
D11*
X129901535Y-93449393D03*
X132441535Y-93449393D03*
X134981535Y-93449393D03*
X137521535Y-93449393D03*
X140061535Y-93449393D03*
X142601535Y-93449393D03*
X145141535Y-93449393D03*
X147681535Y-93449393D03*
X150221535Y-93449393D03*
X152761535Y-93449393D03*
X155301535Y-93449393D03*
X157841535Y-93449393D03*
X160381535Y-93449393D03*
X162921535Y-93449393D03*
X162921535Y-75669393D03*
X160381535Y-75669393D03*
X157841535Y-75669393D03*
X155301535Y-75669393D03*
X152761535Y-75669393D03*
X150221535Y-75669393D03*
X147681535Y-75669393D03*
X145141535Y-75669393D03*
X142601535Y-75669393D03*
X140061535Y-75669393D03*
X137521535Y-75669393D03*
X134981535Y-75669393D03*
X132441535Y-75669393D03*
X129901535Y-75669393D03*
D10*
X127361535Y-75669393D03*
D12*
X205532056Y-79421056D03*
X203835000Y-80124000D03*
X205532056Y-76026944D03*
D13*
X203835000Y-77724000D03*
D12*
X203835000Y-75324000D03*
X206235000Y-77724000D03*
X202137944Y-79421056D03*
X201435000Y-77724000D03*
X202137944Y-76026944D03*
X114808000Y-100724000D03*
X114808000Y-105524000D03*
X112408000Y-103124000D03*
D13*
X114808000Y-103124000D03*
D12*
X116505056Y-104821056D03*
X113110944Y-104821056D03*
X116505056Y-101426944D03*
X113110944Y-101426944D03*
X117208000Y-103124000D03*
D14*
X185595000Y-102108000D03*
D15*
X187095000Y-102108000D03*
X188595000Y-102108000D03*
X190095000Y-102108000D03*
X191595000Y-102108000D03*
M02*
