G04 #@! TF.GenerationSoftware,KiCad,Pcbnew,(6.0.9)*
G04 #@! TF.CreationDate,2023-02-20T10:38:45+01:00*
G04 #@! TF.ProjectId,sensorboard,73656e73-6f72-4626-9f61-72642e6b6963,rev?*
G04 #@! TF.SameCoordinates,Original*
G04 #@! TF.FileFunction,Copper,L1,Top*
G04 #@! TF.FilePolarity,Positive*
%FSLAX46Y46*%
G04 Gerber Fmt 4.6, Leading zero omitted, Abs format (unit mm)*
G04 Created by KiCad (PCBNEW (6.0.9)) date 2023-02-20 10:38:45*
%MOMM*%
%LPD*%
G01*
G04 APERTURE LIST*
G04 Aperture macros list*
%AMRoundRect*
0 Rectangle with rounded corners*
0 $1 Rounding radius*
0 $2 $3 $4 $5 $6 $7 $8 $9 X,Y pos of 4 corners*
0 Add a 4 corners polygon primitive as box body*
4,1,4,$2,$3,$4,$5,$6,$7,$8,$9,$2,$3,0*
0 Add four circle primitives for the rounded corners*
1,1,$1+$1,$2,$3*
1,1,$1+$1,$4,$5*
1,1,$1+$1,$6,$7*
1,1,$1+$1,$8,$9*
0 Add four rect primitives between the rounded corners*
20,1,$1+$1,$2,$3,$4,$5,0*
20,1,$1+$1,$4,$5,$6,$7,0*
20,1,$1+$1,$6,$7,$8,$9,0*
20,1,$1+$1,$8,$9,$2,$3,0*%
%AMFreePoly0*
4,1,14,0.503536,0.403536,0.753536,0.153536,0.755000,0.150000,0.755000,-0.400000,0.753536,-0.403536,0.750000,-0.405000,-0.750000,-0.405000,-0.753536,-0.403536,-0.755000,-0.400000,-0.755000,0.400000,-0.753536,0.403536,-0.750000,0.405000,0.500000,0.405001,0.503536,0.403536,0.503536,0.403536,$1*%
%AMFreePoly1*
4,1,15,-0.324998,0.855000,0.625000,0.855000,0.628536,0.853536,0.630000,0.850000,0.630000,-0.850000,0.628536,-0.853536,0.625000,-0.855000,-0.625000,-0.855000,-0.628536,-0.853536,-0.630000,-0.850000,-0.630001,0.550000,-0.628536,0.553536,-0.328536,0.853536,-0.325000,0.855001,-0.324998,0.855000,-0.324998,0.855000,$1*%
G04 Aperture macros list end*
G04 #@! TA.AperFunction,SMDPad,CuDef*
%ADD10RoundRect,0.250000X-0.350000X-0.450000X0.350000X-0.450000X0.350000X0.450000X-0.350000X0.450000X0*%
G04 #@! TD*
G04 #@! TA.AperFunction,ComponentPad*
%ADD11R,1.700000X1.700000*%
G04 #@! TD*
G04 #@! TA.AperFunction,ComponentPad*
%ADD12O,1.700000X1.700000*%
G04 #@! TD*
G04 #@! TA.AperFunction,SMDPad,CuDef*
%ADD13FreePoly0,0.000000*%
G04 #@! TD*
G04 #@! TA.AperFunction,SMDPad,CuDef*
%ADD14R,1.500000X0.800000*%
G04 #@! TD*
G04 #@! TA.AperFunction,SMDPad,CuDef*
%ADD15R,0.800000X1.500000*%
G04 #@! TD*
G04 #@! TA.AperFunction,SMDPad,CuDef*
%ADD16R,4.800000X4.800000*%
G04 #@! TD*
G04 #@! TA.AperFunction,ComponentPad*
%ADD17C,0.800000*%
G04 #@! TD*
G04 #@! TA.AperFunction,ComponentPad*
%ADD18C,6.400000*%
G04 #@! TD*
G04 #@! TA.AperFunction,SMDPad,CuDef*
%ADD19RoundRect,0.250000X-0.337500X-0.475000X0.337500X-0.475000X0.337500X0.475000X-0.337500X0.475000X0*%
G04 #@! TD*
G04 #@! TA.AperFunction,SMDPad,CuDef*
%ADD20R,0.550000X0.400000*%
G04 #@! TD*
G04 #@! TA.AperFunction,SMDPad,CuDef*
%ADD21FreePoly1,0.000000*%
G04 #@! TD*
G04 #@! TA.AperFunction,SMDPad,CuDef*
%ADD22RoundRect,0.027000X-0.218000X-0.198000X0.218000X-0.198000X0.218000X0.198000X-0.218000X0.198000X0*%
G04 #@! TD*
G04 #@! TA.AperFunction,SMDPad,CuDef*
%ADD23RoundRect,0.250000X0.337500X0.475000X-0.337500X0.475000X-0.337500X-0.475000X0.337500X-0.475000X0*%
G04 #@! TD*
G04 #@! TA.AperFunction,SMDPad,CuDef*
%ADD24RoundRect,0.250000X-0.475000X0.337500X-0.475000X-0.337500X0.475000X-0.337500X0.475000X0.337500X0*%
G04 #@! TD*
G04 #@! TA.AperFunction,ComponentPad*
%ADD25R,1.238000X1.238000*%
G04 #@! TD*
G04 #@! TA.AperFunction,ComponentPad*
%ADD26C,1.238000*%
G04 #@! TD*
G04 #@! TA.AperFunction,ViaPad*
%ADD27C,0.800000*%
G04 #@! TD*
G04 #@! TA.AperFunction,Conductor*
%ADD28C,0.250000*%
G04 #@! TD*
G04 APERTURE END LIST*
D10*
X147590000Y-99441000D03*
X149590000Y-99441000D03*
D11*
X171460000Y-102235000D03*
D12*
X174000000Y-102235000D03*
X176540000Y-102235000D03*
X179080000Y-102235000D03*
D13*
X125794000Y-99100000D03*
D14*
X125794000Y-100350000D03*
X125794000Y-101600000D03*
X125794000Y-102850000D03*
X125794000Y-104100000D03*
D15*
X127294000Y-105600000D03*
X128544000Y-105600000D03*
X129794000Y-105600000D03*
X131044000Y-105600000D03*
X132294000Y-105600000D03*
D14*
X133794000Y-104100000D03*
X133794000Y-102850000D03*
X133794000Y-101600000D03*
X133794000Y-100350000D03*
X133794000Y-99100000D03*
D15*
X132294000Y-97600000D03*
X131044000Y-97600000D03*
X129794000Y-97600000D03*
X128544000Y-97600000D03*
X127294000Y-97600000D03*
D16*
X129794000Y-101600000D03*
D17*
X112408000Y-77724000D03*
X114808000Y-75324000D03*
X113110944Y-76026944D03*
X117208000Y-77724000D03*
X116505056Y-76026944D03*
X113110944Y-79421056D03*
X116505056Y-79421056D03*
X114808000Y-80124000D03*
D18*
X114808000Y-77724000D03*
D19*
X142472500Y-99441000D03*
X144547500Y-99441000D03*
X142472500Y-102616000D03*
X144547500Y-102616000D03*
D20*
X153155000Y-100546000D03*
X153155000Y-101346000D03*
X153155000Y-102146000D03*
X155455000Y-102146000D03*
X155455000Y-101346000D03*
X155455000Y-100546000D03*
D21*
X154305000Y-101346000D03*
D17*
X206235000Y-103124000D03*
X202137944Y-101426944D03*
X202137944Y-104821056D03*
X203835000Y-100724000D03*
D18*
X203835000Y-103124000D03*
D17*
X205532056Y-101426944D03*
X201435000Y-103124000D03*
X203835000Y-105524000D03*
X205532056Y-104821056D03*
D11*
X204470000Y-94010000D03*
D12*
X204470000Y-91470000D03*
X204470000Y-88930000D03*
X204470000Y-86390000D03*
D11*
X127361535Y-93449393D03*
D12*
X129901535Y-93449393D03*
X132441535Y-93449393D03*
X134981535Y-93449393D03*
X137521535Y-93449393D03*
X140061535Y-93449393D03*
X142601535Y-93449393D03*
X145141535Y-93449393D03*
X147681535Y-93449393D03*
X150221535Y-93449393D03*
X152761535Y-93449393D03*
X155301535Y-93449393D03*
X157841535Y-93449393D03*
X160381535Y-93449393D03*
X162921535Y-93449393D03*
X162921535Y-75669393D03*
X160381535Y-75669393D03*
X157841535Y-75669393D03*
X155301535Y-75669393D03*
X152761535Y-75669393D03*
X150221535Y-75669393D03*
X147681535Y-75669393D03*
X145141535Y-75669393D03*
X142601535Y-75669393D03*
X140061535Y-75669393D03*
X137521535Y-75669393D03*
X134981535Y-75669393D03*
X132441535Y-75669393D03*
X129901535Y-75669393D03*
D11*
X127361535Y-75669393D03*
D17*
X205532056Y-79421056D03*
X203835000Y-80124000D03*
X205532056Y-76026944D03*
D18*
X203835000Y-77724000D03*
D17*
X203835000Y-75324000D03*
X206235000Y-77724000D03*
X202137944Y-79421056D03*
X201435000Y-77724000D03*
X202137944Y-76026944D03*
X114808000Y-100724000D03*
X114808000Y-105524000D03*
X112408000Y-103124000D03*
D18*
X114808000Y-103124000D03*
D17*
X116505056Y-104821056D03*
X113110944Y-104821056D03*
X116505056Y-101426944D03*
X113110944Y-101426944D03*
X117208000Y-103124000D03*
D22*
X160355000Y-100371000D03*
X160355000Y-101021000D03*
X160355000Y-101671000D03*
X160355000Y-102321000D03*
X158415000Y-102321000D03*
X158415000Y-101671000D03*
X158415000Y-101021000D03*
X158415000Y-100371000D03*
D23*
X166137500Y-99441000D03*
X164062500Y-99441000D03*
D24*
X138938000Y-99916000D03*
X138938000Y-101991000D03*
D25*
X185595000Y-102108000D03*
D26*
X187095000Y-102108000D03*
X188595000Y-102108000D03*
X190095000Y-102108000D03*
X191595000Y-102108000D03*
D19*
X147552500Y-102616000D03*
X149627500Y-102616000D03*
X164062500Y-102616000D03*
X166137500Y-102616000D03*
D27*
X165100000Y-104521000D03*
X125603000Y-97282000D03*
X156972000Y-99568000D03*
X123063000Y-97663000D03*
X161798000Y-103378000D03*
X155448000Y-99060000D03*
D28*
X164062500Y-103483500D02*
X165100000Y-104521000D01*
X164062500Y-102616000D02*
X164062500Y-103483500D01*
X154305000Y-98806000D02*
X154305000Y-101346000D01*
X127294000Y-104100000D02*
X129794000Y-101600000D01*
X143383000Y-100965000D02*
X144547500Y-102129500D01*
X158374000Y-102362000D02*
X158415000Y-102321000D01*
X154432000Y-101346000D02*
X155194000Y-102108000D01*
X166137500Y-99441000D02*
X166137500Y-102616000D01*
X155455000Y-102146000D02*
X156756000Y-102146000D01*
X160355000Y-99268000D02*
X159385000Y-98298000D01*
X154305000Y-101346000D02*
X154305000Y-97917000D01*
X153155000Y-101346000D02*
X154305000Y-101346000D01*
X166137500Y-99441000D02*
X176286000Y-99441000D01*
X148082000Y-105410000D02*
X149627500Y-103864500D01*
X159385000Y-98298000D02*
X154813000Y-98298000D01*
X125603000Y-97282000D02*
X126976000Y-97282000D01*
X144547500Y-102616000D02*
X144547500Y-99441000D01*
X150622000Y-102616000D02*
X151892000Y-101346000D01*
X127294000Y-105600000D02*
X127294000Y-104100000D01*
X151892000Y-101346000D02*
X153155000Y-101346000D01*
X140843000Y-97663000D02*
X140843000Y-100076000D01*
X138938000Y-103886000D02*
X140462000Y-105410000D01*
X149627500Y-102616000D02*
X150622000Y-102616000D01*
X138938000Y-101991000D02*
X138938000Y-103886000D01*
X156756000Y-102146000D02*
X156972000Y-102362000D01*
X127294000Y-99100000D02*
X129794000Y-101600000D01*
X160355000Y-100371000D02*
X160355000Y-99268000D01*
X141732000Y-100965000D02*
X143383000Y-100965000D01*
X126976000Y-97282000D02*
X127294000Y-97600000D01*
X159512000Y-100330000D02*
X160314000Y-100330000D01*
X141859000Y-96647000D02*
X140843000Y-97663000D01*
X153035000Y-96647000D02*
X141859000Y-96647000D01*
X149627500Y-103864500D02*
X149627500Y-102616000D01*
X156972000Y-102362000D02*
X158374000Y-102362000D01*
X154305000Y-97917000D02*
X153035000Y-96647000D01*
X140843000Y-100076000D02*
X141732000Y-100965000D01*
X140462000Y-105410000D02*
X148082000Y-105410000D01*
X160314000Y-100330000D02*
X160355000Y-100371000D01*
X176286000Y-99441000D02*
X179080000Y-102235000D01*
X127294000Y-97600000D02*
X127294000Y-99100000D01*
X154813000Y-98298000D02*
X154305000Y-98806000D01*
X154305000Y-101346000D02*
X154432000Y-101346000D01*
X144547500Y-102129500D02*
X144547500Y-102616000D01*
X158415000Y-101021000D02*
X158821000Y-101021000D01*
X158821000Y-101021000D02*
X159512000Y-100330000D01*
X164062500Y-99441000D02*
X162814000Y-100689500D01*
X157353000Y-101346000D02*
X155455000Y-101346000D01*
X128544000Y-96540000D02*
X128544000Y-97600000D01*
X139772500Y-99916000D02*
X142472500Y-102616000D01*
X129032000Y-95758000D02*
X137668000Y-95758000D01*
X162814000Y-104267000D02*
X164084000Y-105537000D01*
X164084000Y-105537000D02*
X169672000Y-105537000D01*
X128544000Y-105600000D02*
X128544000Y-106533000D01*
X138938000Y-99916000D02*
X139772500Y-99916000D01*
X159583000Y-101021000D02*
X160355000Y-101021000D01*
X123063000Y-97155000D02*
X124460000Y-95758000D01*
X128544000Y-96246000D02*
X129032000Y-95758000D01*
X171460000Y-103749000D02*
X171460000Y-102235000D01*
X158415000Y-101671000D02*
X157678000Y-101671000D01*
X142472500Y-103610500D02*
X143256000Y-104394000D01*
X156972000Y-99568000D02*
X156591000Y-99949000D01*
X127762000Y-95758000D02*
X128544000Y-96540000D01*
X158933000Y-101671000D02*
X159583000Y-101021000D01*
X123063000Y-105156000D02*
X123063000Y-97663000D01*
X157678000Y-101671000D02*
X157353000Y-101346000D01*
X156591000Y-101346000D02*
X157566000Y-100371000D01*
X125222000Y-107315000D02*
X123063000Y-105156000D01*
X137668000Y-95758000D02*
X138938000Y-97028000D01*
X143256000Y-104394000D02*
X145774500Y-104394000D01*
X128544000Y-97600000D02*
X128544000Y-96246000D01*
X142472500Y-102616000D02*
X142472500Y-103610500D01*
X155455000Y-101346000D02*
X156591000Y-101346000D01*
X138938000Y-97028000D02*
X138938000Y-99916000D01*
X147552500Y-99478500D02*
X147590000Y-99441000D01*
X158415000Y-101671000D02*
X158933000Y-101671000D01*
X128544000Y-106533000D02*
X127762000Y-107315000D01*
X145774500Y-104394000D02*
X147552500Y-102616000D01*
X123063000Y-97663000D02*
X123063000Y-97155000D01*
X169672000Y-105537000D02*
X171460000Y-103749000D01*
X156591000Y-99949000D02*
X156591000Y-101346000D01*
X157566000Y-100371000D02*
X158415000Y-100371000D01*
X124460000Y-95758000D02*
X127762000Y-95758000D01*
X127762000Y-107315000D02*
X125222000Y-107315000D01*
X147552500Y-102616000D02*
X147552500Y-99478500D01*
X162814000Y-100689500D02*
X162814000Y-104267000D01*
X161290000Y-96012000D02*
X160381535Y-95103535D01*
X159766000Y-103378000D02*
X159385000Y-102997000D01*
X160381535Y-95103535D02*
X160381535Y-93449393D01*
X159258000Y-105918000D02*
X161798000Y-103378000D01*
X161798000Y-103378000D02*
X159766000Y-103378000D01*
X159949000Y-101671000D02*
X160355000Y-101671000D01*
X132612000Y-105918000D02*
X159258000Y-105918000D01*
X161290000Y-101346000D02*
X161290000Y-96012000D01*
X160355000Y-101671000D02*
X160965000Y-101671000D01*
X159385000Y-102997000D02*
X159385000Y-102235000D01*
X159385000Y-102235000D02*
X159949000Y-101671000D01*
X160965000Y-101671000D02*
X161290000Y-101346000D01*
X132294000Y-105600000D02*
X132612000Y-105918000D01*
X154387000Y-103378000D02*
X161798000Y-103378000D01*
X153155000Y-102146000D02*
X154387000Y-103378000D01*
X182245000Y-104521000D02*
X182245000Y-101092000D01*
X179705000Y-107061000D02*
X182245000Y-104521000D01*
X182245000Y-101092000D02*
X183388000Y-99949000D01*
X187071000Y-98679000D02*
X188595000Y-100203000D01*
X188595000Y-100330000D02*
X188595000Y-102108000D01*
X162052000Y-94318928D02*
X162052000Y-101854000D01*
X131044000Y-106279000D02*
X131826000Y-107061000D01*
X131826000Y-107061000D02*
X179705000Y-107061000D01*
X162921535Y-93449393D02*
X162052000Y-94318928D01*
X185420000Y-97028000D02*
X187007500Y-98615500D01*
X166500142Y-97028000D02*
X185420000Y-97028000D01*
X187007500Y-98615500D02*
X187071000Y-98679000D01*
X188595000Y-100203000D02*
X188595000Y-102108000D01*
X161585000Y-102321000D02*
X160355000Y-102321000D01*
X183388000Y-99949000D02*
X188214000Y-99949000D01*
X131044000Y-105600000D02*
X131044000Y-106279000D01*
X188214000Y-99949000D02*
X188595000Y-100330000D01*
X155448000Y-100539000D02*
X155455000Y-100546000D01*
X162052000Y-101854000D02*
X161585000Y-102321000D01*
X155448000Y-99060000D02*
X155448000Y-100539000D01*
X162921535Y-93449393D02*
X166500142Y-97028000D01*
X142472500Y-99441000D02*
X142472500Y-98954500D01*
X149225000Y-97790000D02*
X149590000Y-98155000D01*
X142472500Y-98954500D02*
X143637000Y-97790000D01*
X149590000Y-99441000D02*
X150695000Y-100546000D01*
X150695000Y-100546000D02*
X153155000Y-100546000D01*
X143637000Y-97790000D02*
X149225000Y-97790000D01*
X149590000Y-98155000D02*
X149590000Y-99441000D01*
M02*
